<svg width="12" height="12" viewBox="0 0 12 12" fill="none" xmlns="http://www.w3.org/2000/svg" style="background-color:#DB5930">
<path d="M5.7168 2.78273L5.7168 9.21724C5.7168 9.3734 5.8434 9.5 5.99956 9.5C6.15573 9.5 6.28232 9.3734 6.28232 9.21724L6.28232 2.78273C6.28232 2.62656 6.15574 2.49997 5.99956 2.49997C5.8434 2.49997 5.7168 2.62656 5.7168 2.78273Z" fill="#212B36" stroke="#212B36" stroke-width="0.2"/>
<path d="M6.00038 8.81709L3.78739 6.60411C3.67696 6.49368 3.49793 6.49368 3.3875 6.60411C3.27708 6.71454 3.27708 6.89357 3.3875 7.004L5.80043 9.41694C5.91086 9.52736 6.08989 9.52736 6.20032 9.41694L8.61325 7.004C8.66848 6.9488 8.69608 6.87642 8.69608 6.80405C8.69608 6.73168 8.66848 6.65931 8.61325 6.6041C8.50283 6.49367 8.32379 6.49367 8.21336 6.6041L6.00038 8.81709Z" fill="#212B36" stroke="#212B36" stroke-width="0.2"/>
</svg>
