<svg width="24" height="24" viewBox="0 0 24 24" fill="none" xmlns="http://www.w3.org/2000/svg" style="background-color:#30DB9E">
<path d="M12.5654 18.4345L12.5654 5.56553C12.5654 5.2532 12.3122 5 11.9999 5C11.6876 5 11.4344 5.2532 11.4344 5.56553L11.4344 18.4345C11.4344 18.7469 11.6876 19.0001 11.9999 19.0001C12.3122 19.0001 12.5654 18.7469 12.5654 18.4345Z" fill="#212B36" stroke="#212B36" stroke-width="0.2"/>
<path d="M12 6.36557L16.426 10.7915C16.6468 11.0124 17.0049 11.0124 17.2257 10.7915C17.4466 10.5707 17.4466 10.2126 17.2257 9.99175L12.3999 5.16589C12.179 4.94503 11.8209 4.94503 11.6001 5.16589L6.77422 9.99175C6.66378 10.1022 6.60857 10.2469 6.60857 10.3917C6.60857 10.5364 6.66378 10.6811 6.77422 10.7916C6.99508 11.0124 7.35315 11.0124 7.574 10.7916L12 6.36557Z" fill="#212B36" stroke="#212B36" stroke-width="0.2"/>
</svg>
