<svg width="24" height="24" viewBox="0 0 24 24" fill="none" xmlns="http://www.w3.org/2000/svg">
<path d="M12.1971 0.394043C11.847 0.394043 11.5113 0.533114 11.2637 0.780662C11.0162 1.02821 10.8771 1.36396 10.8771 1.71404C10.8771 2.06413 11.0162 2.39988 11.2637 2.64742C11.5113 2.89497 11.847 3.03404 12.1971 3.03404C13.9703 3.03404 15.7038 3.55987 17.1782 4.54504C18.6526 5.5302 19.8017 6.93046 20.4803 8.56873C21.1589 10.207 21.3365 12.0097 20.9905 13.7489C20.6446 15.4881 19.7907 17.0856 18.5368 18.3395C17.2829 19.5934 15.6854 20.4473 13.9462 20.7932C12.207 21.1391 10.4043 20.9616 8.76606 20.283C7.12779 19.6044 5.72754 18.4552 4.74237 16.9808C3.75721 15.5064 3.23138 13.773 3.23138 11.9998C3.24414 10.637 3.51763 9.28936 4.03709 8.02947L5.02452 8.71519C5.23932 8.8615 5.49319 8.93975 5.75309 8.93976C6.00226 8.94032 6.24609 8.86759 6.45423 8.73061C6.66775 8.59146 6.83515 8.39207 6.93525 8.15769C7.03535 7.92332 7.06363 7.66451 7.01652 7.41404L6.3428 3.84833C6.27942 3.51658 6.08837 3.22297 5.81074 3.03062C5.53312 2.83827 5.1911 2.76255 4.85823 2.81976L1.25823 3.44547C1.00603 3.48829 0.772341 3.60537 0.587046 3.78174C0.401751 3.9581 0.273277 4.18573 0.218057 4.4355C0.162837 4.68528 0.183382 4.94585 0.277063 5.18389C0.370744 5.42193 0.533303 5.62661 0.743948 5.77176L1.80852 6.50376C1.01631 8.22826 0.601348 10.102 0.591376 11.9998C0.591376 14.2952 1.27204 16.539 2.54729 18.4475C3.82254 20.3561 5.63511 21.8436 7.75578 22.722C9.87644 23.6004 12.21 23.8303 14.4613 23.3825C16.7125 22.9347 18.7805 21.8293 20.4036 20.2062C22.0267 18.5831 23.132 16.5152 23.5798 14.2639C24.0276 12.0126 23.7978 9.67911 22.9194 7.55844C22.041 5.43778 20.5534 3.62521 18.6449 2.34996C16.7363 1.07471 14.4925 0.394043 12.1971 0.394043Z" fill="white"/>
<path d="M15.6257 15.8571C15.4263 15.8574 15.2296 15.8111 15.0514 15.7217L11.6228 14.0074C11.4092 13.9006 11.2295 13.7364 11.1039 13.5332C10.9782 13.3301 10.9116 13.096 10.9114 12.8571V7.28571C10.9114 6.94472 11.0468 6.6177 11.288 6.37658C11.5291 6.13546 11.8561 6 12.1971 6C12.5381 6 12.8651 6.13546 13.1062 6.37658C13.3473 6.6177 13.4828 6.94472 13.4828 7.28571V12.0634L16.2017 13.4211C16.461 13.5506 16.6689 13.7639 16.7918 14.0264C16.9146 14.2889 16.9452 14.5852 16.8785 14.8673C16.8118 15.1493 16.6518 15.4006 16.4244 15.5803C16.1969 15.7599 15.9155 15.8575 15.6257 15.8571Z" fill="white"/>
</svg>
