<svg width="48" height="48" viewBox="0 0 48 48" fill="none" xmlns="http://www.w3.org/2000/svg">
<g clip-path="url(#clip0)">
<path d="M47.7999 44.3263L25.6199 1.94832C25.4507 1.67065 25.2128 1.44117 24.9293 1.28193C24.6458 1.1227 24.3261 1.03906 24.0009 1.03906C23.6757 1.03906 23.356 1.1227 23.0725 1.28193C22.7889 1.44117 22.5511 1.67065 22.3819 1.94832L0.209895 44.3183C0.0750534 44.5783 0.0063611 44.8675 0.00989543 45.1603C0.00989543 45.6377 0.199538 46.0956 0.537103 46.4331C0.874669 46.7707 1.33251 46.9603 1.8099 46.9603H46.1999C46.6773 46.9603 47.1351 46.7707 47.4727 46.4331C47.8102 46.0956 47.9999 45.6377 47.9999 45.1603C48.0026 44.8701 47.9339 44.5837 47.7999 44.3263ZM28.4539 30.4223L25.7779 35.7723C25.7476 35.8333 25.73 35.8999 25.7262 35.9679C25.7225 36.0359 25.7326 36.104 25.756 36.168C25.7794 36.232 25.8155 36.2906 25.8623 36.3401C25.909 36.3897 25.9654 36.4292 26.0279 36.4563L27.3999 37.0423C27.5818 37.1201 27.7366 37.2501 27.8446 37.4159C27.9526 37.5817 28.009 37.7758 28.0066 37.9737C28.0043 38.1715 27.9433 38.3642 27.8313 38.5274C27.7194 38.6906 27.5616 38.8169 27.3779 38.8903L22.3779 40.8903C22.2598 40.9384 22.1334 40.9629 22.0059 40.9623C21.8062 40.9623 21.6111 40.9024 21.4457 40.7905C21.2803 40.6786 21.1522 40.5197 21.0779 40.3343L19.0779 35.3343C19.0047 35.1508 18.9874 34.9498 19.0284 34.7565C19.0693 34.5632 19.1666 34.3864 19.3079 34.2483C19.4498 34.1108 19.6292 34.0185 19.8236 33.9829C20.0179 33.9473 20.2185 33.9701 20.3999 34.0483L22.3459 34.8843C22.4631 34.9345 22.595 34.938 22.7147 34.8942C22.8344 34.8503 22.9329 34.7623 22.9899 34.6483L25.1999 30.2003C25.2382 30.1243 25.2563 30.0397 25.2526 29.9547C25.2489 29.8697 25.2235 29.787 25.1788 29.7146C25.1341 29.6422 25.0715 29.5825 24.9971 29.5411C24.9227 29.4997 24.839 29.4781 24.7539 29.4783H20.9919C20.5127 29.5115 20.0335 29.4147 19.6048 29.1981C19.1761 28.9816 18.8138 28.6533 18.5562 28.248C18.2985 27.8426 18.1551 27.3753 18.1409 26.8952C18.1268 26.4151 18.2425 25.9401 18.4759 25.5203L23.6379 14.3343C23.8047 13.9731 24.1082 13.6929 24.4816 13.5555C24.6665 13.4874 24.8629 13.4564 25.0598 13.4643C25.2567 13.4722 25.45 13.5187 25.6289 13.6013C25.8078 13.6839 25.9686 13.8009 26.1022 13.9457C26.2359 14.0905 26.3397 14.2601 26.4077 14.445C26.4758 14.6299 26.5068 14.8264 26.4989 15.0232C26.4911 15.2201 26.4445 15.4135 26.3619 15.5923L21.6739 25.7463C21.6393 25.8229 21.6242 25.9068 21.6302 25.9906C21.6361 26.0744 21.6628 26.1554 21.7079 26.2263C21.7527 26.2971 21.8147 26.3554 21.8882 26.3956C21.9616 26.4358 22.0441 26.4567 22.1279 26.4563H25.9999C26.4787 26.4209 26.9581 26.5174 27.3858 26.7356C27.8135 26.9537 28.1732 27.285 28.4257 27.6934C28.6781 28.1018 28.8137 28.5716 28.8176 29.0518C28.8216 29.5319 28.6937 30.0039 28.4479 30.4163L28.4539 30.4223Z" fill="#FFDD0F"/>
</g>
<defs>
<clipPath id="clip0">
<rect width="48" height="48" fill="white"/>
</clipPath>
</defs>
</svg>
