
<svg width="695" height="167" viewBox="0 0 695 167" fill="none" xmlns="http://www.w3.org/2000/svg">
<path fill-rule="evenodd" clip-rule="evenodd" d="M695 162.579H617.889L618.038 162.373L617.743 162.017H693.665L660.481 130.814H660.92V130.533L695 162.579Z" fill="#03B3FF"/>
<path fill-rule="evenodd" clip-rule="evenodd" d="M617.283 162.701H540.489L540.662 162.53L540.431 162.14H616.818L617.283 162.701Z" fill="#03B3FF"/>
<path fill-rule="evenodd" clip-rule="evenodd" d="M539.961 162.701H463.122L463.319 162.583L463.162 162.14H539.628L539.961 162.701Z" fill="#03B3FF"/>
<path fill-rule="evenodd" clip-rule="evenodd" d="M462.684 162.701H385.812L386.027 162.659L385.966 162.14H462.485L462.684 162.701Z" fill="#03B3FF"/>
<path fill-rule="evenodd" clip-rule="evenodd" d="M386.53 162.701H309.859L309.925 162.14H386.464L386.53 162.701Z" fill="#03B3FF"/>
<path fill-rule="evenodd" clip-rule="evenodd" d="M309.422 162.701H232.549L232.748 162.14H309.268L309.207 162.659L309.422 162.701Z" fill="#03B3FF"/>
<path fill-rule="evenodd" clip-rule="evenodd" d="M232.077 162.701H155.24L155.572 162.14H232.038L231.88 162.583L232.077 162.701Z" fill="#03B3FF"/>
<path fill-rule="evenodd" clip-rule="evenodd" d="M154.725 162.701H77.9303L78.3953 162.14H154.783L154.552 162.53L154.725 162.701Z" fill="#03B3FF"/>
<path fill-rule="evenodd" clip-rule="evenodd" d="M77.7312 162.114H0.621094L34.7007 130.068V130.349H35.1405L1.95617 161.552H77.8786L77.5837 161.908L77.7312 162.114ZM660.24 129.788H659.502L632.115 104.033H632.554V103.752L660.24 129.788ZM35.2429 129.557L62.6853 103.752V104.033H63.1251L36.5207 129.051L35.2429 129.557ZM632.255 103.471H631.517L608.724 82.0385H609.163V81.7577L632.255 103.471ZM63.722 103.471H62.9846L86.0756 81.7577V82.0385H86.5146L63.722 103.471ZM608.866 81.477H608.128L588.883 63.3811H589.323V63.1004L608.866 81.477ZM87.1123 81.477H86.374L105.917 63.1004V63.3811H106.357L87.1123 81.477ZM589.024 62.8196H588.286L571.841 47.355H572.28V47.0742L589.024 62.8196ZM106.954 62.8196H106.216L117.343 52.356V53.0501L106.954 62.8196ZM117.343 53.0501V52.356L126.684 43.5726L122.893 47.8312L117.343 53.0501ZM571.982 46.7935H571.243L557.042 33.4403H557.481V33.1595L571.982 46.7935ZM123.393 47.2693L126.684 43.5726L137.758 33.1595V33.4403H138.197L123.393 47.2693ZM557.183 32.8788H556.445L544.074 21.245H544.512V20.9642L557.183 32.8788ZM138.795 32.8788H138.057L150.728 20.9642V21.245H151.167L138.795 32.8788ZM544.215 20.6835H543.476L532.615 10.4703H533.054V10.1885L544.215 20.6835ZM151.763 20.6835H151.025L162.186 10.1885V10.4703H162.625L151.763 20.6835ZM532.755 9.90882H532.018L522.714 1.16016H519.041L519.473 0.598633H522.854L532.755 9.90882ZM163.222 9.90882H162.485L172.386 0.598633H211.009L210.544 1.16016H172.526L163.222 9.90882ZM516.505 1.16016H500.928L501.956 0.598633H516.561L516.505 1.16016ZM499.813 1.16016H484.696L484.232 0.598633H500.841L499.813 1.16016ZM484.06 1.16016H445.577L445.245 0.598633H483.913L483.765 0.803038L484.06 1.16016ZM445.03 1.16016H406.469L406.27 0.598633H444.973L444.8 0.769347L445.03 1.16016ZM405.991 1.16016H367.376L367.31 0.598633H406.031L405.833 0.715436L405.991 1.16016ZM366.937 1.16016H328.302L328.364 0.641303L328.15 0.598633H367.09L366.876 0.641303L366.937 1.16016ZM327.864 1.16016H289.248L289.406 0.715436L289.208 0.598633H327.93L327.864 1.16016ZM288.771 1.16016H250.21L250.44 0.769347L250.268 0.598633H288.97L288.771 1.16016ZM249.662 1.16016H211.179L211.474 0.803038L211.327 0.598633H249.994L249.662 1.16016Z" fill="#03B3FF"/>
<path fill-rule="evenodd" clip-rule="evenodd" d="M660.365 130.217H591.379L590.914 129.655H660.365V130.217ZM590.743 130.217H521.73L521.399 129.655H590.278L590.743 130.217ZM521.184 130.217H452.092L451.892 129.655H520.852L521.184 130.217ZM451.614 130.217H382.468L382.402 129.655H451.415L451.614 130.217ZM382.03 130.217H312.864L312.931 129.655H381.963L382.03 130.217ZM312.426 130.217H243.884L245.069 129.655H312.492L312.426 130.217ZM242.623 130.217H221.127L220.773 129.655H243.001L242.839 130.115L242.623 130.217ZM220.568 130.217H173.711L174.043 129.655H220.215L220.568 130.217ZM173.164 130.217H104.151L104.616 129.655H173.496L173.164 130.217ZM103.517 130.217H34.528V129.936L34.5913 130.203L35.9732 129.655H103.981L103.517 130.217ZM243.413 129.843L243.479 129.655H243.808L243.413 129.843Z" fill="#03B3FF"/>
<path fill-rule="evenodd" clip-rule="evenodd" d="M632.879 103.88H570.11L569.646 103.318H632.879V103.88ZM569.474 103.88H506.681L506.349 103.318H569.01L569.474 103.88ZM506.135 103.88H443.261L443.062 103.318H505.803L506.135 103.88ZM442.783 103.88H379.857L379.791 103.318H442.584L442.783 103.88ZM379.418 103.88H317.48V103.318H379.352L379.418 103.88ZM302.758 103.88H299.887L301.071 103.318H302.758V103.88ZM298.624 103.88H253.106L253.305 103.318H299.808L298.624 103.88ZM252.629 103.88H205.062L204.708 103.318H252.828L252.629 103.88ZM204.503 103.88H189.756L190.088 103.318H204.149L204.503 103.88ZM189.21 103.88H126.415L126.879 103.318H189.541L189.21 103.88ZM125.78 103.88H101.239L102.652 103.318H126.245L125.78 103.88ZM99.7628 103.88H63.0104V103.318H101.175L99.7628 103.88Z" fill="#03B3FF"/>
<path fill-rule="evenodd" clip-rule="evenodd" d="M609.156 81.9316H551.587L551.122 81.3701H609.156V81.9316ZM550.951 81.9316H493.354L493.023 81.3701H550.486L550.951 81.9316ZM492.809 81.9316H435.132L434.933 81.3701H492.476L492.809 81.9316ZM434.654 81.9316H416.153L416.468 81.3701H434.455L434.654 81.9316ZM415.618 81.9316H376.926L376.86 81.3701H415.932L415.618 81.9316ZM376.487 81.9316H318.739L318.805 81.3701H376.421L376.487 81.9316ZM318.3 81.9316H317.148V81.3701H318.366L318.3 81.9316ZM302.426 81.9316H260.571L260.77 81.3701H302.426V81.9316ZM260.094 81.9316H202.418L202.75 81.3701H260.292L260.094 81.9316ZM201.872 81.9316H190.887L190.533 81.3701H202.203L201.872 81.9316ZM190.327 81.9316H156.221L157.633 81.3701H189.973L190.327 81.9316ZM154.745 81.9316H144.275L144.739 81.3701H156.157L154.745 81.9316ZM143.64 81.9316H86.0686V81.3701H144.104L143.64 81.9316Z" fill="#03B3FF"/>
<path fill-rule="evenodd" clip-rule="evenodd" d="M589.819 63.4931H536.657L536.193 62.9316H589.819V63.4931ZM536.021 63.4931H482.835L482.503 62.9316H535.557L536.021 63.4931ZM482.288 63.4931H471.968V62.9316H481.957L482.288 63.4931ZM457.247 63.4931H429.021L428.823 62.9316H457.247V63.4931ZM428.543 63.4931H427.114L427.429 62.9316H428.345L428.543 63.4931ZM426.578 63.4931H375.224L375.157 62.9316H426.892L426.578 63.4931ZM374.785 63.4931H321.446L321.512 62.9316H374.719L374.785 63.4931ZM321.007 63.4931H267.688L267.886 62.9316H321.074L321.007 63.4931ZM267.21 63.4931H213.944L214.276 62.9316H267.409L267.21 63.4931ZM213.397 63.4931H160.21L160.675 62.9316H213.729L213.397 63.4931ZM159.575 63.4931H127.18V62.9316H160.04L159.575 63.4931ZM127.18 63.4931H106.413V62.9316H127.18V63.4931Z" fill="#03B3FF"/>
<path fill-rule="evenodd" clip-rule="evenodd" d="M572.354 47.6914H522.979L522.515 47.1299H572.354V47.6914ZM522.343 47.6914H472.944L472.612 47.1299H521.879L522.343 47.6914ZM472.398 47.6914H435.673L435.988 47.1299H472.066L472.398 47.6914ZM435.138 47.6914H422.918L422.719 47.1299H435.452L435.138 47.6914ZM422.44 47.6914H372.908L372.841 47.1299H422.241L422.44 47.6914ZM372.469 47.6914H322.918L322.984 47.1299H372.403L372.469 47.6914ZM322.479 47.6914H272.946L273.145 47.1299H322.545L322.479 47.6914ZM272.468 47.6914H222.99L223.321 47.1299H272.668L272.468 47.6914ZM222.443 47.6914H173.043L173.508 47.1299H222.775L222.443 47.6914ZM172.408 47.6914H122.866V47.1299H172.873L172.408 47.6914Z" fill="#03B3FF"/>
<path fill-rule="evenodd" clip-rule="evenodd" d="M557.331 33.6446H511.246L510.781 33.083H557.331V33.6446ZM510.61 33.6446H471.321V33.083H510.145L510.61 33.6446ZM456.6 33.6446H443.249L443.563 33.083H456.6V33.6446ZM442.712 33.6446H417.762L417.562 33.083H443.027L442.712 33.6446ZM417.284 33.6446H371.04L370.973 33.083H417.084L417.284 33.6446ZM370.601 33.6446H324.337L324.404 33.083H370.534L370.601 33.6446ZM323.898 33.6446H277.654L277.853 33.083H323.965L323.898 33.6446ZM277.177 33.6446H230.987L231.319 33.083H277.376L277.177 33.6446ZM230.44 33.6446H184.328L184.793 33.083H230.772L230.44 33.6446ZM183.693 33.6446H137.608V33.083H184.158L183.693 33.6446Z" fill="#03B3FF"/>
<path fill-rule="evenodd" clip-rule="evenodd" d="M544.955 21.3535H501.752L501.288 20.792H544.955V21.3535ZM501.116 21.3535H464.6L465.628 20.792H500.652L501.116 21.3535ZM463.485 21.3535H457.887L457.555 20.792H464.513L463.485 21.3535ZM457.34 21.3535H414.032L413.833 20.792H457.009L457.34 21.3535ZM413.553 21.3535H370.192L370.126 20.792H413.355L413.553 21.3535ZM369.753 21.3535H326.372L326.438 20.792H369.687L369.753 21.3535ZM325.933 21.3535H282.57L282.77 20.792H325.999L325.933 21.3535ZM282.094 21.3535H238.785L239.117 20.792H282.292L282.094 21.3535ZM238.238 21.3535H195.008L195.473 20.792H238.57L238.238 21.3535ZM194.373 21.3535H151.17V20.792H194.838L194.373 21.3535Z" fill="#03B3FF"/>
<path fill-rule="evenodd" clip-rule="evenodd" d="M532.889 10.8173H492.232L491.768 10.2559H532.889V10.8173ZM491.596 10.8173H483.72L484.748 10.2559H491.132L491.596 10.8173ZM482.604 10.8173H450.913L450.582 10.2559H483.632L482.604 10.8173ZM450.367 10.8173H409.605L409.406 10.2559H450.035L450.367 10.8173ZM409.127 10.8173H368.312L368.245 10.2559H408.928L409.127 10.8173ZM367.873 10.8173H327.038L327.104 10.2559H367.807L367.873 10.8173ZM326.599 10.8173H285.783L285.982 10.2559H326.666L326.599 10.8173ZM285.306 10.8173H244.544L244.876 10.2559H285.505L285.306 10.8173ZM243.997 10.8173H203.314L203.779 10.2559H244.329L243.997 10.8173ZM202.679 10.8173H162.022V10.2559H203.144L202.679 10.8173Z" fill="#03B3FF"/>
<path d="M617.884 162.311L617.743 162.14H618.007L617.884 162.311Z" fill="#03B3FF"/>
<path fill-rule="evenodd" clip-rule="evenodd" d="M617.21 162.319H616.892L616.427 161.758L590.617 130.555L590.152 129.993L568.851 104.238L568.387 103.677L550.66 82.244L550.195 81.6825L535.227 63.5866L534.763 63.0251L521.971 47.5606L521.507 46.999L510.462 33.6458L509.997 33.0843L500.375 21.4505L499.911 20.889L491.462 10.6759L490.998 10.1144L489.012 7.71212L489.45 7.47289L491.634 10.1144L492.098 10.6759L500.547 20.889L501.011 21.4505L510.633 33.0843L511.098 33.6458L522.143 46.999L522.607 47.5606L535.399 63.0251L535.863 63.5866L550.83 81.6825L551.295 82.244L569.023 103.677L569.487 104.238L590.788 129.993L591.253 130.555L617.063 161.758L617.358 162.114L617.21 162.319ZM488.664 7.2921L483.762 1.3657L483.467 1.00857L483.615 0.804169L483.763 0.598633L483.933 0.804169L484.397 1.3657L489.102 7.05287L488.664 7.2921Z" fill="#03B3FF"/>
<path d="M540.515 162.282L540.431 162.14H540.659L540.515 162.282Z" fill="#03B3FF"/>
<path fill-rule="evenodd" clip-rule="evenodd" d="M539.73 162.286H539.458L539.126 161.724L520.691 130.521L520.358 129.96L505.143 104.204L504.811 103.643L492.149 82.2103L491.817 81.6488L481.126 63.553L480.794 62.9914L471.658 47.5269L471.326 46.9653L470.19 45.0426H470.736L471.872 46.9653L472.204 47.5269L481.34 62.9914L481.672 63.553L492.363 81.6488L492.695 82.2103L505.358 103.643L505.689 104.204L520.905 129.96L521.236 130.521L539.672 161.724L539.903 162.115L539.73 162.286ZM467.24 39.1253H466.693L464.02 34.5993H464.565L467.24 39.1253ZM461.069 28.6808H460.523L458.003 24.4154L458.416 24.1897L461.069 28.6808ZM457.73 23.955L456.231 21.4168L455.9 20.8553L449.865 10.6422L449.533 10.0807L444.364 1.33201L444.134 0.941192L444.307 0.770478L444.478 0.598633L444.579 0.770478L444.91 1.33201L450.08 10.0807L450.411 10.6422L456.446 20.8553L456.778 21.4168L458.143 23.7292L457.73 23.955Z" fill="#03B3FF"/>
<path d="M463.157 162.238L463.122 162.14H463.322L463.157 162.238Z" fill="#03B3FF"/>
<path fill-rule="evenodd" clip-rule="evenodd" d="M463.609 162.232H463.37L463.171 161.67L452.11 130.467L451.911 129.906L442.782 104.15L442.582 103.589L434.985 82.1564L434.786 81.5949L428.371 63.499L428.172 62.9375L427.817 61.9357L428.11 61.4135L428.65 62.9375L428.849 63.499L435.264 81.5949L435.463 82.1564L443.06 103.589L443.26 104.15L452.388 129.906L452.588 130.467L463.649 161.67L463.806 162.114L463.609 162.232ZM427.61 61.3506L422.69 47.4729L422.491 46.9114L417.758 33.5582L417.558 32.9967L413.434 21.3629L413.236 20.8014L409.615 10.5883L409.416 10.0267L406.315 1.2781L406.157 0.833369L406.355 0.716566L406.552 0.598633L406.593 0.716566L406.793 1.2781L409.894 10.0267L410.093 10.5883L413.714 20.8014L413.913 21.3629L418.036 32.9967L418.236 33.5582L422.969 46.9114L423.168 47.4729L427.902 60.8284L427.61 61.3506Z" fill="#03B3FF"/>
<path fill-rule="evenodd" clip-rule="evenodd" d="M386.124 162.157H385.904L385.838 161.595L382.151 130.392L382.085 129.83L379.041 104.075L378.976 103.514L378.046 95.6522L378.491 95.7095L379.414 103.514L379.48 104.075L382.524 129.83L382.589 130.392L386.277 161.595L386.338 162.114L386.124 162.157ZM378.424 95.1356L377.979 95.0795L376.442 82.0812L376.376 81.5196L374.238 63.4238L374.172 62.8622L372.344 47.3977L372.278 46.8361L370.7 33.483L370.634 32.9214L369.26 21.2877L369.193 20.7261L367.986 10.513L367.92 9.95148L366.886 1.20283L366.824 0.683973L367.253 0.598633L367.258 0.641303L367.325 1.20283L368.358 9.95148L368.425 10.513L369.632 20.7261L369.698 21.2877L371.073 32.9214L371.139 33.483L372.717 46.8361L372.783 47.3977L374.61 62.8622L374.677 63.4238L376.815 81.5196L376.881 82.0812L378.424 95.1356Z" fill="#03B3FF"/>
<path fill-rule="evenodd" clip-rule="evenodd" d="M308.937 162.157H308.717L308.503 162.114L308.564 161.595L312.252 130.392L312.318 129.83L313.945 116.058H314.384L312.757 129.83L312.69 130.392L309.003 161.595L308.937 162.157ZM315.083 110.141H314.644L315.179 105.614H315.618L315.083 110.141ZM316.317 99.6964H315.878L316.319 95.9656L316.783 95.7455L316.317 99.6964ZM316.394 95.331L316.413 95.1704H316.734L316.394 95.331ZM316.808 95.1345V91.8316L317.96 82.0812L318.026 81.5196L320.164 63.4238L320.231 62.8622L322.058 47.3977L322.124 46.8361L323.702 33.483L323.768 32.9214L325.143 21.2877L325.209 20.7261L326.416 10.513L326.483 9.95148L327.516 1.20283L327.583 0.641303L327.588 0.598633L328.017 0.683973L327.955 1.20283L326.921 9.95148L326.855 10.513L325.648 20.7261L325.582 21.2877L324.207 32.9214L324.141 33.483L322.563 46.8361L322.497 47.3977L320.669 62.8622L320.603 63.4238L318.465 81.5196L318.399 82.0812L316.859 95.1109L316.808 95.1345Z" fill="#03B3FF"/>
<path d="M232.714 162.238L232.549 162.14H232.748L232.714 162.238Z" fill="#03B3FF"/>
<path fill-rule="evenodd" clip-rule="evenodd" d="M231.63 162.232H231.391L231.194 162.114L231.351 161.67L242.194 131.083L242.768 130.811L231.829 161.67L231.63 162.232ZM242.449 130.365L242.612 129.906L251.741 104.15L251.941 103.589L259.538 82.1564L259.737 81.5949L266.152 63.499L266.351 62.9375L271.832 47.4729L272.032 46.9114L276.765 33.5582L276.964 32.9967L281.089 21.3629L281.287 20.8014L284.908 10.5883L285.107 10.0267L288.208 1.2781L288.408 0.716566L288.449 0.598633L288.645 0.716566L288.843 0.833369L288.685 1.2781L285.584 10.0267L285.385 10.5883L281.764 20.8014L281.565 21.3629L277.442 32.9967L277.242 33.5582L272.509 46.9114L272.309 47.4729L266.828 62.9375L266.629 63.499L260.214 81.5949L260.015 82.1564L252.418 103.589L252.218 104.15L243.09 129.906L243.023 130.093L242.449 130.365Z" fill="#03B3FF"/>
<path d="M155.384 162.282L155.24 162.14H155.468L155.384 162.282Z" fill="#03B3FF"/>
<path fill-rule="evenodd" clip-rule="evenodd" d="M155.686 162.286H155.412L155.24 162.115L155.471 161.724L173.907 130.521L174.238 129.96L189.454 104.204L189.785 103.643L196.858 91.671L197.14 92.1202L190.333 103.643L190 104.204L174.785 129.96L174.453 130.521L156.018 161.724L155.686 162.286ZM197.411 91.6609L197.129 91.2128L202.448 82.2103L202.779 81.6488L213.471 63.553L213.803 62.9914L222.939 47.5269L223.271 46.9653L231.161 33.6122L231.492 33.0506L238.365 21.4168L238.696 20.8553L244.731 10.6422L245.063 10.0807L250.232 1.33201L250.564 0.770478L250.664 0.598633L250.837 0.770478L251.01 0.941192L250.779 1.33201L245.61 10.0807L245.278 10.6422L239.244 20.8553L238.912 21.4168L232.039 33.0506L231.707 33.6122L223.817 46.9653L223.486 47.5269L214.349 62.9914L214.018 63.553L203.327 81.6488L202.995 82.2103L197.411 91.6609Z" fill="#03B3FF"/>
<path d="M78.0538 162.311L77.9303 162.14H78.1947L78.0538 162.311Z" fill="#03B3FF"/>
<path fill-rule="evenodd" clip-rule="evenodd" d="M78.3953 162.319H78.0778L77.9303 162.114L78.2252 161.758L104.036 130.555L104.5 129.993L125.801 104.238L126.266 103.677L137.828 89.6989L138.774 89.3227L126.901 103.677L126.436 104.238L105.135 129.993L104.67 130.555L78.8603 161.758L78.3953 162.319ZM138.552 88.8241L143.994 82.244L144.458 81.6825L159.426 63.5866L159.891 63.0251L172.681 47.5606L173.146 46.999L184.191 33.6458L184.655 33.0843L194.277 21.4505L194.742 20.889L203.19 10.6759L203.655 10.1144L210.891 1.3657L211.356 0.804169L211.525 0.598633L211.673 0.804169L211.821 1.00857L211.526 1.3657L204.29 10.1144L203.825 10.6759L195.377 20.889L194.912 21.4505L185.29 33.0843L184.826 33.6458L173.781 46.999L173.316 47.5606L160.526 63.0251L160.061 63.5866L145.093 81.6825L144.629 82.244L139.497 88.4478L138.552 88.8241Z" fill="#03B3FF"/>
<path d="M315.067 110.34H313.929V116.257H315.067V110.34Z" fill="#03B3FF"/>
<path d="M317.035 91.9053H316.641V95.2442H317.035V91.9053Z" fill="#03B3FF"/>
<path d="M317.799 81.3701H303.077V81.9318H317.799V81.3701Z" fill="#03B3FF"/>
<path d="M317.799 103.318H303.077V103.88H317.799V103.318Z" fill="#03B3FF"/>
<path d="M316.423 99.8066H315.285V105.724H316.423V99.8066Z" fill="#03B3FF"/>
<path d="M471.062 62.9316H456.341V63.4934H471.062V62.9316Z" fill="#03B3FF"/>
<path d="M471.062 33.083H456.341V33.6445H471.062V33.083Z" fill="#03B3FF"/>
<path fill-rule="evenodd" clip-rule="evenodd" d="M35.2662 130.392H34.528L34.7717 130.162L36.0495 129.655L35.2662 130.392Z" fill="#03B3FF"/>
<path fill-rule="evenodd" clip-rule="evenodd" d="M243.885 130.217H243.28L243.413 129.843L243.808 129.655H245.07L243.885 130.217ZM242.803 130.217H242.623L242.839 130.115L242.803 130.217ZM221.127 130.217H220.568L220.215 129.655H220.774L221.127 130.217ZM34.5913 130.203L34.528 129.936V129.655H35.9732L34.5913 130.203Z" fill="#03B3FF"/>
<path fill-rule="evenodd" clip-rule="evenodd" d="M299.755 103.88H298.492L299.676 103.318H300.939L299.755 103.88ZM204.931 103.88H204.371L204.017 103.318H204.577L204.931 103.88ZM101.108 103.88H99.6311L101.043 103.318H102.521L101.108 103.88Z" fill="#03B3FF"/>
<path fill-rule="evenodd" clip-rule="evenodd" d="M191.381 81.9316H190.822L190.468 81.3701H191.027L191.381 81.9316ZM156.716 81.9316H155.24L156.652 81.3701H158.128L156.716 81.9316Z" fill="#03B3FF"/>
<path fill-rule="evenodd" clip-rule="evenodd" d="M243.4 131.523L243.619 130.907L243.655 130.805L244.228 130.533L244.096 130.907L243.973 131.251L243.4 131.523Z" fill="#03B3FF"/>
<path fill-rule="evenodd" clip-rule="evenodd" d="M196.211 91.9347L195.929 91.4855L196.2 91.0273L196.483 91.4754L196.211 91.9347Z" fill="#03B3FF"/>
<path fill-rule="evenodd" clip-rule="evenodd" d="M137.608 89.6446L138.332 88.7698L139.278 88.3936L138.554 89.2684L137.608 89.6446Z" fill="#03B3FF"/>
<path fill-rule="evenodd" clip-rule="evenodd" d="M500.858 1.16012H499.743L500.771 0.598633H501.886L500.858 1.16012Z" fill="#03B3FF"/>
<path fill-rule="evenodd" clip-rule="evenodd" d="M416.186 81.9316H415.651L415.965 81.3701H416.501L416.186 81.9316Z" fill="#03B3FF"/>
<path fill-rule="evenodd" clip-rule="evenodd" d="M427.038 63.4931H426.502L426.817 62.9316H427.353L427.038 63.4931Z" fill="#03B3FF"/>
<path fill-rule="evenodd" clip-rule="evenodd" d="M435.175 47.6914H434.639L434.953 47.1299H435.49L435.175 47.6914Z" fill="#03B3FF"/>
<path fill-rule="evenodd" clip-rule="evenodd" d="M443.314 33.6446H442.778L443.092 33.083H443.628L443.314 33.6446Z" fill="#03B3FF"/>
<path fill-rule="evenodd" clip-rule="evenodd" d="M464.238 21.3535H463.122L464.15 20.792H465.266L464.238 21.3535Z" fill="#03B3FF"/>
<path fill-rule="evenodd" clip-rule="evenodd" d="M483.227 10.8173H482.11L483.138 10.2559H484.255L483.227 10.8173Z" fill="#03B3FF"/>
<path fill-rule="evenodd" clip-rule="evenodd" d="M489.24 7.40431L488.892 6.98432L489.33 6.74512L489.678 7.1651L489.24 7.40431Z" fill="#03B3FF"/>
<path fill-rule="evenodd" clip-rule="evenodd" d="M459.326 24.112L459.054 23.6515L459.467 23.4258L459.739 23.8862L459.326 24.112Z" fill="#03B3FF"/>
<path fill-rule="evenodd" clip-rule="evenodd" d="M428.066 62.2841L427.859 61.699L428.151 61.1768L428.359 61.7619L428.066 62.2841Z" fill="#03B3FF"/>
<path fill-rule="evenodd" clip-rule="evenodd" d="M378.187 96.046L377.742 95.9888L377.674 95.416L378.119 95.4722L378.187 96.046Z" fill="#03B3FF"/>
<path fill-rule="evenodd" clip-rule="evenodd" d="M316.641 96.2706L316.716 95.6361L317.056 95.4755H317.129V95.4396L317.181 95.416L317.105 96.0505L316.641 96.2706Z" fill="#03B3FF"/>
<path fill-rule="evenodd" clip-rule="evenodd" d="M518.554 1.16012H516.018L516.074 0.598633H518.986L518.554 1.16012Z" fill="#03B3FF"/>
<ellipse cx="350" cy="87.5" rx="235" ry="79.5" fill="url(#paint0_radial)"/>
<defs>
<radialGradient id="paint0_radial" cx="0" cy="0" r="1" gradientUnits="userSpaceOnUse" gradientTransform="translate(369.789 78.755) rotate(-156.085) scale(174.537 114.062)">
<stop stop-color="#03B3FF"/>
<stop offset="0.984375" stop-color="#03B3FF" stop-opacity="0"/>
</radialGradient>
</defs>
</svg>
