<svg width="297" height="251" viewBox="0 0 297 251" fill="none" xmlns="http://www.w3.org/2000/svg">
<path d="M5.916 31.856L5.22236 32.5763L5.916 31.856ZM4.728 2.2V1.2H3.728V2.2H4.728ZM25.584 3.52L25.1368 4.41445L25.1427 4.41735L25.584 3.52ZM29.72 7.26L28.8624 7.77454L28.8694 7.78582L29.72 7.26ZM28.268 30.096L28.9698 30.8084L28.9751 30.8031L28.268 30.096ZM23.692 26.004L24.4383 26.6696L23.692 26.004ZM23.516 9.108L22.8288 9.83447L22.8341 9.83943L22.8394 9.84433L23.516 9.108ZM10.8 7.568V6.568H9.8V7.568H10.8ZM10.8 27.632H9.8V28.632H10.8V27.632ZM8.996 32C7.95227 32 7.18768 31.6923 6.60964 31.1357L5.22236 32.5763C6.22832 33.545 7.51706 34 8.996 34V32ZM6.60964 31.1357C6.0379 30.5851 5.728 29.8602 5.728 28.864H3.728C3.728 30.3318 4.2101 31.6016 5.22236 32.5763L6.60964 31.1357ZM5.728 28.864L5.728 2.2H3.728L3.728 28.864H5.728ZM4.728 3.2H19.424V1.2H4.728V3.2ZM19.424 3.2C21.6451 3.2 23.5399 3.616 25.1368 4.41443L26.0312 2.62557C24.1081 1.664 21.8963 1.2 19.424 1.2V3.2ZM25.1427 4.41735C26.7702 5.21776 27.9995 6.33622 28.8625 7.77449L30.5775 6.7455C29.5045 4.95711 27.9765 3.58224 26.0253 2.62265L25.1427 4.41735ZM28.8694 7.78582C29.7582 9.22365 30.216 10.9 30.216 12.848H32.216C32.216 10.572 31.6764 8.52301 30.5706 6.73418L28.8694 7.78582ZM30.216 12.848V21.472H32.216V12.848H30.216ZM30.216 21.472C30.216 25.0891 29.2791 27.6707 27.5609 29.3889L28.9751 30.8031C31.1876 28.5906 32.216 25.4229 32.216 21.472H30.216ZM27.5662 29.3836C25.8499 31.0743 23.2529 32 19.6 32V34C23.5738 34 26.7554 32.9897 28.9698 30.8084L27.5662 29.3836ZM19.6 32H8.996V34H19.6V32ZM19.424 28.632C21.4981 28.632 23.2288 28.0257 24.4383 26.6696L22.9457 25.3384C22.2192 26.153 21.1045 26.632 19.424 26.632V28.632ZM24.4383 26.6696C25.6302 25.3333 26.144 23.4562 26.144 21.208H24.144C24.144 23.1838 23.6898 24.5041 22.9457 25.3384L24.4383 26.6696ZM26.144 21.208V13.112H24.144V21.208H26.144ZM26.144 13.112C26.144 11.2016 25.5127 9.58475 24.1926 8.37167L22.8394 9.84433C23.6899 10.6259 24.144 11.6784 24.144 13.112H26.144ZM24.2032 8.38153C22.8997 7.14845 21.215 6.568 19.248 6.568V8.568C20.801 8.568 21.9617 9.01422 22.8288 9.83447L24.2032 8.38153ZM19.248 6.568H10.8V8.568H19.248V6.568ZM9.8 7.568V27.632H11.8L11.8 7.568H9.8ZM10.8 28.632H19.424V26.632H10.8V28.632ZM37.6905 31.856L36.9969 32.5763L37.6905 31.856ZM36.5025 2.2V1.2H35.5025V2.2H36.5025ZM59.9985 2.2H60.9985V1.2H59.9985V2.2ZM59.9985 7.48V8.48H60.9985V7.48H59.9985ZM42.5745 7.48V6.48H41.5745V7.48H42.5745ZM42.5745 14.608H41.5745V15.608H42.5745V14.608ZM58.6785 14.608H59.6785V13.608H58.6785V14.608ZM58.6785 19.888V20.888H59.6785V19.888H58.6785ZM42.5745 19.888V18.888H41.5745V19.888H42.5745ZM42.5745 27.72H41.5745V28.72H42.5745V27.72ZM59.9985 27.72H60.9985V26.72H59.9985V27.72ZM59.9985 33V34H60.9985V33H59.9985ZM40.7705 32C39.7268 32 38.9622 31.6923 38.3842 31.1357L36.9969 32.5763C38.0029 33.545 39.2916 34 40.7705 34V32ZM38.3842 31.1357C37.8124 30.5851 37.5025 29.8602 37.5025 28.864H35.5025C35.5025 30.3318 35.9846 31.6016 36.9969 32.5763L38.3842 31.1357ZM37.5025 28.864V2.2H35.5025V28.864H37.5025ZM36.5025 3.2H59.9985V1.2H36.5025V3.2ZM58.9985 2.2V7.48H60.9985V2.2H58.9985ZM59.9985 6.48H42.5745V8.48H59.9985V6.48ZM41.5745 7.48V14.608H43.5745V7.48H41.5745ZM42.5745 15.608H58.6785V13.608H42.5745V15.608ZM57.6785 14.608V19.888H59.6785V14.608H57.6785ZM58.6785 18.888H42.5745V20.888H58.6785V18.888ZM41.5745 19.888V27.72H43.5745V19.888H41.5745ZM42.5745 28.72H59.9985V26.72H42.5745V28.72ZM58.9985 27.72V33H60.9985V27.72H58.9985ZM59.9985 32H40.7705V34H59.9985V32ZM69.2416 31.9L68.7471 32.7692L68.7535 32.7728L69.2416 31.9ZM65.2816 27.808L64.3961 28.2726L64.3993 28.2786L65.2816 27.808ZM65.2816 7.436L64.4021 6.96017L64.3993 6.96541L65.2816 7.436ZM69.3296 3.3L68.8477 2.42376L68.8415 2.42724L69.3296 3.3ZM85.8736 3.256L86.3632 2.38401V2.38401L85.8736 3.256ZM89.7456 7.216L88.8637 7.68738L88.8686 7.69651L88.8736 7.70553L89.7456 7.216ZM91.1536 13.068V14.068H92.1536V13.068H91.1536ZM85.1696 13.068H84.1696V14.068H85.1696V13.068ZM83.7616 8.844L83.0052 9.49821L83.0142 9.50836L83.7616 8.844ZM71.4416 9.064L72.2114 9.70238L72.2189 9.6932L71.4416 9.064ZM71.3976 26.18L70.6113 26.7979L70.6186 26.807L71.3976 26.18ZM83.7616 26.18L82.9919 25.5417L82.9872 25.5473L82.9826 25.553L83.7616 26.18ZM85.2576 21.428V20.428H84.2576V21.428H85.2576ZM91.2416 21.428H92.2416V20.428H91.2416V21.428ZM89.8336 27.72L90.7192 28.1846L90.7222 28.1786L89.8336 27.72ZM85.8736 31.9L86.3682 32.7692L86.3793 32.7627L85.8736 31.9ZM75.2256 32.352C73.1138 32.352 71.2916 31.9008 69.7298 31.0272L68.7535 32.7728C70.653 33.8352 72.8201 34.352 75.2256 34.352V32.352ZM69.7361 31.0308C68.2025 30.1582 67.0154 28.9339 66.164 27.3374L64.3993 28.2786C65.4251 30.2021 66.8781 31.7058 68.7471 32.7692L69.7361 31.0308ZM66.1672 27.3434C65.3141 25.7172 64.8736 23.8274 64.8736 21.648H62.8736C62.8736 24.1032 63.3718 26.3201 64.3961 28.2725L66.1672 27.3434ZM64.8736 21.648V13.552H62.8736V21.648H64.8736ZM64.8736 13.552C64.8736 11.3721 65.3142 9.49992 66.164 7.90659L64.3993 6.96541C63.3717 8.89207 62.8736 11.0972 62.8736 13.552H64.8736ZM66.1612 7.91182C67.0414 6.28466 68.257 5.04572 69.8178 4.17276L68.8415 2.42724C66.9409 3.49028 65.4578 5.00867 64.4021 6.96018L66.1612 7.91182ZM69.8115 4.17622C71.4044 3.30014 73.2584 2.848 75.4016 2.848V0.848C72.9689 0.848 70.7748 1.36386 68.8477 2.42378L69.8115 4.17622ZM75.4016 2.848H80.0656V0.848H75.4016V2.848ZM80.0656 2.848C82.1197 2.848 83.8824 3.28494 85.3841 4.12798L86.3632 2.38401C84.5208 1.34973 82.4115 0.848 80.0656 0.848V2.848ZM85.3841 4.12798C86.8887 4.97267 88.0437 6.15318 88.8637 7.68738L90.6276 6.74462C89.6289 4.87614 88.2026 3.41666 86.3632 2.38401L85.3841 4.12798ZM88.8736 7.70553C89.7156 9.20529 90.1536 10.982 90.1536 13.068H92.1536C92.1536 10.6953 91.653 8.57071 90.6176 6.72646L88.8736 7.70553ZM91.1536 12.068H85.1696V14.068H91.1536V12.068ZM86.1696 13.068C86.1696 11.1256 85.6476 9.46057 84.509 8.17964L83.0142 9.50836C83.7529 10.3394 84.1696 11.4904 84.1696 13.068H86.1696ZM84.518 8.18985C83.3762 6.86964 81.8605 6.216 80.0656 6.216V8.216C81.3214 8.216 82.2697 8.64769 83.0053 9.49815L84.518 8.18985ZM80.0656 6.216H75.4016V8.216H80.0656V6.216ZM75.4016 6.216C73.4699 6.216 71.8594 6.95858 70.6644 8.4348L72.2189 9.6932C73.0185 8.70542 74.048 8.216 75.4016 8.216V6.216ZM70.6719 8.42566C69.4906 9.85012 68.9456 11.6792 68.9456 13.816H70.9456C70.9456 12.0221 71.398 10.6832 72.2114 9.70234L70.6719 8.42566ZM68.9456 13.816V21.384H70.9456V13.816H68.9456ZM68.9456 21.384C68.9456 23.5153 69.4728 25.3488 70.6113 26.7978L72.1839 25.5622C71.3864 24.5472 70.9456 23.1834 70.9456 21.384H68.9456ZM70.6186 26.807C71.7821 28.2526 73.348 28.984 75.2256 28.984V26.984C73.9352 26.984 72.9492 26.5128 72.1766 25.553L70.6186 26.807ZM75.2256 28.984H79.9776V26.984H75.2256V28.984ZM79.9776 28.984C81.8326 28.984 83.3813 28.2474 84.5406 26.807L82.9826 25.553C82.206 26.5179 81.232 26.984 79.9776 26.984V28.984ZM84.5314 26.8183C85.7126 25.3939 86.2576 23.5648 86.2576 21.428H84.2576C84.2576 23.2219 83.8053 24.5608 82.9919 25.5417L84.5314 26.8183ZM85.2576 22.428H91.2416V20.428H85.2576V22.428ZM90.2416 21.428C90.2416 23.6702 89.7995 25.6057 88.945 27.2614L90.7222 28.1786C91.7451 26.1969 92.2416 23.9378 92.2416 21.428H90.2416ZM88.9481 27.2555C88.094 28.8835 86.9038 30.137 85.3679 31.0373L86.3793 32.7627C88.2462 31.6684 89.6959 30.1352 90.7192 28.1845L88.9481 27.2555ZM85.3791 31.0308C83.8484 31.9018 82.058 32.352 79.9776 32.352V34.352C82.3559 34.352 84.4962 33.8342 86.3681 32.7692L85.3791 31.0308ZM79.9776 32.352H75.2256V34.352H79.9776V32.352ZM96.3666 2.2V1.2H95.3666V2.2H96.3666ZM102.439 2.2H103.439V1.2H102.439V2.2ZM102.439 33V34H103.439V33H102.439ZM96.3666 33H95.3666V34H96.3666V33ZM96.3666 3.2L102.439 3.2V1.2L96.3666 1.2V3.2ZM101.439 2.2V33H103.439V2.2H101.439ZM102.439 32H96.3666V34H102.439V32ZM97.3666 33V2.2H95.3666V33H97.3666ZM110.413 31.856L109.719 32.5763L110.413 31.856ZM109.225 2.2V1.2H108.225V2.2H109.225ZM130.081 3.52L129.633 4.41445L129.639 4.41735L130.081 3.52ZM134.217 7.26L133.359 7.77454L133.366 7.78582L134.217 7.26ZM132.765 30.096L133.466 30.8084L133.472 30.8031L132.765 30.096ZM128.189 26.004L128.935 26.6696L128.189 26.004ZM128.013 9.108L127.325 9.83447L127.331 9.83943L127.336 9.84433L128.013 9.108ZM115.297 7.568V6.568H114.297V7.568H115.297ZM115.297 27.632H114.297V28.632H115.297V27.632ZM113.493 32C112.449 32 111.684 31.6923 111.106 31.1357L109.719 32.5763C110.725 33.545 112.014 34 113.493 34V32ZM111.106 31.1357C110.534 30.5851 110.225 29.8602 110.225 28.864H108.225C108.225 30.3318 108.707 31.6016 109.719 32.5763L111.106 31.1357ZM110.225 28.864V2.2H108.225V28.864H110.225ZM109.225 3.2H123.921V1.2H109.225V3.2ZM123.921 3.2C126.142 3.2 128.036 3.616 129.633 4.41443L130.528 2.62557C128.605 1.664 126.393 1.2 123.921 1.2V3.2ZM129.639 4.41735C131.267 5.21776 132.496 6.33622 133.359 7.77449L135.074 6.7455C134.001 4.95711 132.473 3.58224 130.522 2.62265L129.639 4.41735ZM133.366 7.78582C134.255 9.22365 134.713 10.9 134.713 12.848H136.713C136.713 10.572 136.173 8.52301 135.067 6.73418L133.366 7.78582ZM134.713 12.848V21.472H136.713V12.848H134.713ZM134.713 21.472C134.713 25.0891 133.776 27.6707 132.057 29.3889L133.472 30.8031C135.684 28.5906 136.713 25.4229 136.713 21.472H134.713ZM132.063 29.3836C130.347 31.0743 127.749 32 124.097 32V34C128.07 34 131.252 32.9897 133.466 30.8084L132.063 29.3836ZM124.097 32H113.493V34H124.097V32ZM123.921 28.632C125.995 28.632 127.725 28.0257 128.935 26.6696L127.442 25.3384C126.716 26.153 125.601 26.632 123.921 26.632V28.632ZM128.935 26.6696C130.127 25.3333 130.641 23.4562 130.641 21.208L128.641 21.208C128.641 23.1838 128.186 24.5041 127.442 25.3384L128.935 26.6696ZM130.641 21.208V13.112H128.641V21.208L130.641 21.208ZM130.641 13.112C130.641 11.2016 130.009 9.58475 128.689 8.37167L127.336 9.84433C128.186 10.6259 128.641 11.6784 128.641 13.112H130.641ZM128.7 8.38153C127.396 7.14845 125.712 6.568 123.745 6.568V8.568C125.298 8.568 126.458 9.01422 127.325 9.83447L128.7 8.38153ZM123.745 6.568H115.297V8.568H123.745V6.568ZM114.297 7.568V27.632H116.297V7.568H114.297ZM115.297 28.632H123.921V26.632H115.297V28.632ZM142.187 31.856L141.493 32.5763L142.187 31.856ZM140.999 2.2V1.2H139.999V2.2H140.999ZM164.495 2.2H165.495V1.2H164.495V2.2ZM164.495 7.48V8.48H165.495V7.48H164.495ZM147.071 7.48V6.48H146.071V7.48H147.071ZM147.071 14.608H146.071V15.608H147.071V14.608ZM163.175 14.608H164.175V13.608H163.175V14.608ZM163.175 19.888V20.888H164.175V19.888H163.175ZM147.071 19.888V18.888H146.071V19.888H147.071ZM147.071 27.72H146.071V28.72H147.071V27.72ZM164.495 27.72H165.495V26.72H164.495V27.72ZM164.495 33V34H165.495V33H164.495ZM145.267 32C144.223 32 143.459 31.6923 142.881 31.1357L141.493 32.5763C142.499 33.545 143.788 34 145.267 34V32ZM142.881 31.1357C142.309 30.5851 141.999 29.8602 141.999 28.864H139.999C139.999 30.3318 140.481 31.6016 141.493 32.5763L142.881 31.1357ZM141.999 28.864V2.2H139.999V28.864H141.999ZM140.999 3.2L164.495 3.2V1.2L140.999 1.2V3.2ZM163.495 2.2V7.48H165.495V2.2H163.495ZM164.495 6.48H147.071V8.48H164.495V6.48ZM146.071 7.48V14.608H148.071V7.48H146.071ZM147.071 15.608H163.175V13.608H147.071V15.608ZM162.175 14.608V19.888H164.175V14.608H162.175ZM163.175 18.888H147.071V20.888H163.175V18.888ZM146.071 19.888V27.72H148.071V19.888H146.071ZM147.071 28.72H164.495V26.72H147.071V28.72ZM163.495 27.72V33H165.495V27.72H163.495ZM164.495 32H145.267V34H164.495V32ZM183.064 2.2V1.2H182.064V2.2H183.064ZM189.136 2.2H190.136V1.2H189.136V2.2ZM189.136 14.916H188.136V15.916H189.136V14.916ZM203.48 14.916V15.916H204.48V14.916H203.48ZM203.48 2.2V1.2H202.48V2.2H203.48ZM209.552 2.2H210.552V1.2H209.552V2.2ZM209.552 33V34H210.552V33H209.552ZM203.48 33H202.48V34H203.48V33ZM203.48 20.196H204.48V19.196H203.48V20.196ZM189.136 20.196V19.196H188.136V20.196H189.136ZM189.136 33V34H190.136V33H189.136ZM183.064 33H182.064V34H183.064V33ZM183.064 3.2H189.136V1.2H183.064V3.2ZM188.136 2.2V14.916H190.136V2.2H188.136ZM189.136 15.916L203.48 15.916V13.916L189.136 13.916V15.916ZM204.48 14.916V2.2H202.48V14.916H204.48ZM203.48 3.2H209.552V1.2H203.48V3.2ZM208.552 2.2V33H210.552V2.2H208.552ZM209.552 32H203.48V34H209.552V32ZM204.48 33V20.196H202.48V33H204.48ZM203.48 19.196L189.136 19.196V21.196H203.48V19.196ZM188.136 20.196V33H190.136V20.196H188.136ZM189.136 32H183.064V34H189.136V32ZM184.064 33V2.2H182.064V33H184.064ZM220.578 31.9L220.085 32.77L220.093 32.7749L220.102 32.7795L220.578 31.9ZM216.442 27.764L215.562 28.2398L215.567 28.2485L215.572 28.257L216.442 27.764ZM216.442 7.48L215.568 6.99313L215.565 6.99808L216.442 7.48ZM220.578 3.344L221.059 4.22023L221.064 4.21748L220.578 3.344ZM237.518 3.344L237.025 4.21402L237.033 4.21887L237.042 4.22354L237.518 3.344ZM241.654 7.48L240.774 7.95582L240.779 7.96446L240.784 7.97301L241.654 7.48ZM241.654 27.764L240.78 27.2771L240.777 27.2821L241.654 27.764ZM237.518 31.9L237.999 32.7762L238.004 32.7735L237.518 31.9ZM235.494 26.136L234.734 25.4851L234.725 25.4958L235.494 26.136ZM235.494 9.064L234.725 9.70424L234.734 9.71479L235.494 9.064ZM222.602 9.064L221.842 8.41315L221.833 8.42381L222.602 9.064ZM222.602 26.136L221.833 26.7762L221.842 26.7868L222.602 26.136ZM226.738 32.352C224.563 32.352 222.677 31.899 221.053 31.0205L220.102 32.7795C222.056 33.837 224.277 34.352 226.738 34.352V32.352ZM221.071 31.03C219.468 30.1219 218.22 28.8735 217.312 27.271L215.572 28.257C216.658 30.1745 218.167 31.6835 220.085 32.77L221.071 31.03ZM217.321 27.2882C216.444 25.666 215.99 23.7662 215.99 21.56H213.99C213.99 24.0471 214.504 26.2833 215.562 28.2398L217.321 27.2882ZM215.99 21.56V13.64H213.99V21.56H215.99ZM215.99 13.64C215.99 11.4333 216.444 9.55116 217.318 7.96192L215.565 6.99808C214.503 8.92883 213.99 11.1533 213.99 13.64H215.99ZM217.315 7.96686C218.223 6.33805 219.467 5.09587 221.059 4.22021L220.096 2.46778C218.168 3.52812 216.655 5.04328 215.568 6.99314L217.315 7.96686ZM221.064 4.21748C222.686 3.31352 224.568 2.848 226.738 2.848V0.848C224.273 0.848 222.048 1.37982 220.091 2.47052L221.064 4.21748ZM226.738 2.848H231.402V0.848H226.738V2.848ZM231.402 2.848C233.572 2.848 235.436 3.31363 237.025 4.21402L238.011 2.47398C236.079 1.37971 233.866 0.848 231.402 0.848V2.848ZM237.042 4.22354C238.66 5.09906 239.898 6.33743 240.774 7.95582L242.533 7.00418C241.473 5.0439 239.954 3.52494 237.993 2.46446L237.042 4.22354ZM240.784 7.97301C241.683 9.5601 242.15 11.4382 242.15 13.64H244.15C244.15 11.1484 243.619 8.91989 242.524 6.98698L240.784 7.97301ZM242.15 13.64V21.56H244.15V13.64H242.15ZM242.15 21.56C242.15 23.7614 241.683 25.6572 240.78 27.2771L242.527 28.2509C243.619 26.2922 244.15 24.052 244.15 21.56H242.15ZM240.777 27.2821C239.902 28.8742 238.66 30.1187 237.031 31.0265L238.004 32.7735C239.954 31.6867 241.469 30.1738 242.53 28.2459L240.777 27.2821ZM237.036 31.0238C235.445 31.8989 233.577 32.352 231.402 32.352V34.352C233.861 34.352 236.071 33.8371 237.999 32.7762L237.036 31.0238ZM231.402 32.352H226.738V34.352H231.402V32.352ZM231.402 28.984C233.379 28.984 235.032 28.2516 236.262 26.7762L234.725 25.4958C233.902 26.4844 232.827 26.984 231.402 26.984V28.984ZM236.253 26.7868C237.498 25.3346 238.078 23.4726 238.078 21.296H236.078C236.078 23.1088 235.602 24.4734 234.734 25.4852L236.253 26.7868ZM238.078 21.296V13.904H236.078V21.296H238.078ZM238.078 13.904C238.078 11.7274 237.498 9.86538 236.253 8.41321L234.734 9.71479C235.602 10.7266 236.078 12.0912 236.078 13.904H238.078ZM236.262 8.42381C235.032 6.94841 233.379 6.216 231.402 6.216V8.216C232.827 8.216 233.902 8.71559 234.725 9.70418L236.262 8.42381ZM231.402 6.216H226.738V8.216H231.402V6.216ZM226.738 6.216C224.76 6.216 223.099 6.94757 221.842 8.41321L223.361 9.71479C224.217 8.71642 225.312 8.216 226.738 8.216V6.216ZM221.833 8.42381C220.623 9.87602 220.062 11.7342 220.062 13.904H222.062C222.062 12.0845 222.527 10.716 223.37 9.70418L221.833 8.42381ZM220.062 13.904V21.296H222.062V13.904H220.062ZM220.062 21.296C220.062 23.4658 220.623 25.324 221.833 26.7762L223.37 25.4958C222.527 24.484 222.062 23.1155 222.062 21.296H220.062ZM221.842 26.7868C223.099 28.2524 224.76 28.984 226.738 28.984V26.984C225.312 26.984 224.217 26.4836 223.361 25.4852L221.842 26.7868ZM226.738 28.984H231.402V26.984H226.738V28.984ZM251.764 29.568L250.783 29.7635L250.784 29.7684L251.764 29.568ZM246.308 2.2V1.2H245.089L245.327 2.39551L246.308 2.2ZM252.468 2.2L253.453 2.02949L253.309 1.2H252.468V2.2ZM256.252 24.068L255.266 24.2385L255.41 25.068H256.252V24.068ZM256.34 24.068V25.068H257.073L257.293 24.3686L256.34 24.068ZM262.72 3.828V2.828H261.986L261.766 3.52736L262.72 3.828ZM266.812 4.4L266.226 5.21068L266.236 5.21812L266.247 5.22531L266.812 4.4ZM268.088 6.468L267.128 6.75018L267.131 6.7604L268.088 6.468ZM273.456 24.024L272.499 24.3164L272.716 25.024H273.456V24.024ZM273.544 24.024V25.024H274.385L274.529 24.1948L273.544 24.024ZM277.328 2.2V1.2H276.486L276.342 2.02916L277.328 2.2ZM283.488 2.2L284.468 2.39702L284.709 1.2H283.488V2.2ZM277.988 29.568L277.007 29.371L277.007 29.3719L277.988 29.568ZM276.668 32.164L276.014 31.4072L276.005 31.4147L275.997 31.4225L276.668 32.164ZM271.564 33L270.609 33.2965L270.827 34H271.564V33ZM265.008 11.88L265.963 11.5835L265.744 10.88H265.008V11.88ZM264.92 11.88V10.88H264.187L263.966 11.5781L264.92 11.88ZM258.232 33V34H258.964L259.185 33.3019L258.232 33ZM255.68 32C254.855 32 254.238 31.7966 253.766 31.4478L252.577 33.0562C253.455 33.7047 254.51 34 255.68 34V32ZM253.766 31.4478C253.376 31.1599 252.985 30.5481 252.743 29.3676L250.784 29.7684C251.07 31.1692 251.617 32.3467 252.577 33.0562L253.766 31.4478ZM252.744 29.3725L247.288 2.00449L245.327 2.39551L250.783 29.7635L252.744 29.3725ZM246.308 3.2H252.468V1.2H246.308V3.2ZM251.482 2.3705L255.266 24.2385L257.237 23.8975L253.453 2.02949L251.482 2.3705ZM256.252 25.068H256.34V23.068H256.252V25.068ZM257.293 24.3686L263.673 4.12863L261.766 3.52736L255.386 23.7674L257.293 24.3686ZM262.72 4.828H264.92V2.828H262.72V4.828ZM264.92 4.828C265.47 4.828 265.89 4.96767 266.226 5.21068L267.397 3.58932C266.678 3.06966 265.836 2.828 264.92 2.828V4.828ZM266.247 5.22531C266.535 5.42255 266.867 5.86057 267.128 6.75016L269.047 6.18583C268.722 5.08076 268.203 4.14011 267.376 3.57469L266.247 5.22531ZM267.131 6.7604L272.499 24.3164L274.412 23.7316L269.044 6.1756L267.131 6.7604ZM273.456 25.024H273.544V23.024H273.456V25.024ZM274.529 24.1948L278.313 2.37084L276.342 2.02916L272.558 23.8532L274.529 24.1948ZM277.328 3.2H283.488V1.2H277.328V3.2ZM282.507 2.00297L277.007 29.371L278.968 29.765L284.468 2.39702L282.507 2.00297ZM277.007 29.3719C276.799 30.4133 276.435 31.0437 276.014 31.4072L277.321 32.9208C278.191 32.1696 278.707 31.0694 278.968 29.7641L277.007 29.3719ZM275.997 31.4225C275.615 31.7677 275.031 32 274.116 32V34C275.371 34 276.488 33.675 277.339 32.9055L275.997 31.4225ZM274.116 32H271.564V34H274.116V32ZM272.519 32.7035L265.963 11.5835L264.053 12.1765L270.609 33.2965L272.519 32.7035ZM265.008 10.88H264.92V12.88H265.008V10.88ZM263.966 11.5781L257.278 32.6981L259.185 33.3019L265.873 12.1819L263.966 11.5781ZM258.232 32H255.68V34H258.232V32ZM13.308 75.032H14.308V74.753L14.1635 74.5143L13.308 75.032ZM1.912 56.2V55.2H0.138017L1.05645 56.7177L1.912 56.2ZM8.512 56.2L9.37276 55.691L9.08241 55.2H8.512V56.2ZM16.344 69.444L15.4832 69.953L16.344 71.4086L17.2048 69.953L16.344 69.444ZM24.176 56.2V55.2H23.6056L23.3152 55.691L24.176 56.2ZM30.776 56.2L31.6315 56.7177L32.55 55.2H30.776V56.2ZM19.38 75.032L18.5245 74.5143L18.38 74.753V75.032H19.38ZM19.38 87V88H20.38V87H19.38ZM13.308 87H12.308V88H13.308V87ZM14.1635 74.5143L2.76755 55.6823L1.05645 56.7177L12.4525 75.5497L14.1635 74.5143ZM1.912 57.2H8.512V55.2H1.912V57.2ZM7.65124 56.709L15.4832 69.953L17.2048 68.935L9.37276 55.691L7.65124 56.709ZM17.2048 69.953L25.0368 56.709L23.3152 55.691L15.4832 68.935L17.2048 69.953ZM24.176 57.2H30.776V55.2H24.176V57.2ZM29.9205 55.6823L18.5245 74.5143L20.2355 75.5497L31.6315 56.7177L29.9205 55.6823ZM18.38 75.032V87H20.38V75.032H18.38ZM19.38 86H13.308V88H19.38V86ZM14.308 87L14.308 75.032H12.308L12.308 87H14.308ZM37.6871 85.9L37.1941 86.77L37.2026 86.7749L37.2113 86.7795L37.6871 85.9ZM33.5511 81.764L32.6715 82.2398L32.6762 82.2485L32.6811 82.257L33.5511 81.764ZM33.5511 61.48L32.6776 60.9931L32.6749 60.9981L33.5511 61.48ZM37.6871 57.344L38.169 58.2202L38.174 58.2175L37.6871 57.344ZM54.6271 57.344L54.1341 58.214L54.1426 58.2189L54.1513 58.2235L54.6271 57.344ZM58.7631 61.48L57.8835 61.9558L57.8882 61.9645L57.8931 61.973L58.7631 61.48ZM58.7631 81.764L57.8896 81.2771L57.8869 81.2821L58.7631 81.764ZM54.6271 85.9L55.109 86.7762L55.114 86.7735L54.6271 85.9ZM52.6031 80.136L51.8438 79.4851L51.8349 79.4958L52.6031 80.136ZM52.6031 63.064L51.8348 63.7042L51.8438 63.7148L52.6031 63.064ZM39.7111 63.064L38.9518 62.4131L38.9429 62.4238L39.7111 63.064ZM39.7111 80.136L38.9428 80.7762L38.9518 80.7868L39.7111 80.136ZM43.8471 86.352C41.6725 86.352 39.7868 85.899 38.1629 85.0205L37.2113 86.7795C39.166 87.837 41.387 88.352 43.8471 88.352V86.352ZM38.1801 85.03C36.5776 84.1219 35.3292 82.8735 34.4211 81.271L32.6811 82.257C33.7676 84.1745 35.2766 85.6835 37.1941 86.77L38.1801 85.03ZM34.4306 81.2882C33.5531 79.666 33.0991 77.7662 33.0991 75.56H31.0991C31.0991 78.0471 31.6131 80.2833 32.6715 82.2398L34.4306 81.2882ZM33.0991 75.56V67.64H31.0991V75.56H33.0991ZM33.0991 67.64C33.0991 65.4333 33.5532 63.5512 34.4273 61.9619L32.6749 60.9981C31.613 62.9288 31.0991 65.1533 31.0991 67.64H33.0991ZM34.4246 61.9669C35.3324 60.3381 36.5769 59.0959 38.169 58.2202L37.2052 56.4678C35.2773 57.5281 33.7644 59.0433 32.6776 60.9931L34.4246 61.9669ZM38.174 58.2175C39.7958 57.3135 41.6775 56.848 43.8471 56.848V54.848C41.3821 54.848 39.1571 55.3798 37.2002 56.4705L38.174 58.2175ZM43.8471 56.848H48.5111V54.848H43.8471V56.848ZM48.5111 56.848C50.6811 56.848 52.5452 57.3136 54.1341 58.214L55.1201 56.474C53.189 55.3797 50.9757 54.848 48.5111 54.848V56.848ZM54.1513 58.2235C55.7697 59.0991 57.008 60.3374 57.8835 61.9558L59.6426 61.0042C58.5822 59.0439 57.0632 57.5249 55.1029 56.4645L54.1513 58.2235ZM57.8931 61.973C58.7924 63.5601 59.2591 65.4382 59.2591 67.64H61.2591C61.2591 65.1485 60.7284 62.9199 59.6331 60.987L57.8931 61.973ZM59.2591 67.64V75.56H61.2591V67.64H59.2591ZM59.2591 75.56C59.2591 77.7614 58.7926 79.6572 57.8896 81.2771L59.6366 82.2509C60.7283 80.2922 61.2591 78.052 61.2591 75.56H59.2591ZM57.8869 81.2821C57.0112 82.8742 55.769 84.1187 54.1402 85.0265L55.114 86.7735C57.0638 85.6867 58.579 84.1738 59.6393 82.2459L57.8869 81.2821ZM54.1452 85.0238C52.5541 85.8989 50.6861 86.352 48.5111 86.352V88.352C50.9708 88.352 53.18 87.8371 55.109 86.7762L54.1452 85.0238ZM48.5111 86.352H43.8471V88.352H48.5111V86.352ZM48.5111 82.984C50.4885 82.984 52.1418 82.2516 53.3713 80.7762L51.8349 79.4958C51.011 80.4844 49.9363 80.984 48.5111 80.984V82.984ZM53.3624 80.7868C54.6071 79.3346 55.1871 77.4725 55.1871 75.296H53.1871C53.1871 77.1088 52.7111 78.4734 51.8438 79.4852L53.3624 80.7868ZM55.1871 75.296V67.904H53.1871V75.296H55.1871ZM55.1871 67.904C55.1871 65.7274 54.6071 63.8654 53.3624 62.4132L51.8438 63.7148C52.7111 64.7266 53.1871 66.0912 53.1871 67.904H55.1871ZM53.3713 62.4238C52.1418 60.9484 50.4885 60.216 48.5111 60.216V62.216C49.9363 62.216 51.011 62.7156 51.8349 63.7042L53.3713 62.4238ZM48.5111 60.216H43.8471V62.216H48.5111V60.216ZM43.8471 60.216C41.87 60.216 40.2081 60.9476 38.9518 62.4132L40.4703 63.7148C41.3261 62.7164 42.4215 62.216 43.8471 62.216V60.216ZM38.9429 62.4238C37.7327 63.876 37.1711 65.7342 37.1711 67.904H39.1711C39.1711 66.0845 39.6362 64.716 40.4793 63.7042L38.9429 62.4238ZM37.1711 67.904V75.296H39.1711V67.904H37.1711ZM37.1711 75.296C37.1711 77.4658 37.7327 79.324 38.9429 80.7762L40.4793 79.4958C39.6362 78.484 39.1711 77.1155 39.1711 75.296H37.1711ZM38.9518 80.7868C40.2081 82.2524 41.87 82.984 43.8471 82.984V80.984C42.4215 80.984 41.3261 80.4836 40.4703 79.4852L38.9518 80.7868ZM43.8471 82.984H48.5111V80.984H43.8471V82.984ZM70.7149 85.988L70.2188 86.8563L70.2306 86.8629L70.7149 85.988ZM66.8869 82.072L66.0085 82.5498L66.8869 82.072ZM65.5229 56.2V55.2H64.5229V56.2H65.5229ZM71.5949 56.2H72.5949V55.2H71.5949V56.2ZM72.9149 80.356L72.1382 80.9858L72.1432 80.9921L72.1484 80.9982L72.9149 80.356ZM84.6629 80.356L83.8964 79.7138L84.6629 80.356ZM86.0269 56.2V55.2H85.0269V56.2H86.0269ZM92.0989 56.2H93.0989V55.2H92.0989V56.2ZM90.7349 82.072L91.6134 82.5498L90.7349 82.072ZM86.8629 85.988L87.3408 86.8666L87.3525 86.86L86.8629 85.988ZM76.4349 86.352C74.407 86.352 72.672 85.9284 71.1992 85.1131L70.2306 86.8629C72.0432 87.8663 74.1215 88.352 76.4349 88.352V86.352ZM71.2111 85.1198C69.7307 84.2738 68.5866 83.1041 67.7654 81.5942L66.0085 82.5498C67.0059 84.3839 68.4139 85.8249 70.2188 86.8562L71.2111 85.1198ZM67.7654 81.5942C66.9475 80.0903 66.5229 78.3233 66.5229 76.264H64.5229C64.5229 78.6047 65.0077 80.7097 66.0085 82.5498L67.7654 81.5942ZM66.5229 76.264V56.2H64.5229V76.264H66.5229ZM65.5229 57.2H71.5949V55.2H65.5229V57.2ZM70.5949 56.2V76.088H72.5949V56.2H70.5949ZM70.5949 76.088C70.5949 78.0165 71.0796 79.6802 72.1382 80.9858L73.6917 79.7262C72.9903 78.8611 72.5949 77.6795 72.5949 76.088H70.5949ZM72.1484 80.9982C73.251 82.3143 74.7069 82.984 76.4349 82.984V80.984C75.2883 80.984 74.3975 80.5684 73.6815 79.7138L72.1484 80.9982ZM76.4349 82.984H81.0989V80.984H76.4349V82.984ZM81.0989 82.984C82.8493 82.984 84.3224 82.3195 85.4295 80.9982L83.8964 79.7138C83.1848 80.5631 82.2819 80.984 81.0989 80.984V82.984ZM85.4295 80.9982C86.5235 79.6924 87.0269 78.024 87.0269 76.088H85.0269C85.0269 77.672 84.621 78.8489 83.8964 79.7138L85.4295 80.9982ZM87.0269 76.088V56.2H85.0269V76.088H87.0269ZM86.0269 57.2H92.0989V55.2H86.0269V57.2ZM91.0989 56.2V76.264H93.0989V56.2H91.0989ZM91.0989 76.264C91.0989 78.3233 90.6744 80.0903 89.8565 81.5942L91.6134 82.5498C92.6141 80.7097 93.0989 78.6047 93.0989 76.264H91.0989ZM89.8565 81.5942C89.0378 83.0995 87.8825 84.2688 86.3734 85.116L87.3525 86.86C89.1873 85.8299 90.6134 84.3885 91.6134 82.5498L89.8565 81.5942ZM86.3852 85.1095C84.8793 85.9285 83.1264 86.352 81.0989 86.352V88.352C83.4128 88.352 85.5026 87.8662 87.3407 86.8665L86.3852 85.1095ZM81.0989 86.352H76.4349V88.352H81.0989V86.352ZM115.235 83.568L114.254 83.7635L114.255 83.7684L115.235 83.568ZM109.779 56.2V55.2H108.56L108.798 56.3955L109.779 56.2ZM115.939 56.2L116.924 56.0295L116.781 55.2H115.939V56.2ZM119.723 78.068L118.737 78.2385L118.881 79.068H119.723V78.068ZM119.811 78.068V79.068H120.544L120.764 78.3686L119.811 78.068ZM126.191 57.828V56.828H125.457L125.237 57.5274L126.191 57.828ZM130.283 58.4L129.697 59.2107L129.708 59.2181L129.718 59.2253L130.283 58.4ZM131.559 60.468L130.599 60.7502L130.602 60.7604L131.559 60.468ZM136.927 78.024L135.97 78.3164L136.187 79.024H136.927V78.024ZM137.015 78.024V79.024H137.856L138 78.1948L137.015 78.024ZM140.799 56.2V55.2H139.957L139.813 56.0292L140.799 56.2ZM146.959 56.2L147.939 56.397L148.18 55.2H146.959V56.2ZM141.459 83.568L140.478 83.371L140.478 83.3719L141.459 83.568ZM140.139 86.164L139.485 85.4072L139.476 85.4147L139.468 85.4225L140.139 86.164ZM135.035 87L134.08 87.2965L134.298 88H135.035V87ZM128.479 65.88L129.434 65.5835L129.215 64.88H128.479V65.88ZM128.391 65.88V64.88H127.658L127.437 65.5781L128.391 65.88ZM121.703 87V88H122.435L122.656 87.3019L121.703 87ZM119.151 86C118.326 86 117.709 85.7966 117.237 85.4478L116.048 87.0562C116.926 87.7047 117.981 88 119.151 88V86ZM117.237 85.4478C116.848 85.1599 116.456 84.5481 116.214 83.3676L114.255 83.7684C114.542 85.1692 115.088 86.3467 116.048 87.0562L117.237 85.4478ZM116.215 83.3725L110.759 56.0045L108.798 56.3955L114.254 83.7635L116.215 83.3725ZM109.779 57.2H115.939V55.2H109.779V57.2ZM114.953 56.3705L118.737 78.2385L120.708 77.8975L116.924 56.0295L114.953 56.3705ZM119.723 79.068H119.811V77.068H119.723V79.068ZM120.764 78.3686L127.144 58.1286L125.237 57.5274L118.857 77.7674L120.764 78.3686ZM126.191 58.828H128.391V56.828H126.191V58.828ZM128.391 58.828C128.941 58.828 129.361 58.9677 129.697 59.2107L130.868 57.5893C130.149 57.0697 129.307 56.828 128.391 56.828V58.828ZM129.718 59.2253C130.006 59.4226 130.338 59.8606 130.599 60.7502L132.518 60.1858C132.193 59.0808 131.674 58.1401 130.847 57.5747L129.718 59.2253ZM130.602 60.7604L135.97 78.3164L137.883 77.7316L132.515 60.1756L130.602 60.7604ZM136.927 79.024H137.015V77.024H136.927V79.024ZM138 78.1948L141.784 56.3708L139.813 56.0292L136.029 77.8532L138 78.1948ZM140.799 57.2H146.959V55.2H140.799V57.2ZM145.978 56.003L140.478 83.371L142.439 83.765L147.939 56.397L145.978 56.003ZM140.478 83.3719C140.27 84.4133 139.906 85.0437 139.485 85.4072L140.792 86.9208C141.662 86.1696 142.178 85.0694 142.439 83.7641L140.478 83.3719ZM139.468 85.4225C139.086 85.7677 138.502 86 137.587 86V88C138.842 88 139.959 87.675 140.81 86.9055L139.468 85.4225ZM137.587 86H135.035V88H137.587V86ZM135.99 86.7035L129.434 65.5835L127.524 66.1765L134.08 87.2965L135.99 86.7035ZM128.479 64.88H128.391V66.88H128.479V64.88ZM127.437 65.5781L120.749 86.6981L122.656 87.3019L129.344 66.1819L127.437 65.5781ZM121.703 86H119.151V88H121.703V86ZM167.117 79.828L168.054 79.4775L167.811 78.828H167.117V79.828ZM155.589 79.828V78.828H154.9L154.655 79.4725L155.589 79.828ZM152.861 87V88H153.551L153.796 87.3555L152.861 87ZM146.525 87L145.594 86.6355L145.06 88H146.525V87ZM158.581 56.2V55.2H157.899L157.65 55.8355L158.581 56.2ZM165.181 58.84L164.247 59.1979L164.249 59.2026L165.181 58.84ZM176.137 87V88H177.599L177.069 86.6374L176.137 87ZM169.801 87L168.865 87.3505L169.108 88H169.801V87ZM157.217 74.724L156.28 74.3745L155.777 75.724H157.217V74.724ZM165.489 74.724V75.724H166.924L166.427 74.3778L165.489 74.724ZM161.397 63.636L162.335 63.2898L162.094 62.636H161.397V63.636ZM161.353 63.636V62.636H160.659L160.416 63.2865L161.353 63.636ZM167.117 78.828H155.589V80.828H167.117V78.828ZM154.655 79.4725L151.927 86.6445L153.796 87.3555L156.524 80.1835L154.655 79.4725ZM152.861 86H146.525V88H152.861V86ZM147.456 87.3645L159.512 56.5645L157.65 55.8355L145.594 86.6355L147.456 87.3645ZM158.581 57.2H161.309V55.2H158.581V57.2ZM161.309 57.2C162.106 57.2 162.698 57.3823 163.144 57.6862C163.589 57.9895 163.968 58.4681 164.247 59.1979L166.115 58.4821C165.72 57.4519 165.116 56.6105 164.271 56.0338C163.426 55.4577 162.419 55.2 161.309 55.2V57.2ZM164.249 59.2026L175.205 87.3626L177.069 86.6374L166.113 58.4774L164.249 59.2026ZM176.137 86H169.801V88H176.137V86ZM170.738 86.6495L168.054 79.4775L166.181 80.1785L168.865 87.3505L170.738 86.6495ZM157.217 75.724H165.489V73.724H157.217V75.724ZM166.427 74.3778L162.335 63.2898L160.459 63.9822L164.551 75.0702L166.427 74.3778ZM161.397 62.636H161.353V64.636H161.397V62.636ZM160.416 63.2865L156.28 74.3745L158.154 75.0735L162.29 63.9855L160.416 63.2865ZM179.906 56.2V55.2H178.906V56.2H179.906ZM185.318 56.2L186.135 55.6233L185.837 55.2H185.318V56.2ZM200.102 77.144L199.285 77.7207L201.102 80.2947V77.144H200.102ZM200.102 56.2V55.2H199.102V56.2H200.102ZM206.042 56.2H207.042V55.2H206.042V56.2ZM206.042 87V88H207.042V87H206.042ZM200.63 87L199.813 87.5767L200.112 88H200.63V87ZM185.846 66.056L186.663 65.4793L184.846 62.9053V66.056H185.846ZM185.846 87V88H186.846V87H185.846ZM179.906 87H178.906V88H179.906V87ZM179.906 57.2H185.318V55.2H179.906V57.2ZM184.501 56.7767L199.285 77.7207L200.919 76.5673L186.135 55.6233L184.501 56.7767ZM201.102 77.144V56.2H199.102V77.144H201.102ZM200.102 57.2H206.042V55.2H200.102V57.2ZM205.042 56.2V87H207.042V56.2H205.042ZM206.042 86H200.63V88H206.042V86ZM201.447 86.4233L186.663 65.4793L185.029 66.6327L199.813 87.5767L201.447 86.4233ZM184.846 66.056V87H186.846V66.056H184.846ZM185.846 86H179.906V88H185.846V86ZM180.906 87V56.2H178.906V87H180.906ZM219.936 61.48H220.936V60.48H219.936V61.48ZM210.168 61.48H209.168V62.48H210.168V61.48ZM210.168 56.2V55.2H209.168V56.2H210.168ZM235.776 56.2H236.776V55.2H235.776V56.2ZM235.776 61.48V62.48H236.776V61.48H235.776ZM226.008 61.48V60.48H225.008V61.48H226.008ZM226.008 87V88H227.008V87H226.008ZM219.936 87H218.936V88H219.936V87ZM219.936 60.48H210.168V62.48H219.936V60.48ZM211.168 61.48V56.2H209.168V61.48H211.168ZM210.168 57.2H235.776V55.2H210.168V57.2ZM234.776 56.2V61.48H236.776V56.2H234.776ZM235.776 60.48H226.008V62.48H235.776V60.48ZM225.008 61.48V87H227.008V61.48H225.008ZM226.008 86H219.936V88H226.008V86ZM220.936 87V61.48H218.936V87H220.936ZM13.308 129.032H14.308V128.753L14.1635 128.514L13.308 129.032ZM1.912 110.2V109.2H0.138017L1.05645 110.718L1.912 110.2ZM8.512 110.2L9.37276 109.691L9.08241 109.2H8.512V110.2ZM16.344 123.444L15.4832 123.953L16.344 125.409L17.2048 123.953L16.344 123.444ZM24.176 110.2V109.2H23.6056L23.3152 109.691L24.176 110.2ZM30.776 110.2L31.6315 110.718L32.55 109.2H30.776V110.2ZM19.38 129.032L18.5245 128.514L18.38 128.753V129.032H19.38ZM19.38 141V142H20.38V141H19.38ZM13.308 141H12.308V142H13.308V141ZM14.1635 128.514L2.76755 109.682L1.05645 110.718L12.4525 129.55L14.1635 128.514ZM1.912 111.2H8.512V109.2H1.912V111.2ZM7.65124 110.709L15.4832 123.953L17.2048 122.935L9.37276 109.691L7.65124 110.709ZM17.2048 123.953L25.0368 110.709L23.3152 109.691L15.4832 122.935L17.2048 123.953ZM24.176 111.2H30.776V109.2H24.176V111.2ZM29.9205 109.682L18.5245 128.514L20.2355 129.55L31.6315 110.718L29.9205 109.682ZM18.38 129.032V141H20.38V129.032H18.38ZM19.38 140H13.308V142H19.38V140ZM14.308 141V129.032H12.308V141H14.308ZM37.6871 139.9L37.1941 140.77L37.2026 140.775L37.2113 140.78L37.6871 139.9ZM33.5511 135.764L32.6715 136.24L32.6762 136.248L32.6811 136.257L33.5511 135.764ZM33.5511 115.48L32.6776 114.993L32.6749 114.998L33.5511 115.48ZM37.6871 111.344L38.169 112.22L38.174 112.217L37.6871 111.344ZM54.6271 111.344L54.1341 112.214L54.1426 112.219L54.1513 112.224L54.6271 111.344ZM58.7631 115.48L57.8835 115.956L57.8882 115.964L57.8931 115.973L58.7631 115.48ZM58.7631 135.764L57.8896 135.277L57.8869 135.282L58.7631 135.764ZM54.6271 139.9L55.109 140.776L55.114 140.773L54.6271 139.9ZM52.6031 134.136L51.8438 133.485L51.8349 133.496L52.6031 134.136ZM52.6031 117.064L51.8348 117.704L51.8438 117.715L52.6031 117.064ZM39.7111 117.064L38.9518 116.413L38.9429 116.424L39.7111 117.064ZM39.7111 134.136L38.9428 134.776L38.9518 134.787L39.7111 134.136ZM43.8471 140.352C41.6725 140.352 39.7868 139.899 38.1629 139.02L37.2113 140.78C39.166 141.837 41.387 142.352 43.8471 142.352V140.352ZM38.1801 139.03C36.5776 138.122 35.3292 136.874 34.4211 135.271L32.6811 136.257C33.7676 138.174 35.2766 139.683 37.1941 140.77L38.1801 139.03ZM34.4306 135.288C33.5531 133.666 33.0991 131.766 33.0991 129.56H31.0991C31.0991 132.047 31.6131 134.283 32.6715 136.24L34.4306 135.288ZM33.0991 129.56V121.64H31.0991V129.56H33.0991ZM33.0991 121.64C33.0991 119.433 33.5532 117.551 34.4273 115.962L32.6749 114.998C31.613 116.929 31.0991 119.153 31.0991 121.64H33.0991ZM34.4246 115.967C35.3324 114.338 36.5769 113.096 38.169 112.22L37.2052 110.468C35.2773 111.528 33.7644 113.043 32.6776 114.993L34.4246 115.967ZM38.174 112.217C39.7958 111.314 41.6775 110.848 43.8471 110.848V108.848C41.3821 108.848 39.1571 109.38 37.2002 110.471L38.174 112.217ZM43.8471 110.848H48.5111V108.848H43.8471V110.848ZM48.5111 110.848C50.6811 110.848 52.5452 111.314 54.1341 112.214L55.1201 110.474C53.189 109.38 50.9757 108.848 48.5111 108.848V110.848ZM54.1513 112.224C55.7697 113.099 57.008 114.337 57.8835 115.956L59.6426 115.004C58.5822 113.044 57.0632 111.525 55.1029 110.464L54.1513 112.224ZM57.8931 115.973C58.7924 117.56 59.2591 119.438 59.2591 121.64H61.2591C61.2591 119.148 60.7284 116.92 59.6331 114.987L57.8931 115.973ZM59.2591 121.64V129.56H61.2591V121.64H59.2591ZM59.2591 129.56C59.2591 131.761 58.7926 133.657 57.8896 135.277L59.6366 136.251C60.7283 134.292 61.2591 132.052 61.2591 129.56H59.2591ZM57.8869 135.282C57.0112 136.874 55.769 138.119 54.1402 139.027L55.114 140.773C57.0638 139.687 58.579 138.174 59.6393 136.246L57.8869 135.282ZM54.1452 139.024C52.5541 139.899 50.6861 140.352 48.5111 140.352V142.352C50.9708 142.352 53.18 141.837 55.109 140.776L54.1452 139.024ZM48.5111 140.352H43.8471V142.352H48.5111V140.352ZM48.5111 136.984C50.4885 136.984 52.1418 136.252 53.3713 134.776L51.8349 133.496C51.011 134.484 49.9363 134.984 48.5111 134.984V136.984ZM53.3624 134.787C54.6071 133.335 55.1871 131.473 55.1871 129.296H53.1871C53.1871 131.109 52.7111 132.473 51.8438 133.485L53.3624 134.787ZM55.1871 129.296V121.904H53.1871V129.296H55.1871ZM55.1871 121.904C55.1871 119.727 54.6071 117.865 53.3624 116.413L51.8438 117.715C52.7111 118.727 53.1871 120.091 53.1871 121.904H55.1871ZM53.3713 116.424C52.1418 114.948 50.4885 114.216 48.5111 114.216V116.216C49.9363 116.216 51.011 116.716 51.8349 117.704L53.3713 116.424ZM48.5111 114.216H43.8471V116.216H48.5111V114.216ZM43.8471 114.216C41.87 114.216 40.2081 114.948 38.9518 116.413L40.4703 117.715C41.3261 116.716 42.4215 116.216 43.8471 116.216V114.216ZM38.9429 116.424C37.7327 117.876 37.1711 119.734 37.1711 121.904H39.1711C39.1711 120.085 39.6362 118.716 40.4793 117.704L38.9429 116.424ZM37.1711 121.904V129.296H39.1711V121.904H37.1711ZM37.1711 129.296C37.1711 131.466 37.7327 133.324 38.9429 134.776L40.4793 133.496C39.6362 132.484 39.1711 131.115 39.1711 129.296H37.1711ZM38.9518 134.787C40.2081 136.252 41.87 136.984 43.8471 136.984V134.984C42.4215 134.984 41.3261 134.484 40.4703 133.485L38.9518 134.787ZM43.8471 136.984H48.5111V134.984H43.8471V136.984ZM70.7149 139.988L70.2188 140.856L70.2306 140.863L70.7149 139.988ZM66.8869 136.072L66.0085 136.55L66.8869 136.072ZM65.5229 110.2V109.2H64.5229V110.2H65.5229ZM71.5949 110.2H72.5949V109.2H71.5949V110.2ZM72.9149 134.356L72.1382 134.986L72.1432 134.992L72.1484 134.998L72.9149 134.356ZM84.6629 134.356L83.8964 133.714L84.6629 134.356ZM86.0269 110.2V109.2H85.0269V110.2H86.0269ZM92.0989 110.2H93.0989V109.2H92.0989V110.2ZM90.7349 136.072L91.6134 136.55L90.7349 136.072ZM86.8629 139.988L87.3408 140.867L87.3525 140.86L86.8629 139.988ZM76.4349 140.352C74.407 140.352 72.672 139.928 71.1992 139.113L70.2306 140.863C72.0432 141.866 74.1215 142.352 76.4349 142.352V140.352ZM71.2111 139.12C69.7307 138.274 68.5866 137.104 67.7654 135.594L66.0085 136.55C67.0059 138.384 68.4139 139.825 70.2188 140.856L71.2111 139.12ZM67.7654 135.594C66.9475 134.09 66.5229 132.323 66.5229 130.264H64.5229C64.5229 132.605 65.0077 134.71 66.0085 136.55L67.7654 135.594ZM66.5229 130.264V110.2H64.5229V130.264H66.5229ZM65.5229 111.2H71.5949V109.2H65.5229V111.2ZM70.5949 110.2V130.088H72.5949V110.2H70.5949ZM70.5949 130.088C70.5949 132.016 71.0796 133.68 72.1382 134.986L73.6917 133.726C72.9903 132.861 72.5949 131.68 72.5949 130.088H70.5949ZM72.1484 134.998C73.251 136.314 74.7069 136.984 76.4349 136.984V134.984C75.2883 134.984 74.3975 134.568 73.6815 133.714L72.1484 134.998ZM76.4349 136.984H81.0989V134.984H76.4349V136.984ZM81.0989 136.984C82.8493 136.984 84.3224 136.32 85.4295 134.998L83.8964 133.714C83.1848 134.563 82.2819 134.984 81.0989 134.984V136.984ZM85.4295 134.998C86.5235 133.692 87.0269 132.024 87.0269 130.088H85.0269C85.0269 131.672 84.621 132.849 83.8964 133.714L85.4295 134.998ZM87.0269 130.088V110.2H85.0269V130.088H87.0269ZM86.0269 111.2H92.0989V109.2H86.0269V111.2ZM91.0989 110.2V130.264H93.0989V110.2H91.0989ZM91.0989 130.264C91.0989 132.323 90.6744 134.09 89.8565 135.594L91.6134 136.55C92.6141 134.71 93.0989 132.605 93.0989 130.264H91.0989ZM89.8565 135.594C89.0378 137.1 87.8825 138.269 86.3734 139.116L87.3525 140.86C89.1873 139.83 90.6134 138.388 91.6134 136.55L89.8565 135.594ZM86.3852 139.11C84.8793 139.928 83.1264 140.352 81.0989 140.352V142.352C83.4128 142.352 85.5026 141.866 87.3407 140.866L86.3852 139.11ZM81.0989 140.352H76.4349V142.352H81.0989V140.352ZM98.2469 110.2V109.2H97.2469V110.2H98.2469ZM121.039 112.356L120.374 113.103L120.38 113.109L121.039 112.356ZM122.183 125.116L121.39 124.506L121.388 124.509L122.183 125.116ZM118.443 127.668L118.107 126.726L117.443 126.963V127.668H118.443ZM118.443 127.756H117.443V128.296L117.894 128.592L118.443 127.756ZM120.555 129.868L119.695 130.378L119.701 130.389L119.709 130.401L120.555 129.868ZM122.007 133.168L122.961 132.868L122.958 132.86L122.956 132.852L122.007 133.168ZM124.471 141V142H125.834L125.425 140.7L124.471 141ZM118.179 141L117.226 141.304L117.448 142H118.179V141ZM115.847 133.696L114.89 133.985L114.892 133.993L114.894 134L115.847 133.696ZM114.263 130.88L113.589 131.618L114.263 130.88ZM104.319 129.956V128.956H103.319V129.956H104.319ZM104.319 141V142H105.319V141H104.319ZM98.2469 141H97.2469V142H98.2469V141ZM116.375 123.752L117.051 124.489L117.059 124.482L117.067 124.474L116.375 123.752ZM116.639 116.272L115.932 116.979L115.942 116.989L115.952 116.999L116.639 116.272ZM104.319 115.48V114.48H103.319V115.48H104.319ZM104.319 124.72H103.319V125.72H104.319V124.72ZM98.2469 111.2H114.615V109.2H98.2469V111.2ZM114.615 111.2C117.099 111.2 118.984 111.865 120.374 113.103L121.704 111.609C119.867 109.973 117.469 109.2 114.615 109.2V111.2ZM120.38 113.109C121.788 114.34 122.503 115.949 122.503 118.032H124.503C124.503 115.421 123.575 113.246 121.697 111.603L120.38 113.109ZM122.503 118.032V121.112H124.503V118.032H122.503ZM122.503 121.112C122.503 122.43 122.128 123.547 121.39 124.506L122.976 125.726C123.998 124.397 124.503 122.844 124.503 121.112H122.503ZM121.388 124.509C120.68 125.437 119.612 126.189 118.107 126.726L118.779 128.61C120.56 127.974 121.984 127.025 122.978 125.723L121.388 124.509ZM117.443 127.668V127.756H119.443V127.668H117.443ZM117.894 128.592C118.733 129.143 119.318 129.742 119.695 130.378L121.415 129.358C120.853 128.41 120.03 127.602 118.992 126.92L117.894 128.592ZM119.709 130.401C120.147 131.097 120.601 132.114 121.058 133.484L122.956 132.852C122.474 131.406 121.96 130.223 121.401 129.335L119.709 130.401ZM121.053 133.468L123.517 141.3L125.425 140.7L122.961 132.868L121.053 133.468ZM124.471 140H118.179V142H124.471V140ZM119.132 140.696L116.8 133.392L114.894 134L117.226 141.304L119.132 140.696ZM116.804 133.407C116.392 132.045 115.791 130.921 114.937 130.142L113.589 131.618C114.084 132.071 114.539 132.825 114.89 133.985L116.804 133.407ZM114.937 130.142C114.061 129.341 112.977 128.956 111.755 128.956V130.956C112.528 130.956 113.116 131.187 113.589 131.618L114.937 130.142ZM111.755 128.956H104.319V130.956H111.755V128.956ZM103.319 129.956V141H105.319V129.956H103.319ZM104.319 140H98.2469V142H104.319V140ZM99.2469 141V110.2H97.2469V141H99.2469ZM113.471 125.72C114.878 125.72 116.114 125.348 117.051 124.489L115.699 123.015C115.228 123.447 114.528 123.72 113.471 123.72V125.72ZM117.067 124.474C117.985 123.594 118.431 122.459 118.431 121.156H116.431C116.431 121.965 116.173 122.561 115.683 123.03L117.067 124.474ZM118.431 121.156V118.296H116.431V121.156H118.431ZM118.431 118.296C118.431 117.221 118.088 116.265 117.326 115.545L115.952 116.999C116.246 117.276 116.431 117.669 116.431 118.296H118.431ZM117.346 115.565C116.597 114.816 115.621 114.48 114.527 114.48V116.48C115.193 116.48 115.625 116.672 115.932 116.979L117.346 115.565ZM114.527 114.48H104.319V116.48H114.527V114.48ZM103.319 115.48V124.72H105.319V115.48H103.319ZM104.319 125.72H113.471V123.72H104.319V125.72ZM150.071 115.48H151.071V114.48H150.071V115.48ZM140.303 115.48H139.303V116.48H140.303V115.48ZM140.303 110.2V109.2H139.303V110.2H140.303ZM165.911 110.2H166.911V109.2H165.911V110.2ZM165.911 115.48V116.48H166.911V115.48H165.911ZM156.143 115.48V114.48H155.143V115.48H156.143ZM156.143 141V142H157.143V141H156.143ZM150.071 141H149.071V142H150.071V141ZM150.071 114.48H140.303V116.48H150.071V114.48ZM141.303 115.48V110.2H139.303V115.48H141.303ZM140.303 111.2H165.911V109.2H140.303V111.2ZM164.911 110.2V115.48H166.911V110.2H164.911ZM165.911 114.48H156.143V116.48H165.911V114.48ZM155.143 115.48V141H157.143V115.48H155.143ZM156.143 140H150.071V142H156.143V140ZM151.071 141V115.48H149.071V141H151.071ZM173.357 139.9L172.864 140.77L172.872 140.775L172.881 140.78L173.357 139.9ZM169.221 135.764L168.341 136.24L168.346 136.248L168.351 136.257L169.221 135.764ZM169.221 115.48L168.347 114.993L168.344 114.998L169.221 115.48ZM173.357 111.344L173.839 112.22L173.843 112.217L173.357 111.344ZM190.297 111.344L189.804 112.214L189.812 112.219L189.821 112.224L190.297 111.344ZM194.433 115.48L193.553 115.956L193.558 115.964L193.563 115.973L194.433 115.48ZM194.433 135.764L193.559 135.277L193.556 135.282L194.433 135.764ZM190.297 139.9L190.779 140.776L190.783 140.773L190.297 139.9ZM188.273 134.136L187.513 133.485L187.504 133.496L188.273 134.136ZM188.273 117.064L187.504 117.704L187.513 117.715L188.273 117.064ZM175.381 117.064L174.621 116.413L174.612 116.424L175.381 117.064ZM175.381 134.136L174.612 134.776L174.621 134.787L175.381 134.136ZM179.517 140.352C177.342 140.352 175.456 139.899 173.832 139.02L172.881 140.78C174.836 141.837 177.057 142.352 179.517 142.352V140.352ZM173.85 139.03C172.247 138.122 170.999 136.874 170.091 135.271L168.351 136.257C169.437 138.174 170.946 139.683 172.864 140.77L173.85 139.03ZM170.1 135.288C169.223 133.666 168.769 131.766 168.769 129.56H166.769C166.769 132.047 167.283 134.283 168.341 136.24L170.1 135.288ZM168.769 129.56V121.64H166.769V129.56H168.769ZM168.769 121.64C168.769 119.433 169.223 117.551 170.097 115.962L168.344 114.998C167.282 116.929 166.769 119.153 166.769 121.64H168.769ZM170.094 115.967C171.002 114.338 172.246 113.096 173.839 112.22L172.875 110.468C170.947 111.528 169.434 113.043 168.347 114.993L170.094 115.967ZM173.843 112.217C175.465 111.314 177.347 110.848 179.517 110.848V108.848C177.052 108.848 174.827 109.38 172.87 110.471L173.843 112.217ZM179.517 110.848H184.181V108.848H179.517V110.848ZM184.181 110.848C186.351 110.848 188.215 111.314 189.804 112.214L190.79 110.474C188.859 109.38 186.645 108.848 184.181 108.848V110.848ZM189.821 112.224C191.439 113.099 192.678 114.337 193.553 115.956L195.312 115.004C194.252 113.044 192.733 111.525 190.772 110.464L189.821 112.224ZM193.563 115.973C194.462 117.56 194.929 119.438 194.929 121.64H196.929C196.929 119.148 196.398 116.92 195.303 114.987L193.563 115.973ZM194.929 121.64V129.56H196.929V121.64H194.929ZM194.929 129.56C194.929 131.761 194.462 133.657 193.559 135.277L195.306 136.251C196.398 134.292 196.929 132.052 196.929 129.56H194.929ZM193.556 135.282C192.681 136.874 191.439 138.119 189.81 139.027L190.783 140.773C192.733 139.687 194.249 138.174 195.309 136.246L193.556 135.282ZM189.815 139.024C188.224 139.899 186.356 140.352 184.181 140.352V142.352C186.64 142.352 188.85 141.837 190.779 140.776L189.815 139.024ZM184.181 140.352H179.517V142.352H184.181V140.352ZM184.181 136.984C186.158 136.984 187.811 136.252 189.041 134.776L187.504 133.496C186.681 134.484 185.606 134.984 184.181 134.984V136.984ZM189.032 134.787C190.277 133.335 190.857 131.473 190.857 129.296H188.857C188.857 131.109 188.381 132.473 187.513 133.485L189.032 134.787ZM190.857 129.296V121.904H188.857V129.296H190.857ZM190.857 121.904C190.857 119.727 190.277 117.865 189.032 116.413L187.513 117.715C188.381 118.727 188.857 120.091 188.857 121.904H190.857ZM189.041 116.424C187.811 114.948 186.158 114.216 184.181 114.216V116.216C185.606 116.216 186.681 116.716 187.504 117.704L189.041 116.424ZM184.181 114.216H179.517V116.216H184.181V114.216ZM179.517 114.216C177.54 114.216 175.878 114.948 174.621 116.413L176.14 117.715C176.996 116.716 178.091 116.216 179.517 116.216V114.216ZM174.612 116.424C173.402 117.876 172.841 119.734 172.841 121.904H174.841C174.841 120.085 175.306 118.716 176.149 117.704L174.612 116.424ZM172.841 121.904V129.296H174.841V121.904H172.841ZM172.841 129.296C172.841 131.466 173.402 133.324 174.612 134.776L176.149 133.496C175.306 132.484 174.841 131.115 174.841 129.296H172.841ZM174.621 134.787C175.878 136.252 177.54 136.984 179.517 136.984V134.984C178.091 134.984 176.996 134.484 176.14 133.485L174.621 134.787ZM179.517 136.984H184.181V134.984H179.517V136.984ZM220.552 141L219.766 141.618L220.066 142H220.552V141ZM210.388 128.064L211.175 127.446L210.453 126.527L209.656 127.383L210.388 128.064ZM207.44 131.232L206.708 130.551L206.44 130.839V131.232H207.44ZM207.44 141V142H208.44V141H207.44ZM201.368 141H200.368V142H201.368V141ZM201.368 110.2V109.2H200.368V110.2H201.368ZM207.44 110.2H208.44V109.2H207.44V110.2ZM207.44 123.488H206.44V126.051L208.176 124.165L207.44 123.488ZM219.672 110.2V109.2H219.234L218.937 109.523L219.672 110.2ZM227.152 110.2L227.882 110.884L229.462 109.2H227.152V110.2ZM214.48 123.708L213.751 123.024L213.166 123.648L213.691 124.322L214.48 123.708ZM227.944 141V142H229.99L228.734 140.386L227.944 141ZM221.339 140.382L211.175 127.446L209.602 128.682L219.766 141.618L221.339 140.382ZM209.656 127.383L206.708 130.551L208.173 131.913L211.121 128.745L209.656 127.383ZM206.44 131.232V141H208.44V131.232H206.44ZM207.44 140H201.368V142H207.44V140ZM202.368 141V110.2H200.368V141H202.368ZM201.368 111.2H207.44V109.2H201.368V111.2ZM206.44 110.2V123.488H208.44V110.2H206.44ZM208.176 124.165L220.408 110.877L218.937 109.523L206.705 122.811L208.176 124.165ZM219.672 111.2H227.152V109.2H219.672V111.2ZM226.423 109.516L213.751 123.024L215.21 124.392L227.882 110.884L226.423 109.516ZM213.691 124.322L227.155 141.614L228.734 140.386L215.27 123.094L213.691 124.322ZM227.944 140H220.552V142H227.944V140ZM232.569 139.856L231.876 140.576L232.569 139.856ZM231.381 110.2V109.2H230.381V110.2H231.381ZM254.877 110.2H255.877V109.2H254.877V110.2ZM254.877 115.48V116.48H255.877V115.48H254.877ZM237.453 115.48V114.48H236.453V115.48H237.453ZM237.453 122.608H236.453V123.608H237.453V122.608ZM253.557 122.608H254.557V121.608H253.557V122.608ZM253.557 127.888V128.888H254.557V127.888H253.557ZM237.453 127.888V126.888H236.453V127.888H237.453ZM237.453 135.72H236.453V136.72H237.453V135.72ZM254.877 135.72H255.877V134.72H254.877V135.72ZM254.877 141V142H255.877V141H254.877ZM235.649 140C234.606 140 233.841 139.692 233.263 139.136L231.876 140.576C232.882 141.545 234.17 142 235.649 142V140ZM233.263 139.136C232.691 138.585 232.381 137.86 232.381 136.864H230.381C230.381 138.332 230.863 139.602 231.876 140.576L233.263 139.136ZM232.381 136.864V110.2H230.381V136.864H232.381ZM231.381 111.2H254.877V109.2H231.381V111.2ZM253.877 110.2V115.48H255.877V110.2H253.877ZM254.877 114.48H237.453V116.48H254.877V114.48ZM236.453 115.48V122.608H238.453V115.48H236.453ZM237.453 123.608H253.557V121.608H237.453V123.608ZM252.557 122.608V127.888H254.557V122.608H252.557ZM253.557 126.888H237.453V128.888H253.557V126.888ZM236.453 127.888V135.72H238.453V127.888H236.453ZM237.453 136.72H254.877V134.72H237.453V136.72ZM253.877 135.72V141H255.877V135.72H253.877ZM254.877 140H235.649V142H254.877V140ZM259.89 110.2V109.2H258.89V110.2H259.89ZM265.302 110.2L266.119 109.623L265.82 109.2H265.302V110.2ZM280.086 131.144L279.269 131.721L281.086 134.295V131.144H280.086ZM280.086 110.2V109.2H279.086V110.2H280.086ZM286.026 110.2H287.026V109.2H286.026V110.2ZM286.026 141V142H287.026V141H286.026ZM280.614 141L279.797 141.577L280.096 142H280.614V141ZM265.83 120.056L266.647 119.479L264.83 116.905V120.056H265.83ZM265.83 141V142H266.83V141H265.83ZM259.89 141H258.89V142H259.89V141ZM259.89 111.2H265.302V109.2H259.89V111.2ZM264.485 110.777L279.269 131.721L280.903 130.567L266.119 109.623L264.485 110.777ZM281.086 131.144V110.2H279.086V131.144H281.086ZM280.086 111.2H286.026V109.2H280.086V111.2ZM285.026 110.2V141H287.026V110.2H285.026ZM286.026 140H280.614V142H286.026V140ZM281.431 140.423L266.647 119.479L265.013 120.633L279.797 141.577L281.431 140.423ZM264.83 120.056V141H266.83V120.056H264.83ZM265.83 140H259.89V142H265.83V140ZM260.89 141V110.2H258.89V141H260.89ZM5.916 193.856L5.22236 194.576L5.916 193.856ZM4.728 164.2V163.2H3.728V164.2H4.728ZM28.224 164.2H29.224V163.2H28.224V164.2ZM28.224 169.48V170.48H29.224V169.48H28.224ZM10.8 169.48V168.48H9.8V169.48H10.8ZM10.8 176.608H9.8V177.608H10.8V176.608ZM26.904 176.608H27.904V175.608H26.904V176.608ZM26.904 181.888V182.888H27.904V181.888H26.904ZM10.8 181.888V180.888H9.8V181.888H10.8ZM10.8 189.72H9.8V190.72H10.8V189.72ZM28.224 189.72H29.224V188.72H28.224V189.72ZM28.224 195V196H29.224V195H28.224ZM8.996 194C7.95227 194 7.18768 193.692 6.60964 193.136L5.22236 194.576C6.22832 195.545 7.51706 196 8.996 196V194ZM6.60964 193.136C6.0379 192.585 5.728 191.86 5.728 190.864H3.728C3.728 192.332 4.2101 193.602 5.22236 194.576L6.60964 193.136ZM5.728 190.864V164.2H3.728L3.728 190.864H5.728ZM4.728 165.2H28.224V163.2H4.728V165.2ZM27.224 164.2V169.48H29.224V164.2H27.224ZM28.224 168.48H10.8V170.48H28.224V168.48ZM9.8 169.48V176.608H11.8V169.48H9.8ZM10.8 177.608H26.904V175.608H10.8V177.608ZM25.904 176.608L25.904 181.888H27.904L27.904 176.608H25.904ZM26.904 180.888H10.8V182.888H26.904L26.904 180.888ZM9.8 181.888V189.72H11.8V181.888H9.8ZM10.8 190.72H28.224V188.72H10.8V190.72ZM27.224 189.72V195H29.224V189.72H27.224ZM28.224 194H8.996V196H28.224V194ZM37.4671 193.9L36.9726 194.769L36.9789 194.773L37.4671 193.9ZM33.5071 189.808L32.6215 190.273L32.6247 190.279L33.5071 189.808ZM33.5071 169.436L32.6275 168.96L32.6247 168.965L33.5071 169.436ZM37.5551 165.3L37.0732 164.424L37.0669 164.427L37.5551 165.3ZM54.0991 165.256L54.5886 164.384L54.0991 165.256ZM57.9711 169.216L57.0892 169.687L57.094 169.697L57.0991 169.706L57.9711 169.216ZM59.3791 175.068V176.068H60.3791V175.068H59.3791ZM53.3951 175.068H52.3951V176.068H53.3951V175.068ZM51.9871 170.844L51.2307 171.498L51.2397 171.508L51.9871 170.844ZM39.6671 171.064L40.4369 171.702L40.4443 171.693L39.6671 171.064ZM39.6231 188.18L38.8367 188.798L38.8441 188.807L39.6231 188.18ZM51.9871 188.18L51.2173 187.542L51.2127 187.547L51.2081 187.553L51.9871 188.18ZM53.4831 183.428V182.428H52.4831V183.428H53.4831ZM59.4671 183.428H60.4671V182.428H59.4671V183.428ZM58.0591 189.72L58.9447 190.185L58.9477 190.179L58.0591 189.72ZM54.0991 193.9L54.5937 194.769L54.6048 194.763L54.0991 193.9ZM43.4511 194.352C41.3392 194.352 39.517 193.901 37.9552 193.027L36.9789 194.773C38.8785 195.835 41.0456 196.352 43.4511 196.352V194.352ZM37.9616 193.031C36.4279 192.158 35.2409 190.934 34.3894 189.337L32.6247 190.279C33.6506 192.202 35.1036 193.706 36.9726 194.769L37.9616 193.031ZM34.3926 189.343C33.5395 187.717 33.0991 185.827 33.0991 183.648H31.0991C31.0991 186.103 31.5973 188.32 32.6215 190.273L34.3926 189.343ZM33.0991 183.648L33.0991 175.552H31.0991L31.0991 183.648H33.0991ZM33.0991 175.552C33.0991 173.372 33.5397 171.5 34.3894 169.907L32.6247 168.965C31.5972 170.892 31.0991 173.097 31.0991 175.552H33.0991ZM34.3866 169.912C35.2669 168.285 36.4825 167.046 38.0432 166.173L37.0669 164.427C35.1664 165.49 33.6833 167.009 32.6276 168.96L34.3866 169.912ZM38.037 166.176C39.6299 165.3 41.4839 164.848 43.6271 164.848V162.848C41.1943 162.848 39.0003 163.364 37.0732 164.424L38.037 166.176ZM43.6271 164.848H48.2911V162.848H43.6271V164.848ZM48.2911 164.848C50.3452 164.848 52.1079 165.285 53.6096 166.128L54.5886 164.384C52.7463 163.35 50.637 162.848 48.2911 162.848V164.848ZM53.6096 166.128C55.1142 166.973 56.2692 168.153 57.0892 169.687L58.853 168.745C57.8544 166.876 56.428 165.417 54.5886 164.384L53.6096 166.128ZM57.0991 169.706C57.9411 171.205 58.3791 172.982 58.3791 175.068H60.3791C60.3791 172.695 59.8784 170.571 58.8431 168.726L57.0991 169.706ZM59.3791 174.068H53.3951V176.068H59.3791V174.068ZM54.3951 175.068C54.3951 173.126 53.8731 171.461 52.7345 170.18L51.2397 171.508C51.9784 172.339 52.3951 173.49 52.3951 175.068H54.3951ZM52.7435 170.19C51.6017 168.87 50.086 168.216 48.2911 168.216V170.216C49.5468 170.216 50.4952 170.648 51.2307 171.498L52.7435 170.19ZM48.2911 168.216H43.6271V170.216H48.2911V168.216ZM43.6271 168.216C41.6954 168.216 40.0849 168.959 38.8899 170.435L40.4443 171.693C41.244 170.705 42.2735 170.216 43.6271 170.216V168.216ZM38.8973 170.426C37.7161 171.85 37.1711 173.679 37.1711 175.816H39.1711C39.1711 174.022 39.6234 172.683 40.4369 171.702L38.8973 170.426ZM37.1711 175.816V183.384H39.1711V175.816H37.1711ZM37.1711 183.384C37.1711 185.515 37.6983 187.349 38.8368 188.798L40.4094 187.562C39.6119 186.547 39.1711 185.183 39.1711 183.384H37.1711ZM38.8441 188.807C40.0076 190.253 41.5735 190.984 43.4511 190.984V188.984C42.1607 188.984 41.1746 188.513 40.4021 187.553L38.8441 188.807ZM43.4511 190.984H48.2031V188.984H43.4511V190.984ZM48.2031 190.984C50.058 190.984 51.6067 190.247 52.7661 188.807L51.2081 187.553C50.4315 188.518 49.4575 188.984 48.2031 188.984V190.984ZM52.7569 188.818C53.9381 187.394 54.4831 185.565 54.4831 183.428H52.4831C52.4831 185.222 52.0307 186.561 51.2173 187.542L52.7569 188.818ZM53.4831 184.428H59.4671V182.428H53.4831V184.428ZM58.4671 183.428C58.4671 185.67 58.025 187.606 57.1705 189.261L58.9477 190.179C59.9705 188.197 60.4671 185.938 60.4671 183.428H58.4671ZM57.1735 189.255C56.3195 190.883 55.1292 192.137 53.5934 193.037L54.6048 194.763C56.4716 193.668 57.9213 192.135 58.9446 190.185L57.1735 189.255ZM53.6046 193.031C52.0739 193.902 50.2835 194.352 48.2031 194.352V196.352C50.5814 196.352 52.7216 195.834 54.5936 194.769L53.6046 193.031ZM48.2031 194.352H43.4511V196.352H48.2031V194.352ZM68.8601 193.9L68.3671 194.77L68.3756 194.775L68.3842 194.78L68.8601 193.9ZM64.7241 189.764L63.8445 190.24L63.8492 190.248L63.854 190.257L64.7241 189.764ZM64.7241 169.48L63.8506 168.993L63.8478 168.998L64.7241 169.48ZM68.8601 165.344L69.342 166.22L69.3469 166.217L68.8601 165.344ZM85.8001 165.344L85.3071 166.214L85.3156 166.219L85.3242 166.224L85.8001 165.344ZM89.9361 169.48L89.0565 169.956L89.0612 169.964L89.066 169.973L89.9361 169.48ZM89.9361 189.764L89.0626 189.277L89.0598 189.282L89.9361 189.764ZM85.8001 193.9L86.282 194.776L86.2869 194.773L85.8001 193.9ZM83.7761 188.136L83.0167 187.485L83.0078 187.496L83.7761 188.136ZM83.7761 171.064L83.0078 171.704L83.0168 171.715L83.7761 171.064ZM70.8841 171.064L70.1247 170.413L70.1158 170.424L70.8841 171.064ZM70.8841 188.136L70.1158 188.776L70.1248 188.787L70.8841 188.136ZM75.0201 194.352C72.8455 194.352 70.9598 193.899 69.3359 193.02L68.3842 194.78C70.339 195.837 72.56 196.352 75.0201 196.352V194.352ZM69.3531 193.03C67.7505 192.122 66.5022 190.874 65.5941 189.271L63.854 190.257C64.9406 192.174 66.4496 193.683 68.3671 194.77L69.3531 193.03ZM65.6036 189.288C64.726 187.666 64.2721 185.766 64.2721 183.56H62.2721C62.2721 186.047 62.7861 188.283 63.8445 190.24L65.6036 189.288ZM64.2721 183.56V175.64H62.2721V183.56H64.2721ZM64.2721 175.64C64.2721 173.433 64.7262 171.551 65.6003 169.962L63.8478 168.998C62.7859 170.929 62.2721 173.153 62.2721 175.64H64.2721ZM65.5975 169.967C66.5054 168.338 67.7499 167.096 69.342 166.22L68.3781 164.468C66.4502 165.528 64.9374 167.043 63.8506 168.993L65.5975 169.967ZM69.3469 166.217C70.9687 165.314 72.8504 164.848 75.0201 164.848V162.848C72.555 162.848 70.33 163.38 68.3732 164.471L69.3469 166.217ZM75.0201 164.848H79.6841V162.848H75.0201V164.848ZM79.6841 164.848C81.8541 164.848 83.7181 165.314 85.3071 166.214L86.2931 164.474C84.362 163.38 82.1487 162.848 79.6841 162.848V164.848ZM85.3242 166.224C86.9426 167.099 88.181 168.337 89.0565 169.956L90.8156 169.004C89.7551 167.044 88.2362 165.525 86.2759 164.464L85.3242 166.224ZM89.066 169.973C89.9654 171.56 90.4321 173.438 90.4321 175.64H92.4321C92.4321 173.148 91.9014 170.92 90.8061 168.987L89.066 169.973ZM90.4321 175.64V183.56H92.4321V175.64H90.4321ZM90.4321 183.56C90.4321 185.761 89.9655 187.657 89.0626 189.277L90.8095 190.251C91.9013 188.292 92.4321 186.052 92.4321 183.56H90.4321ZM89.0598 189.282C88.1842 190.874 86.942 192.119 85.3132 193.027L86.2869 194.773C88.2368 193.687 89.7519 192.174 90.8123 190.246L89.0598 189.282ZM85.3181 193.024C83.7271 193.899 81.859 194.352 79.6841 194.352V196.352C82.1438 196.352 84.353 195.837 86.282 194.776L85.3181 193.024ZM79.6841 194.352H75.0201V196.352H79.6841V194.352ZM79.6841 190.984C81.6615 190.984 83.3148 190.252 84.5443 188.776L83.0078 187.496C82.184 188.484 81.1093 188.984 79.6841 188.984V190.984ZM84.5353 188.787C85.78 187.335 86.3601 185.473 86.3601 183.296H84.3601C84.3601 185.109 83.8841 186.473 83.0168 187.485L84.5353 188.787ZM86.3601 183.296V175.904H84.3601V183.296H86.3601ZM86.3601 175.904C86.3601 173.727 85.78 171.865 84.5353 170.413L83.0168 171.715C83.8841 172.727 84.3601 174.091 84.3601 175.904H86.3601ZM84.5443 170.424C83.3148 168.948 81.6615 168.216 79.6841 168.216V170.216C81.1093 170.216 82.184 170.716 83.0078 171.704L84.5443 170.424ZM79.6841 168.216H75.0201V170.216H79.6841V168.216ZM75.0201 168.216C73.043 168.216 71.3811 168.948 70.1248 170.413L71.6433 171.715C72.4991 170.716 73.5945 170.216 75.0201 170.216V168.216ZM70.1158 170.424C68.9057 171.876 68.3441 173.734 68.3441 175.904H70.3441C70.3441 174.085 70.8091 172.716 71.6523 171.704L70.1158 170.424ZM68.3441 175.904V183.296H70.3441V175.904H68.3441ZM68.3441 183.296C68.3441 185.466 68.9057 187.324 70.1158 188.776L71.6523 187.496C70.8091 186.484 70.3441 185.115 70.3441 183.296H68.3441ZM70.1248 188.787C71.3811 190.252 73.043 190.984 75.0201 190.984V188.984C73.5945 188.984 72.4991 188.484 71.6433 187.485L70.1248 188.787ZM75.0201 190.984H79.6841V188.984H75.0201V190.984ZM96.8719 164.2V163.2H95.8719V164.2H96.8719ZM102.284 164.2L103.101 163.623L102.802 163.2H102.284V164.2ZM117.068 185.144L116.251 185.721L118.068 188.295V185.144H117.068ZM117.068 164.2V163.2H116.068V164.2H117.068ZM123.008 164.2H124.008V163.2H123.008V164.2ZM123.008 195V196H124.008V195H123.008ZM117.596 195L116.779 195.577L117.078 196H117.596V195ZM102.812 174.056L103.629 173.479L101.812 170.905V174.056H102.812ZM102.812 195V196H103.812V195H102.812ZM96.8719 195H95.8719V196H96.8719V195ZM96.8719 165.2H102.284V163.2H96.8719V165.2ZM101.467 164.777L116.251 185.721L117.885 184.567L103.101 163.623L101.467 164.777ZM118.068 185.144V164.2H116.068V185.144H118.068ZM117.068 165.2H123.008V163.2H117.068V165.2ZM122.008 164.2V195H124.008V164.2H122.008ZM123.008 194H117.596V196H123.008V194ZM118.413 194.423L103.629 173.479L101.995 174.633L116.779 195.577L118.413 194.423ZM101.812 174.056V195H103.812V174.056H101.812ZM102.812 194H96.8719V196H102.812V194ZM97.8719 195V164.2H95.8719V195H97.8719ZM134.042 193.9L133.549 194.77L133.557 194.775L133.566 194.78L134.042 193.9ZM129.906 189.764L129.026 190.24L129.031 190.248L129.036 190.257L129.906 189.764ZM129.906 169.48L129.032 168.993L129.03 168.998L129.906 169.48ZM134.042 165.344L134.524 166.22L134.529 166.217L134.042 165.344ZM150.982 165.344L150.489 166.214L150.497 166.219L150.506 166.224L150.982 165.344ZM155.118 169.48L154.238 169.956L154.243 169.964L154.248 169.973L155.118 169.48ZM155.118 189.764L154.244 189.277L154.242 189.282L155.118 189.764ZM150.982 193.9L151.464 194.776L151.469 194.773L150.982 193.9ZM148.958 188.136L148.199 187.485L148.19 187.496L148.958 188.136ZM148.958 171.064L148.19 171.704L148.199 171.715L148.958 171.064ZM136.066 171.064L135.307 170.413L135.298 170.424L136.066 171.064ZM136.066 188.136L135.298 188.776L135.307 188.787L136.066 188.136ZM140.202 194.352C138.027 194.352 136.142 193.899 134.518 193.02L133.566 194.78C135.521 195.837 137.742 196.352 140.202 196.352V194.352ZM134.535 193.03C132.932 192.122 131.684 190.874 130.776 189.271L129.036 190.257C130.122 192.174 131.631 193.683 133.549 194.77L134.535 193.03ZM130.785 189.288C129.908 187.666 129.454 185.766 129.454 183.56H127.454C127.454 186.047 127.968 188.283 129.026 190.24L130.785 189.288ZM129.454 183.56V175.64H127.454V183.56H129.454ZM129.454 175.64C129.454 173.433 129.908 171.551 130.782 169.962L129.03 168.998C127.968 170.929 127.454 173.153 127.454 175.64H129.454ZM130.779 169.967C131.687 168.338 132.932 167.096 134.524 166.22L133.56 164.468C131.632 165.528 130.119 167.043 129.032 168.993L130.779 169.967ZM134.529 166.217C136.151 165.314 138.032 164.848 140.202 164.848V162.848C137.737 162.848 135.512 163.38 133.555 164.471L134.529 166.217ZM140.202 164.848H144.866V162.848H140.202V164.848ZM144.866 164.848C147.036 164.848 148.9 165.314 150.489 166.214L151.475 164.474C149.544 163.38 147.331 162.848 144.866 162.848V164.848ZM150.506 166.224C152.124 167.099 153.363 168.337 154.238 169.956L155.997 169.004C154.937 167.044 153.418 165.525 151.458 164.464L150.506 166.224ZM154.248 169.973C155.147 171.56 155.614 173.438 155.614 175.64H157.614C157.614 173.148 157.083 170.92 155.988 168.987L154.248 169.973ZM155.614 175.64V183.56H157.614V175.64H155.614ZM155.614 183.56C155.614 185.761 155.147 187.657 154.244 189.277L155.991 190.251C157.083 188.292 157.614 186.052 157.614 183.56H155.614ZM154.242 189.282C153.366 190.874 152.124 192.119 150.495 193.027L151.469 194.773C153.419 193.687 154.934 192.174 155.994 190.246L154.242 189.282ZM150.5 193.024C148.909 193.899 147.041 194.352 144.866 194.352V196.352C147.326 196.352 149.535 195.837 151.464 194.776L150.5 193.024ZM144.866 194.352H140.202V196.352H144.866V194.352ZM144.866 190.984C146.843 190.984 148.497 190.252 149.726 188.776L148.19 187.496C147.366 188.484 146.291 188.984 144.866 188.984V190.984ZM149.717 188.787C150.962 187.335 151.542 185.473 151.542 183.296H149.542C149.542 185.109 149.066 186.473 148.199 187.485L149.717 188.787ZM151.542 183.296V175.904H149.542V183.296H151.542ZM151.542 175.904C151.542 173.727 150.962 171.865 149.717 170.413L148.199 171.715C149.066 172.727 149.542 174.091 149.542 175.904H151.542ZM149.726 170.424C148.497 168.948 146.843 168.216 144.866 168.216V170.216C146.291 170.216 147.366 170.716 148.19 171.704L149.726 170.424ZM144.866 168.216H140.202V170.216H144.866V168.216ZM140.202 168.216C138.225 168.216 136.563 168.948 135.307 170.413L136.825 171.715C137.681 170.716 138.776 170.216 140.202 170.216V168.216ZM135.298 170.424C134.088 171.876 133.526 173.734 133.526 175.904H135.526C135.526 174.085 135.991 172.716 136.834 171.704L135.298 170.424ZM133.526 175.904V183.296H135.526V175.904H133.526ZM133.526 183.296C133.526 185.466 134.088 187.324 135.298 188.776L136.834 187.496C135.991 186.484 135.526 185.115 135.526 183.296H133.526ZM135.307 188.787C136.563 190.252 138.225 190.984 140.202 190.984V188.984C138.776 188.984 137.681 188.484 136.825 187.485L135.307 188.787ZM140.202 190.984H144.866V188.984H140.202V190.984ZM162.054 164.2V163.2H161.054V164.2H162.054ZM167.466 164.2L168.342 163.718L168.057 163.2H167.466V164.2ZM177.542 182.504L176.666 182.986L177.551 184.595L178.422 182.978L177.542 182.504ZM187.398 164.2V163.2H186.8L186.517 163.726L187.398 164.2ZM192.81 164.2H193.81V163.2H192.81V164.2ZM192.81 195V196H193.81V195H192.81ZM186.87 195H185.87V196H186.87V195ZM186.87 175.508H187.87L185.995 175.024L186.87 175.508ZM180.402 187.212L181.276 187.698L181.277 187.696L180.402 187.212ZM179.038 188.928L179.629 189.734L179.638 189.728L179.038 188.928ZM175.826 189.412L174.954 189.903L175.241 190.412H175.826V189.412ZM167.994 175.508L168.865 175.017L166.994 171.695V175.508H167.994ZM167.994 195V196H168.994V195H167.994ZM162.054 195H161.054V196H162.054V195ZM162.054 165.2H167.466V163.2H162.054V165.2ZM166.59 164.682L176.666 182.986L178.418 182.022L168.342 163.718L166.59 164.682ZM178.422 182.978L188.278 164.674L186.517 163.726L176.661 182.03L178.422 182.978ZM187.398 165.2H192.81V163.2H187.398V165.2ZM191.81 164.2V195H193.81V164.2H191.81ZM192.81 194H186.87V196H192.81V194ZM187.87 195V175.508H185.87V195H187.87ZM185.995 175.024L179.527 186.728L181.277 187.696L187.745 175.992L185.995 175.024ZM179.528 186.726C179.122 187.456 178.75 187.894 178.438 188.128L179.638 189.728C180.264 189.258 180.801 188.552 181.276 187.698L179.528 186.726ZM178.446 188.122C178.191 188.309 177.889 188.412 177.498 188.412V190.412C178.28 190.412 179.004 190.193 179.629 189.734L178.446 188.122ZM177.498 188.412H175.826V190.412H177.498V188.412ZM176.697 188.921L168.865 175.017L167.122 175.999L174.954 189.903L176.697 188.921ZM166.994 175.508V195H168.994V175.508H166.994ZM167.994 194H162.054V196H167.994V194ZM163.054 195V164.2H161.054V195H163.054ZM207.736 183.032H208.736V182.753L208.592 182.514L207.736 183.032ZM196.34 164.2V163.2H194.566L195.485 164.718L196.34 164.2ZM202.94 164.2L203.801 163.691L203.511 163.2H202.94V164.2ZM210.772 177.444L209.912 177.953L210.772 179.409L211.633 177.953L210.772 177.444ZM218.604 164.2V163.2H218.034L217.744 163.691L218.604 164.2ZM225.204 164.2L226.06 164.718L226.978 163.2H225.204V164.2ZM213.808 183.032L212.953 182.514L212.808 182.753V183.032H213.808ZM213.808 195V196H214.808V195H213.808ZM207.736 195H206.736V196H207.736V195ZM208.592 182.514L197.196 163.682L195.485 164.718L206.881 183.55L208.592 182.514ZM196.34 165.2H202.94V163.2H196.34V165.2ZM202.08 164.709L209.912 177.953L211.633 176.935L203.801 163.691L202.08 164.709ZM211.633 177.953L219.465 164.709L217.744 163.691L209.912 176.935L211.633 177.953ZM218.604 165.2H225.204V163.2H218.604V165.2ZM224.349 163.682L212.953 182.514L214.664 183.55L226.06 164.718L224.349 163.682ZM212.808 183.032V195H214.808V183.032H212.808ZM213.808 194H207.736V196H213.808V194ZM208.736 195V183.032H206.736V195H208.736ZM249.863 169.48H250.863V168.48H249.863V169.48ZM240.095 169.48H239.095V170.48H240.095V169.48ZM240.095 164.2V163.2H239.095V164.2H240.095ZM265.703 164.2H266.703V163.2H265.703V164.2ZM265.703 169.48V170.48H266.703V169.48H265.703ZM255.935 169.48V168.48H254.935V169.48H255.935ZM255.935 195V196H256.935V195H255.935ZM249.863 195H248.863V196H249.863V195ZM249.863 168.48H240.095V170.48H249.863V168.48ZM241.095 169.48V164.2H239.095V169.48H241.095ZM240.095 165.2H265.703V163.2H240.095V165.2ZM264.703 164.2V169.48H266.703V164.2H264.703ZM265.703 168.48H255.935V170.48H265.703V168.48ZM254.935 169.48V195H256.935V169.48H254.935ZM255.935 194H249.863V196H255.935V194ZM250.863 195V169.48H248.863V195H250.863ZM273.149 193.9L272.656 194.77L272.665 194.775L272.673 194.78L273.149 193.9ZM269.013 189.764L268.133 190.24L268.138 190.248L268.143 190.257L269.013 189.764ZM269.013 169.48L268.139 168.993L268.137 168.998L269.013 169.48ZM273.149 165.344L273.631 166.22L273.636 166.217L273.149 165.344ZM290.089 165.344L289.596 166.214L289.605 166.219L289.613 166.224L290.089 165.344ZM294.225 169.48L293.345 169.956L293.35 169.964L293.355 169.973L294.225 169.48ZM294.225 189.764L293.352 189.277L293.349 189.282L294.225 189.764ZM290.089 193.9L290.571 194.776L290.576 194.773L290.089 193.9ZM288.065 188.136L287.306 187.485L287.297 187.496L288.065 188.136ZM288.065 171.064L287.297 171.704L287.306 171.715L288.065 171.064ZM275.173 171.064L274.414 170.413L274.405 170.424L275.173 171.064ZM275.173 188.136L274.405 188.776L274.414 188.787L275.173 188.136ZM279.309 194.352C277.134 194.352 275.249 193.899 273.625 193.02L272.673 194.78C274.628 195.837 276.849 196.352 279.309 196.352V194.352ZM273.642 193.03C272.039 192.122 270.791 190.874 269.883 189.271L268.143 190.257C269.23 192.174 270.738 193.683 272.656 194.77L273.642 193.03ZM269.893 189.288C269.015 187.666 268.561 185.766 268.561 183.56H266.561C266.561 186.047 267.075 188.283 268.133 190.24L269.893 189.288ZM268.561 183.56V175.64H266.561V183.56H268.561ZM268.561 175.64C268.561 173.433 269.015 171.551 269.889 169.962L268.137 168.998C267.075 170.929 266.561 173.153 266.561 175.64H268.561ZM269.886 169.967C270.794 168.338 272.039 167.096 273.631 166.22L272.667 164.468C270.739 165.528 269.226 167.043 268.139 168.993L269.886 169.967ZM273.636 166.217C275.258 165.314 277.139 164.848 279.309 164.848V162.848C276.844 162.848 274.619 163.38 272.662 164.471L273.636 166.217ZM279.309 164.848H283.973V162.848H279.309V164.848ZM283.973 164.848C286.143 164.848 288.007 165.314 289.596 166.214L290.582 164.474C288.651 163.38 286.438 162.848 283.973 162.848V164.848ZM289.613 166.224C291.232 167.099 292.47 168.337 293.345 169.956L295.105 169.004C294.044 167.044 292.525 165.525 290.565 164.464L289.613 166.224ZM293.355 169.973C294.254 171.56 294.721 173.438 294.721 175.64H296.721C296.721 173.148 296.19 170.92 295.095 168.987L293.355 169.973ZM294.721 175.64V183.56H296.721V175.64H294.721ZM294.721 183.56C294.721 185.761 294.254 187.657 293.352 189.277L295.098 190.251C296.19 188.292 296.721 186.052 296.721 183.56H294.721ZM293.349 189.282C292.473 190.874 291.231 192.119 289.602 193.027L290.576 194.773C292.526 193.687 294.041 192.174 295.101 190.246L293.349 189.282ZM289.607 193.024C288.016 193.899 286.148 194.352 283.973 194.352V196.352C286.433 196.352 288.642 195.837 290.571 194.776L289.607 193.024ZM283.973 194.352H279.309V196.352H283.973V194.352ZM283.973 190.984C285.95 190.984 287.604 190.252 288.833 188.776L287.297 187.496C286.473 188.484 285.398 188.984 283.973 188.984V190.984ZM288.824 188.787C290.069 187.335 290.649 185.473 290.649 183.296H288.649C288.649 185.109 288.173 186.473 287.306 187.485L288.824 188.787ZM290.649 183.296V175.904H288.649V183.296H290.649ZM290.649 175.904C290.649 173.727 290.069 171.865 288.824 170.413L287.306 171.715C288.173 172.727 288.649 174.091 288.649 175.904H290.649ZM288.833 170.424C287.604 168.948 285.95 168.216 283.973 168.216V170.216C285.398 170.216 286.473 170.716 287.297 171.704L288.833 170.424ZM283.973 168.216H279.309V170.216H283.973V168.216ZM279.309 168.216C277.332 168.216 275.67 168.948 274.414 170.413L275.932 171.715C276.788 170.716 277.883 170.216 279.309 170.216V168.216ZM274.405 170.424C273.195 171.876 272.633 173.734 272.633 175.904H274.633C274.633 174.085 275.098 172.716 275.941 171.704L274.405 170.424ZM272.633 175.904V183.296H274.633V175.904H272.633ZM272.633 183.296C272.633 185.466 273.195 187.324 274.405 188.776L275.941 187.496C275.098 186.484 274.633 185.115 274.633 183.296H272.633ZM274.414 188.787C275.67 190.252 277.332 190.984 279.309 190.984V188.984C277.883 188.984 276.788 188.484 275.932 187.485L274.414 188.787ZM279.309 190.984H283.973V188.984H279.309V190.984ZM4.728 218.2V217.2H3.728V218.2H4.728ZM27.784 218.2H28.784V217.2H27.784V218.2ZM27.784 223.48V224.48H28.784V223.48H27.784ZM10.8 223.48V222.48H9.8V223.48H10.8ZM10.8 231.752H9.8V232.752H10.8V231.752ZM26.156 231.752H27.156V230.752H26.156V231.752ZM26.156 237.032V238.032H27.156V237.032H26.156ZM10.8 237.032V236.032H9.8V237.032H10.8ZM10.8 249V250H11.8V249H10.8ZM4.728 249H3.728V250H4.728V249ZM4.728 219.2H27.784V217.2H4.728V219.2ZM26.784 218.2V223.48H28.784V218.2H26.784ZM27.784 222.48H10.8V224.48H27.784V222.48ZM9.8 223.48V231.752H11.8V223.48H9.8ZM10.8 232.752H26.156V230.752H10.8V232.752ZM25.156 231.752V237.032H27.156V231.752H25.156ZM26.156 236.032H10.8V238.032H26.156V236.032ZM9.8 237.032V249H11.8V237.032H9.8ZM10.8 248H4.728V250H10.8V248ZM5.728 249L5.728 218.2H3.728L3.728 249H5.728ZM37.1787 247.988L36.6825 248.856L36.6944 248.863L37.1787 247.988ZM33.3507 244.072L32.4722 244.55L33.3507 244.072ZM31.9867 218.2V217.2H30.9867V218.2H31.9867ZM38.0587 218.2H39.0587V217.2H38.0587V218.2ZM39.3787 242.356L38.6019 242.986L38.607 242.992L38.6122 242.998L39.3787 242.356ZM51.1267 242.356L50.3602 241.714L51.1267 242.356ZM52.4907 218.2V217.2H51.4907V218.2H52.4907ZM58.5627 218.2H59.5627V217.2H58.5627V218.2ZM57.1987 244.072L58.0772 244.55L57.1987 244.072ZM53.3267 247.988L53.8045 248.867L53.8162 248.86L53.3267 247.988ZM42.8987 248.352C40.8708 248.352 39.1357 247.928 37.663 247.113L36.6944 248.863C38.507 249.866 40.5853 250.352 42.8987 250.352V248.352ZM37.6748 247.12C36.1944 246.274 35.0503 245.104 34.2292 243.594L32.4722 244.55C33.4697 246.384 34.8776 247.825 36.6825 248.856L37.6748 247.12ZM34.2292 243.594C33.4112 242.09 32.9867 240.323 32.9867 238.264H30.9867C30.9867 240.605 31.4715 242.71 32.4722 244.55L34.2292 243.594ZM32.9867 238.264V218.2H30.9867V238.264H32.9867ZM31.9867 219.2H38.0587V217.2H31.9867V219.2ZM37.0587 218.2V238.088H39.0587V218.2H37.0587ZM37.0587 238.088C37.0587 240.016 37.5433 241.68 38.6019 242.986L40.1554 241.726C39.454 240.861 39.0587 239.68 39.0587 238.088H37.0587ZM38.6122 242.998C39.7148 244.314 41.1707 244.984 42.8987 244.984V242.984C41.752 242.984 40.8612 242.568 40.1452 241.714L38.6122 242.998ZM42.8987 244.984H47.5627V242.984H42.8987V244.984ZM47.5627 244.984C49.313 244.984 50.7862 244.32 51.8932 242.998L50.3602 241.714C49.6485 242.563 48.7457 242.984 47.5627 242.984V244.984ZM51.8932 242.998C52.9873 241.692 53.4907 240.024 53.4907 238.088H51.4907C51.4907 239.672 51.0848 240.849 50.3602 241.714L51.8932 242.998ZM53.4907 238.088V218.2H51.4907V238.088H53.4907ZM52.4907 219.2H58.5627V217.2H52.4907V219.2ZM57.5627 218.2V238.264H59.5627V218.2H57.5627ZM57.5627 238.264C57.5627 240.323 57.1381 242.09 56.3202 243.594L58.0772 244.55C59.0779 242.71 59.5627 240.605 59.5627 238.264H57.5627ZM56.3202 243.594C55.5015 245.1 54.3463 246.269 52.8372 247.116L53.8162 248.86C55.6511 247.83 57.0772 246.388 58.0772 244.55L56.3202 243.594ZM52.8489 247.11C51.343 247.928 49.5902 248.352 47.5627 248.352V250.352C49.8765 250.352 51.9663 249.866 53.8045 248.866L52.8489 247.11ZM47.5627 248.352H42.8987V250.352H47.5627V248.352ZM64.7107 218.2V217.2H63.7107V218.2H64.7107ZM70.1227 218.2L70.9396 217.623L70.6408 217.2H70.1227V218.2ZM84.9067 239.144L84.0897 239.721L85.9067 242.295V239.144H84.9067ZM84.9067 218.2V217.2H83.9067V218.2H84.9067ZM90.8467 218.2H91.8467V217.2H90.8467V218.2ZM90.8467 249V250H91.8467V249H90.8467ZM85.4347 249L84.6177 249.577L84.9165 250H85.4347V249ZM70.6507 228.056L71.4676 227.479L69.6507 224.905V228.056H70.6507ZM70.6507 249V250H71.6507V249H70.6507ZM64.7107 249H63.7107V250H64.7107V249ZM64.7107 219.2H70.1227V217.2H64.7107V219.2ZM69.3057 218.777L84.0897 239.721L85.7236 238.567L70.9396 217.623L69.3057 218.777ZM85.9067 239.144V218.2H83.9067V239.144H85.9067ZM84.9067 219.2H90.8467V217.2H84.9067V219.2ZM89.8467 218.2L89.8467 249H91.8467L91.8467 218.2H89.8467ZM90.8467 248H85.4347V250H90.8467V248ZM86.2516 248.423L71.4676 227.479L69.8337 228.633L84.6177 249.577L86.2516 248.423ZM69.6507 228.056L69.6507 249H71.6507L71.6507 228.056H69.6507ZM70.6507 248H64.7107V250H70.6507V248ZM65.7107 249V218.2H63.7107V249H65.7107ZM101.661 247.9L101.166 248.769L101.173 248.773L101.661 247.9ZM97.7007 243.808L96.8151 244.273L96.8183 244.279L97.7007 243.808ZM97.7007 223.436L96.8211 222.96L96.8183 222.965L97.7007 223.436ZM101.749 219.3L101.267 218.424L101.261 218.427L101.749 219.3ZM118.293 219.256L118.782 218.384L118.293 219.256ZM122.165 223.216L121.283 223.687L121.288 223.697L121.293 223.706L122.165 223.216ZM123.573 229.068V230.068H124.573V229.068H123.573ZM117.589 229.068H116.589V230.068H117.589V229.068ZM116.181 224.844L115.424 225.498L115.433 225.508L116.181 224.844ZM103.861 225.064L104.631 225.702L104.638 225.693L103.861 225.064ZM103.817 242.18L103.03 242.798L103.038 242.807L103.817 242.18ZM116.181 242.18L115.411 241.542L115.406 241.547L115.402 241.553L116.181 242.18ZM117.677 237.428V236.428H116.677V237.428H117.677ZM123.661 237.428H124.661V236.428H123.661V237.428ZM122.253 243.72L123.138 244.185L123.141 244.179L122.253 243.72ZM118.293 247.9L118.787 248.769L118.798 248.763L118.293 247.9ZM107.645 248.352C105.533 248.352 103.711 247.901 102.149 247.027L101.173 248.773C103.072 249.835 105.239 250.352 107.645 250.352V248.352ZM102.155 247.031C100.622 246.158 99.4345 244.934 98.583 243.337L96.8183 244.279C97.8442 246.202 99.2972 247.706 101.166 248.769L102.155 247.031ZM98.5862 243.343C97.7331 241.717 97.2927 239.827 97.2927 237.648H95.2927C95.2927 240.103 95.7909 242.32 96.8151 244.273L98.5862 243.343ZM97.2927 237.648V229.552H95.2927V237.648H97.2927ZM97.2927 229.552C97.2927 227.372 97.7333 225.5 98.583 223.907L96.8183 222.965C95.7908 224.892 95.2927 227.097 95.2927 229.552H97.2927ZM98.5802 223.912C99.4605 222.285 100.676 221.046 102.237 220.173L101.261 218.427C99.3599 219.49 97.8769 221.009 96.8211 222.96L98.5802 223.912ZM102.231 220.176C103.823 219.3 105.677 218.848 107.821 218.848V216.848C105.388 216.848 103.194 217.364 101.267 218.424L102.231 220.176ZM107.821 218.848H112.485V216.848H107.821V218.848ZM112.485 218.848C114.539 218.848 116.301 219.285 117.803 220.128L118.782 218.384C116.94 217.35 114.831 216.848 112.485 216.848V218.848ZM117.803 220.128C119.308 220.973 120.463 222.153 121.283 223.687L123.047 222.745C122.048 220.876 120.622 219.417 118.782 218.384L117.803 220.128ZM121.293 223.706C122.135 225.205 122.573 226.982 122.573 229.068H124.573C124.573 226.695 124.072 224.571 123.037 222.726L121.293 223.706ZM123.573 228.068H117.589V230.068H123.573V228.068ZM118.589 229.068C118.589 227.126 118.067 225.461 116.928 224.18L115.433 225.508C116.172 226.339 116.589 227.49 116.589 229.068H118.589ZM116.937 224.19C115.795 222.87 114.28 222.216 112.485 222.216V224.216C113.74 224.216 114.689 224.648 115.424 225.498L116.937 224.19ZM112.485 222.216H107.821V224.216H112.485V222.216ZM107.821 222.216C105.889 222.216 104.278 222.959 103.083 224.435L104.638 225.693C105.438 224.705 106.467 224.216 107.821 224.216V222.216ZM103.091 224.426C101.91 225.85 101.365 227.679 101.365 229.816H103.365C103.365 228.022 103.817 226.683 104.63 225.702L103.091 224.426ZM101.365 229.816V237.384H103.365V229.816H101.365ZM101.365 237.384C101.365 239.515 101.892 241.349 103.03 242.798L104.603 241.562C103.806 240.547 103.365 239.183 103.365 237.384H101.365ZM103.038 242.807C104.201 244.253 105.767 244.984 107.645 244.984V242.984C106.354 242.984 105.368 242.513 104.596 241.553L103.038 242.807ZM107.645 244.984H112.397V242.984H107.645V244.984ZM112.397 244.984C114.252 244.984 115.8 244.247 116.96 242.807L115.402 241.553C114.625 242.518 113.651 242.984 112.397 242.984V244.984ZM116.95 242.818C118.132 241.394 118.677 239.565 118.677 237.428H116.677C116.677 239.222 116.224 240.561 115.411 241.542L116.95 242.818ZM117.677 238.428H123.661V236.428H117.677V238.428ZM122.661 237.428C122.661 239.67 122.219 241.606 121.364 243.261L123.141 244.179C124.164 242.197 124.661 239.938 124.661 237.428H122.661ZM121.367 243.255C120.513 244.883 119.323 246.137 117.787 247.037L118.798 248.763C120.665 247.668 122.115 246.135 123.138 244.185L121.367 243.255ZM117.798 247.031C116.267 247.902 114.477 248.352 112.397 248.352V250.352C114.775 250.352 116.915 249.834 118.787 248.769L117.798 247.031ZM112.397 248.352H107.645V250.352H112.397V248.352ZM135.398 223.48H136.398V222.48H135.398V223.48ZM125.63 223.48H124.63V224.48H125.63V223.48ZM125.63 218.2V217.2H124.63V218.2H125.63ZM151.238 218.2H152.238V217.2H151.238V218.2ZM151.238 223.48V224.48H152.238V223.48H151.238ZM141.47 223.48V222.48H140.47V223.48H141.47ZM141.47 249V250H142.47V249H141.47ZM135.398 249H134.398V250H135.398V249ZM135.398 222.48H125.63V224.48H135.398V222.48ZM126.63 223.48V218.2H124.63V223.48H126.63ZM125.63 219.2H151.238V217.2H125.63V219.2ZM150.238 218.2V223.48H152.238V218.2H150.238ZM151.238 222.48H141.47V224.48H151.238V222.48ZM140.47 223.48V249H142.47V223.48H140.47ZM141.47 248H135.398V250H141.47V248ZM136.398 249V223.48H134.398V249H136.398ZM155.834 218.2V217.2H154.834V218.2H155.834ZM161.906 218.2H162.906V217.2H161.906V218.2ZM161.906 249V250H162.906V249H161.906ZM155.834 249H154.834V250H155.834V249ZM155.834 219.2H161.906V217.2H155.834V219.2ZM160.906 218.2V249H162.906V218.2H160.906ZM161.906 248H155.834V250H161.906V248ZM156.834 249V218.2H154.834V249H156.834ZM173.4 247.9L172.907 248.77L172.915 248.775L172.924 248.78L173.4 247.9ZM169.264 243.764L168.384 244.24L168.389 244.248L168.394 244.257L169.264 243.764ZM169.264 223.48L168.39 222.993L168.387 222.998L169.264 223.48ZM173.4 219.344L173.882 220.22L173.886 220.217L173.4 219.344ZM190.34 219.344L189.847 220.214L189.855 220.219L189.864 220.224L190.34 219.344ZM194.476 223.48L193.596 223.956L193.601 223.964L193.606 223.973L194.476 223.48ZM194.476 243.764L193.602 243.277L193.599 243.282L194.476 243.764ZM190.34 247.9L190.822 248.776L190.826 248.773L190.34 247.9ZM188.316 242.136L187.556 241.485L187.547 241.496L188.316 242.136ZM188.316 225.064L187.547 225.704L187.556 225.715L188.316 225.064ZM175.424 225.064L174.664 224.413L174.655 224.424L175.424 225.064ZM175.424 242.136L174.655 242.776L174.664 242.787L175.424 242.136ZM179.56 248.352C177.385 248.352 175.499 247.899 173.875 247.02L172.924 248.78C174.879 249.837 177.099 250.352 179.56 250.352V248.352ZM173.893 247.03C172.29 246.122 171.042 244.874 170.134 243.271L168.394 244.257C169.48 246.174 170.989 247.683 172.907 248.77L173.893 247.03ZM170.143 243.288C169.266 241.666 168.812 239.766 168.812 237.56H166.812C166.812 240.047 167.326 242.283 168.384 244.24L170.143 243.288ZM168.812 237.56V229.64H166.812V237.56H168.812ZM168.812 229.64C168.812 227.433 169.266 225.551 170.14 223.962L168.387 222.998C167.325 224.929 166.812 227.153 166.812 229.64H168.812ZM170.137 223.967C171.045 222.338 172.289 221.096 173.882 220.22L172.918 218.468C170.99 219.528 169.477 221.043 168.39 222.993L170.137 223.967ZM173.886 220.217C175.508 219.314 177.39 218.848 179.56 218.848V216.848C177.095 216.848 174.87 217.38 172.913 218.471L173.886 220.217ZM179.56 218.848H184.224V216.848H179.56V218.848ZM184.224 218.848C186.394 218.848 188.258 219.314 189.847 220.214L190.833 218.474C188.902 217.38 186.688 216.848 184.224 216.848V218.848ZM189.864 220.224C191.482 221.099 192.721 222.337 193.596 223.956L195.355 223.004C194.295 221.044 192.776 219.525 190.815 218.464L189.864 220.224ZM193.606 223.973C194.505 225.56 194.972 227.438 194.972 229.64H196.972C196.972 227.148 196.441 224.92 195.346 222.987L193.606 223.973ZM194.972 229.64V237.56H196.972V229.64H194.972ZM194.972 237.56C194.972 239.761 194.505 241.657 193.602 243.277L195.349 244.251C196.441 242.292 196.972 240.052 196.972 237.56H194.972ZM193.599 243.282C192.724 244.874 191.482 246.119 189.853 247.027L190.826 248.773C192.776 247.687 194.291 246.174 195.352 244.246L193.599 243.282ZM189.858 247.024C188.267 247.899 186.399 248.352 184.224 248.352V250.352C186.683 250.352 188.893 249.837 190.822 248.776L189.858 247.024ZM184.224 248.352H179.56V250.352H184.224V248.352ZM184.224 244.984C186.201 244.984 187.854 244.252 189.084 242.776L187.547 241.496C186.724 242.484 185.649 242.984 184.224 242.984V244.984ZM189.075 242.787C190.32 241.335 190.9 239.473 190.9 237.296H188.9C188.9 239.109 188.424 240.473 187.556 241.485L189.075 242.787ZM190.9 237.296V229.904H188.9V237.296H190.9ZM190.9 229.904C190.9 227.727 190.32 225.865 189.075 224.413L187.556 225.715C188.424 226.727 188.9 228.091 188.9 229.904H190.9ZM189.084 224.424C187.854 222.948 186.201 222.216 184.224 222.216V224.216C185.649 224.216 186.724 224.716 187.547 225.704L189.084 224.424ZM184.224 222.216H179.56V224.216H184.224V222.216ZM179.56 222.216C177.583 222.216 175.921 222.948 174.664 224.413L176.183 225.715C177.039 224.716 178.134 224.216 179.56 224.216V222.216ZM174.655 224.424C173.445 225.876 172.884 227.734 172.884 229.904H174.884C174.884 228.085 175.349 226.716 176.192 225.704L174.655 224.424ZM172.884 229.904V237.296H174.884V229.904H172.884ZM172.884 237.296C172.884 239.466 173.445 241.324 174.655 242.776L176.192 241.496C175.349 240.484 174.884 239.115 174.884 237.296H172.884ZM174.664 242.787C175.921 244.252 177.583 244.984 179.56 244.984V242.984C178.134 242.984 177.039 242.484 176.183 241.485L174.664 242.787ZM179.56 244.984H184.224V242.984H179.56V244.984ZM201.411 218.2V217.2H200.411V218.2H201.411ZM206.823 218.2L207.64 217.623L207.342 217.2H206.823V218.2ZM221.607 239.144L220.79 239.721L222.607 242.295V239.144H221.607ZM221.607 218.2V217.2H220.607V218.2H221.607ZM227.547 218.2H228.547V217.2H227.547V218.2ZM227.547 249V250H228.547V249H227.547ZM222.135 249L221.318 249.577L221.617 250H222.135V249ZM207.351 228.056L208.168 227.479L206.351 224.905V228.056H207.351ZM207.351 249V250H208.351V249H207.351ZM201.411 249H200.411V250H201.411V249ZM201.411 219.2H206.823V217.2H201.411V219.2ZM206.006 218.777L220.79 239.721L222.424 238.567L207.64 217.623L206.006 218.777ZM222.607 239.144V218.2H220.607V239.144H222.607ZM221.607 219.2H227.547V217.2H221.607V219.2ZM226.547 218.2V249H228.547V218.2H226.547ZM227.547 248H222.135V250H227.547V248ZM222.952 248.423L208.168 227.479L206.534 228.633L221.318 249.577L222.952 248.423ZM206.351 228.056V249H208.351V228.056H206.351ZM207.351 248H201.411V250H207.351V248ZM202.411 249V218.2H200.411V249H202.411ZM233.785 248.472L233.063 249.163L233.078 249.179L233.094 249.195L233.785 248.472ZM233.785 243.236L233.078 242.529L233.785 243.236ZM239.021 243.236L238.299 243.927L238.314 243.943L238.33 243.959L239.021 243.236ZM239.021 248.472L238.314 247.765L239.021 248.472ZM236.425 248.44C235.553 248.44 234.935 248.188 234.477 247.749L233.094 249.195C233.985 250.047 235.128 250.44 236.425 250.44V248.44ZM234.508 247.781C234.07 247.322 233.817 246.705 233.817 245.832H231.817C231.817 247.13 232.211 248.272 233.063 249.163L234.508 247.781ZM233.817 245.832C233.817 244.958 234.07 244.366 234.493 243.943L233.078 242.529C232.211 243.397 231.817 244.535 231.817 245.832H233.817ZM234.493 243.943C234.953 243.482 235.566 243.224 236.425 243.224V241.224C235.115 241.224 233.967 241.64 233.078 242.529L234.493 243.943ZM236.425 243.224C237.286 243.224 237.873 243.482 238.299 243.927L239.744 242.545C238.879 241.641 237.735 241.224 236.425 241.224V243.224ZM238.33 243.959C238.775 244.384 239.033 244.971 239.033 245.832H241.033C241.033 244.522 240.617 243.378 239.713 242.513L238.33 243.959ZM239.033 245.832C239.033 246.692 238.775 247.304 238.314 247.765L239.729 249.179C240.617 248.291 241.033 247.143 241.033 245.832H239.033ZM238.314 247.765C237.891 248.188 237.299 248.44 236.425 248.44V250.44C237.722 250.44 238.861 250.047 239.729 249.179L238.314 247.765Z" fill="#03B3FF"/>
</svg>
