<svg width="1197" height="78" viewBox="0 0 1197 78" fill="none" xmlns="http://www.w3.org/2000/svg">
<path d="M0.750638 1.09999H40.2336C44.585 1.09999 48.437 1.95599 51.7896 3.66799C55.1423 5.30866 57.746 7.69833 59.6006 10.837C61.4553 13.9043 62.3826 17.4353 62.3826 21.43V31.381C62.3826 35.5183 61.4196 39.192 59.4936 42.402C57.5676 45.5407 54.857 48.0017 51.3616 49.785C47.9376 51.497 43.943 52.353 39.3776 52.353H15.5166V76H0.750638L0.750638 1.09999ZM39.1636 39.513C41.6603 39.513 43.6933 38.7283 45.2626 37.159C46.832 35.5183 47.6166 33.3783 47.6166 30.739V22.072C47.6166 19.5753 46.9033 17.6137 45.4766 16.187C44.1213 14.689 42.3023 13.94 40.0196 13.94H15.5166V39.513H39.1636ZM69.4814 1.09999H109.285C115.777 1.09999 120.984 2.84766 124.907 6.343C128.902 9.83833 130.899 14.4393 130.899 20.146V27.636C130.899 31.3453 129.829 34.591 127.689 37.373C125.621 40.0837 122.589 42.1523 118.594 43.579V43.793C120.877 45.291 122.589 47.003 123.73 48.929C124.943 50.855 126.12 53.53 127.261 56.954L133.253 76H117.952L112.281 58.238C111.354 55.1707 110.07 52.888 108.429 51.39C106.789 49.892 104.756 49.143 102.33 49.143H84.2474V76H69.4814V1.09999ZM106.503 36.41C109.499 36.41 111.853 35.6253 113.565 34.056C115.277 32.4153 116.133 30.311 116.133 27.743V20.788C116.133 18.7193 115.491 17.0787 114.207 15.866C112.923 14.582 111.211 13.94 109.071 13.94H84.2474V36.41H106.503ZM151.308 76C148.241 76 145.744 75.0727 143.818 73.218C141.892 71.3633 140.929 68.938 140.929 65.942V1.09999H198.067V13.94H155.695V31.274H194.857V44.114H155.695V63.16H198.067V76H151.308ZM207.047 1.09999L246.53 1.09999C250.882 1.09999 254.734 1.95599 258.086 3.66799C261.439 5.30866 264.043 7.69833 265.897 10.837C267.752 13.9043 268.679 17.4353 268.679 21.43V31.381C268.679 35.5183 267.716 39.192 265.79 42.402C263.864 45.5407 261.154 48.0017 257.658 49.785C254.234 51.497 250.24 52.353 245.674 52.353L221.813 52.353V76H207.047V1.09999ZM245.46 39.513C247.957 39.513 249.99 38.7283 251.559 37.159C253.129 35.5183 253.913 33.3783 253.913 30.739V22.072C253.913 19.5753 253.2 17.6137 251.773 16.187C250.418 14.689 248.599 13.94 246.316 13.94L221.813 13.94V39.513L245.46 39.513ZM312.543 58.559H284.509L277.875 76H262.467L291.785 1.09999H298.419C303.055 1.09999 306.194 3.23999 307.835 7.52L334.478 76H319.07L312.543 58.559ZM288.468 46.147H308.584L298.633 19.183H298.526L288.468 46.147ZM340.434 1.09999H380.238C386.729 1.09999 391.937 2.84766 395.86 6.343C399.855 9.83833 401.852 14.4393 401.852 20.146V27.636C401.852 31.3453 400.782 34.591 398.642 37.373C396.573 40.0837 393.542 42.1523 389.547 43.579V43.793C391.83 45.291 393.542 47.003 394.683 48.929C395.896 50.855 397.073 53.53 398.214 56.954L404.206 76H388.905L383.234 58.238C382.307 55.1707 381.023 52.888 379.382 51.39C377.741 49.892 375.708 49.143 373.283 49.143H355.2V76H340.434V1.09999ZM377.456 36.41C380.452 36.41 382.806 35.6253 384.518 34.056C386.23 32.4153 387.086 30.311 387.086 27.743V20.788C387.086 18.7193 386.444 17.0787 385.16 15.866C383.876 14.582 382.164 13.94 380.024 13.94H355.2V36.41H377.456ZM422.26 76C419.193 76 416.696 75.0727 414.77 73.218C412.844 71.3633 411.881 68.938 411.881 65.942V1.09999H469.019V13.94H426.647V31.274H465.809V44.114H426.647V63.16H469.019V76H422.26ZM507.755 1.09999H563.823V13.94H522.521V34.056H559.864V46.896H522.521V76H507.755V1.09999ZM595.6 76.856C589.965 76.856 584.972 75.679 580.62 73.325C576.34 70.8997 572.988 67.547 570.562 63.267C568.208 58.9157 567.031 53.8867 567.031 48.18V28.92C567.031 23.2133 568.208 18.22 570.562 13.94C572.988 9.58866 576.34 6.236 580.62 3.882C584.972 1.45667 589.965 0.244 595.6 0.244H606.942C612.578 0.244 617.535 1.45667 621.815 3.882C626.167 6.236 629.519 9.58866 631.873 13.94C634.299 18.22 635.511 23.2133 635.511 28.92V48.18C635.511 53.8867 634.299 58.9157 631.873 63.267C629.519 67.547 626.167 70.8997 621.815 73.325C617.535 75.679 612.578 76.856 606.942 76.856H595.6ZM606.942 63.802C611.08 63.802 614.397 62.304 616.893 59.308C619.461 56.312 620.745 52.3887 620.745 47.538V29.562C620.745 24.7113 619.461 20.788 616.893 17.792C614.397 14.796 611.08 13.298 606.942 13.298H595.6C591.463 13.298 588.11 14.796 585.542 17.792C583.046 20.788 581.797 24.7113 581.797 29.562V47.538C581.797 52.3887 583.046 56.312 585.542 59.308C588.11 62.304 591.463 63.802 595.6 63.802H606.942ZM645.53 1.09999H685.334C691.825 1.09999 697.033 2.84766 700.956 6.343C704.951 9.83833 706.948 14.4393 706.948 20.146V27.636C706.948 31.3453 705.878 34.591 703.738 37.373C701.669 40.0837 698.638 42.1523 694.643 43.579V43.793C696.926 45.291 698.638 47.003 699.779 48.929C700.992 50.855 702.169 53.53 703.31 56.954L709.302 76H694.001L688.33 58.238C687.403 55.1707 686.119 52.888 684.478 51.39C682.837 49.892 680.804 49.143 678.379 49.143H660.296V76H645.53V1.09999ZM682.552 36.41C685.548 36.41 687.902 35.6253 689.614 34.056C691.326 32.4153 692.182 30.311 692.182 27.743V20.788C692.182 18.7193 691.54 17.0787 690.256 15.866C688.972 14.582 687.26 13.94 685.12 13.94H660.296V36.41H682.552ZM757.112 76C753.973 76 751.441 75.1083 749.515 73.325C747.66 71.4703 746.733 69.045 746.733 66.049V1.09999L761.499 1.09999V63.16H802.159V76H757.112ZM852.437 58.559H824.403L817.769 76H802.361L831.679 1.09999H838.313C842.95 1.09999 846.089 3.23999 847.729 7.52L874.372 76H858.964L852.437 58.559ZM828.362 46.147H848.478L838.527 19.183H838.42L828.362 46.147ZM903.615 76.856C898.336 76.856 893.7 75.7503 889.705 73.539C885.71 71.2563 882.607 68.082 880.396 64.016C878.185 59.95 877.079 55.242 877.079 49.892V1.09999H891.845V49.464C891.845 53.744 892.915 57.2037 895.055 59.843C897.266 62.4823 900.12 63.802 903.615 63.802H914.957C918.524 63.802 921.413 62.4823 923.624 59.843C925.835 57.2037 926.941 53.744 926.941 49.464V1.09999H941.707V49.892C941.707 55.242 940.601 59.95 938.39 64.016C936.179 68.082 933.04 71.2563 928.974 73.539C924.908 75.7503 920.236 76.856 914.957 76.856H903.615ZM953.448 1.09999H966.609L1002.56 52.032V1.09999H1017.01V76H1003.84L967.893 25.068V76H953.448V1.09999ZM1054.65 76.856C1049.15 76.856 1044.3 75.679 1040.09 73.325C1035.96 70.971 1032.75 67.654 1030.46 63.374C1028.18 59.0227 1027.04 54.0293 1027.04 48.394V28.706C1027.04 23.0707 1028.18 18.113 1030.46 13.833C1032.82 9.48166 1036.1 6.129 1040.31 3.775C1044.59 1.421 1049.51 0.244 1055.07 0.244H1066.42C1071.77 0.244 1076.47 1.38533 1080.54 3.66799C1084.61 5.95066 1087.74 9.16066 1089.96 13.298C1092.24 17.364 1093.38 22.1077 1093.38 27.529H1078.83C1078.83 23.249 1077.69 19.825 1075.4 17.257C1073.12 14.6177 1070.12 13.298 1066.42 13.298H1055.07C1051.08 13.298 1047.87 14.796 1045.44 17.792C1043.02 20.7167 1041.81 24.5687 1041.81 29.348V47.752C1041.81 52.5313 1042.98 56.419 1045.34 59.415C1047.69 62.3397 1050.79 63.802 1054.65 63.802H1066.2C1069.98 63.802 1073.05 62.3397 1075.4 59.415C1077.83 56.4903 1079.04 52.6383 1079.04 47.859H1093.59C1093.59 53.637 1092.45 58.7373 1090.17 63.16C1087.89 67.5113 1084.68 70.8997 1080.54 73.325C1076.4 75.679 1071.62 76.856 1066.2 76.856H1054.65ZM1101.78 1.09999H1116.54V32.023H1151.42V1.09999H1166.19V76H1151.42V44.863H1116.54V76H1101.78V1.09999ZM1179.95 1.09999H1194.72V54.065H1179.95V1.09999ZM1187.33 77.07C1184.69 77.07 1182.55 76.2853 1180.91 74.716C1179.34 73.0753 1178.56 70.9353 1178.56 68.296C1178.56 65.6567 1179.34 63.5523 1180.91 61.983C1182.55 60.3423 1184.69 59.522 1187.33 59.522C1189.97 59.522 1192.08 60.3423 1193.65 61.983C1195.29 63.5523 1196.11 65.6567 1196.11 68.296C1196.11 70.9353 1195.29 73.0753 1193.65 74.716C1192.08 76.2853 1189.97 77.07 1187.33 77.07Z" fill="url(#paint0_linear)"/>
<defs>
<linearGradient id="paint0_linear" x1="1065.05" y1="116.23" x2="1030.42" y2="-165.793" gradientUnits="userSpaceOnUse">
<stop stop-color="#DEFB48"/>
<stop offset="1" stop-color="#03B3FF"/>
</linearGradient>
</defs>
</svg>
