<svg width="364" height="197" viewBox="0 0 364 197" fill="none" xmlns="http://www.w3.org/2000/svg">
<path d="M8.304 31.9L7.81585 32.7728L8.304 31.9ZM4.256 27.808L3.37045 28.2725L3.37503 28.2813L3.37978 28.2899L4.256 27.808ZM4.256 7.436L3.37644 6.96017L3.37365 6.96541L4.256 7.436ZM8.304 3.3L7.82207 2.42376L7.81585 2.42724L8.304 3.3ZM25.112 3.168L25.5777 2.28308L25.5777 2.28308L25.112 3.168ZM28.984 6.908L28.1128 7.39906L28.1197 7.41089L28.984 6.908ZM30.392 12.496V13.496H31.392V12.496H30.392ZM24.408 12.496H23.408V13.496H24.408V12.496ZM23 8.668L22.2821 9.36414L22.2821 9.36415L23 8.668ZM10.416 9.064L11.1858 9.70238L11.1932 9.6932L10.416 9.064ZM10.372 26.18L9.58568 26.7978L9.59383 26.8082L9.60224 26.8183L10.372 26.18ZM23.176 26.356L22.4397 25.6794L22.4346 25.6848L22.4297 25.6904L23.176 26.356ZM24.672 21.34H25.672V20.34H24.672V21.34ZM16.136 21.34H15.136V22.34H16.136V21.34ZM16.136 16.06V15.06H15.136V16.06H16.136ZM30.656 16.06H31.656V15.06H30.656V16.06ZM29.248 28.028L28.376 27.5385L29.248 28.028ZM25.288 31.944L25.7711 32.8196L25.288 31.944ZM14.288 32.352C12.1762 32.352 10.3539 31.9008 8.79215 31.0272L7.81585 32.7728C9.71539 33.8352 11.8825 34.352 14.288 34.352V32.352ZM8.79215 31.0272C7.2271 30.1519 6.01123 28.9243 5.13222 27.3261L3.37978 28.2899C4.43677 30.2117 5.91957 31.7121 7.81585 32.7728L8.79215 31.0272ZM5.14155 27.3434C4.28844 25.7172 3.848 23.8274 3.848 21.648H1.848C1.848 24.1032 2.34623 26.3201 3.37045 28.2725L5.14155 27.3434ZM3.848 21.648V13.552H1.848V21.648H3.848ZM3.848 13.552C3.848 11.3721 4.28857 9.49992 5.13835 7.90659L3.37365 6.96541C2.34609 8.89207 1.848 11.0972 1.848 13.552H3.848ZM5.13554 7.91182C6.01581 6.28466 7.23141 5.04572 8.79215 4.17276L7.81585 2.42724C5.91526 3.49028 4.43219 5.00867 3.37646 6.96018L5.13554 7.91182ZM8.78592 4.17622C10.3788 3.30014 12.2328 2.848 14.376 2.848V0.848C11.9432 0.848 9.74921 1.36386 7.82208 2.42378L8.78592 4.17622ZM14.376 2.848H19.304V0.848H14.376V2.848ZM19.304 2.848C21.3685 2.848 23.1398 3.26005 24.6463 4.05292L25.5777 2.28308C23.7402 1.31595 21.6395 0.848 19.304 0.848V2.848ZM24.6463 4.05292C26.1517 4.84526 27.3 5.95679 28.1129 7.39901L29.8552 6.41698C28.8494 4.63254 27.4163 3.25074 25.5777 2.28308L24.6463 4.05292ZM28.1197 7.41089C28.9583 8.85227 29.392 10.537 29.392 12.496H31.392C31.392 10.231 30.8871 8.19039 29.8484 6.4051L28.1197 7.41089ZM30.392 11.496H24.408V13.496H30.392V11.496ZM25.408 12.496C25.408 10.7008 24.8688 9.15869 23.7179 7.97185L22.2821 9.36415C23.0086 10.1133 23.408 11.1232 23.408 12.496H25.408ZM23.7179 7.97185C22.5654 6.78338 21.061 6.216 19.304 6.216V8.216C20.5977 8.216 21.5572 8.61662 22.2821 9.36414L23.7179 7.97185ZM19.304 6.216H14.376V8.216H19.304V6.216ZM14.376 6.216C12.4443 6.216 10.8338 6.95858 9.63876 8.4348L11.1932 9.6932C11.9929 8.70542 13.0224 8.216 14.376 8.216V6.216ZM9.64624 8.42566C8.46499 9.85012 7.92 11.6792 7.92 13.816H9.92C9.92 12.0221 10.3723 10.6832 11.1858 9.70234L9.64624 8.42566ZM7.92 13.816V21.384H9.92V13.816H7.92ZM7.92 21.384C7.92 23.5153 8.44718 25.3488 9.58568 26.7978L11.1583 25.5622C10.3608 24.5472 9.92 23.1834 9.92 21.384H7.92ZM9.60224 26.8183C10.7966 28.2586 12.3882 28.984 14.288 28.984V26.984C12.9611 26.984 11.9421 26.5068 11.1418 25.5417L9.60224 26.8183ZM14.288 28.984H19.48V26.984H14.288V28.984ZM19.48 28.984C21.2517 28.984 22.7584 28.3265 23.9223 27.0216L22.4297 25.6904C21.6576 26.5561 20.7003 26.984 19.48 26.984V28.984ZM23.9123 27.0326C25.0959 25.7446 25.672 24.1462 25.672 22.308H23.672C23.672 23.6965 23.2508 24.7967 22.4397 25.6794L23.9123 27.0326ZM25.672 22.308V21.34H23.672V22.308H25.672ZM24.672 20.34H16.136V22.34H24.672V20.34ZM17.136 21.34V16.06H15.136V21.34H17.136ZM16.136 17.06H30.656V15.06H16.136V17.06ZM29.656 16.06V22.308H31.656V16.06H29.656ZM29.656 22.308C29.656 24.2983 29.2213 26.0328 28.376 27.5385L30.12 28.5175C31.152 26.6792 31.656 24.6004 31.656 22.308H29.656ZM28.376 27.5385C27.5298 29.0458 26.3455 30.2184 24.8049 31.0684L25.7711 32.8196C27.6332 31.7922 29.0889 30.3542 30.12 28.5175L28.376 27.5385ZM24.8049 31.0684C23.2682 31.9163 21.5019 32.352 19.48 32.352V34.352C21.7995 34.352 23.9051 33.8491 25.7711 32.8196L24.8049 31.0684ZM19.48 32.352H14.288V34.352H19.48V32.352ZM37.1202 31.856L36.4266 32.5763L37.1202 31.856ZM35.9322 2.2V1.2H34.9322V2.2H35.9322ZM59.4282 2.2H60.4282V1.2H59.4282V2.2ZM59.4282 7.48V8.48H60.4282V7.48H59.4282ZM42.0042 7.48V6.48H41.0042V7.48H42.0042ZM42.0042 14.608H41.0042V15.608H42.0042V14.608ZM58.1082 14.608H59.1082V13.608H58.1082V14.608ZM58.1082 19.888V20.888H59.1082V19.888H58.1082ZM42.0042 19.888V18.888H41.0042V19.888H42.0042ZM42.0042 27.72H41.0042V28.72H42.0042V27.72ZM59.4282 27.72H60.4282V26.72H59.4282V27.72ZM59.4282 33V34H60.4282V33H59.4282ZM40.2002 32C39.1565 32 38.3919 31.6923 37.8139 31.1357L36.4266 32.5763C37.4325 33.545 38.7213 34 40.2002 34V32ZM37.8139 31.1357C37.2421 30.5851 36.9322 29.8602 36.9322 28.864H34.9322C34.9322 30.3318 35.4143 31.6016 36.4266 32.5763L37.8139 31.1357ZM36.9322 28.864V2.2H34.9322V28.864H36.9322ZM35.9322 3.2H59.4282V1.2H35.9322V3.2ZM58.4282 2.2V7.48H60.4282V2.2H58.4282ZM59.4282 6.48H42.0042V8.48H59.4282V6.48ZM41.0042 7.48V14.608H43.0042V7.48H41.0042ZM42.0042 15.608H58.1082V13.608H42.0042V15.608ZM57.1082 14.608V19.888H59.1082V14.608H57.1082ZM58.1082 18.888H42.0042V20.888H58.1082V18.888ZM41.0042 19.888V27.72H43.0042V19.888H41.0042ZM42.0042 28.72H59.4282V26.72H42.0042V28.72ZM58.4282 27.72V33H60.4282V27.72H58.4282ZM59.4282 32H40.2002V34H59.4282V32ZM72.0091 7.48H73.0091V6.48H72.0091V7.48ZM62.2411 7.48H61.2411V8.48H62.2411V7.48ZM62.2411 2.2V1.2H61.2411V2.2H62.2411ZM87.8491 2.2H88.8491V1.2H87.8491V2.2ZM87.8491 7.48V8.48H88.8491V7.48H87.8491ZM78.0811 7.48V6.48H77.0811V7.48H78.0811ZM78.0811 33V34H79.0811V33H78.0811ZM72.0091 33H71.0091V34H72.0091V33ZM72.0091 6.48H62.2411V8.48H72.0091V6.48ZM63.2411 7.48V2.2H61.2411V7.48H63.2411ZM62.2411 3.2H87.8491V1.2H62.2411V3.2ZM86.8491 2.2V7.48H88.8491V2.2H86.8491ZM87.8491 6.48H78.0811V8.48H87.8491V6.48ZM77.0811 7.48V33H79.0811V7.48H77.0811ZM78.0811 32H72.0091V34H78.0811V32ZM73.0091 33V7.48H71.0091V33H73.0091ZM99.5727 7.48H100.573V6.48H99.5727V7.48ZM89.8047 7.48H88.8047V8.48H89.8047V7.48ZM89.8047 2.2V1.2H88.8047V2.2H89.8047ZM115.413 2.2H116.413V1.2H115.413V2.2ZM115.413 7.48V8.48H116.413V7.48H115.413ZM105.645 7.48V6.48H104.645V7.48H105.645ZM105.645 33V34H106.645V33H105.645ZM99.5727 33H98.5727V34H99.5727V33ZM99.5727 6.48H89.8047V8.48H99.5727V6.48ZM90.8047 7.48V2.2H88.8047V7.48H90.8047ZM89.8047 3.2H115.413V1.2H89.8047V3.2ZM114.413 2.2V7.48H116.413V2.2H114.413ZM115.413 6.48H105.645V8.48H115.413V6.48ZM104.645 7.48V33H106.645V7.48H104.645ZM105.645 32H99.5727V34H105.645V32ZM100.573 33V7.48H98.5727V33H100.573ZM120.008 2.2V1.2H119.008V2.2H120.008ZM126.08 2.2H127.08V1.2H126.08V2.2ZM126.08 33V34H127.08V33H126.08ZM120.008 33H119.008V34H120.008V33ZM120.008 3.2H126.08V1.2H120.008V3.2ZM125.08 2.2V33H127.08V2.2H125.08ZM126.08 32H120.008V34H126.08V32ZM121.008 33V2.2H119.008V33H121.008ZM132.866 2.2V1.2H131.866V2.2H132.866ZM138.278 2.2L139.095 1.62331L138.796 1.2H138.278V2.2ZM153.062 23.144L152.245 23.7207L154.062 26.2947V23.144H153.062ZM153.062 2.2V1.2H152.062V2.2H153.062ZM159.002 2.2H160.002V1.2H159.002V2.2ZM159.002 33V34H160.002V33H159.002ZM153.59 33L152.773 33.5767L153.072 34H153.59V33ZM138.806 12.056L139.623 11.4793L137.806 8.90528V12.056H138.806ZM138.806 33V34H139.806V33H138.806ZM132.866 33H131.866V34H132.866V33ZM132.866 3.2H138.278V1.2H132.866V3.2ZM137.461 2.77668L152.245 23.7207L153.879 22.5673L139.095 1.62331L137.461 2.77668ZM154.062 23.144V2.2H152.062V23.144H154.062ZM153.062 3.2H159.002V1.2H153.062V3.2ZM158.002 2.2V33H160.002V2.2H158.002ZM159.002 32H153.59V34H159.002V32ZM154.407 32.4233L139.623 11.4793L137.989 12.6327L152.773 33.5767L154.407 32.4233ZM137.806 12.056V33H139.806V12.056H137.806ZM138.806 32H132.866V34H138.806V32ZM133.866 33V2.2H131.866V33H133.866ZM169.904 31.9L169.416 32.7728L169.904 31.9ZM165.856 27.808L164.971 28.2725L164.975 28.2813L164.98 28.2899L165.856 27.808ZM165.856 7.436L164.977 6.96017L164.974 6.96541L165.856 7.436ZM169.904 3.3L169.422 2.42376L169.416 2.42724L169.904 3.3ZM186.712 3.168L187.178 2.28308V2.28308L186.712 3.168ZM190.584 6.908L189.713 7.39906L189.72 7.41089L190.584 6.908ZM191.992 12.496V13.496H192.992V12.496H191.992ZM186.008 12.496H185.008V13.496H186.008V12.496ZM184.6 8.668L183.882 9.36414V9.36415L184.6 8.668ZM172.016 9.064L172.786 9.70238L172.794 9.6932L172.016 9.064ZM171.972 26.18L171.186 26.7978L171.194 26.8082L171.203 26.8183L171.972 26.18ZM184.776 26.356L184.04 25.6794L184.035 25.6848L184.03 25.6904L184.776 26.356ZM186.272 21.34H187.272V20.34H186.272V21.34ZM177.736 21.34H176.736V22.34H177.736V21.34ZM177.736 16.06V15.06H176.736V16.06H177.736ZM192.256 16.06H193.256V15.06H192.256V16.06ZM190.848 28.028L189.976 27.5385L190.848 28.028ZM186.888 31.944L187.371 32.8196L186.888 31.944ZM175.888 32.352C173.776 32.352 171.954 31.9008 170.392 31.0272L169.416 32.7728C171.316 33.8352 173.483 34.352 175.888 34.352V32.352ZM170.392 31.0272C168.827 30.1519 167.612 28.9243 166.733 27.3261L164.98 28.2899C166.037 30.2117 167.52 31.7121 169.416 32.7728L170.392 31.0272ZM166.742 27.3434C165.889 25.7172 165.448 23.8274 165.448 21.648H163.448C163.448 24.1032 163.947 26.3201 164.971 28.2725L166.742 27.3434ZM165.448 21.648V13.552H163.448V21.648H165.448ZM165.448 13.552C165.448 11.3721 165.889 9.49992 166.739 7.90659L164.974 6.96541C163.946 8.89207 163.448 11.0972 163.448 13.552H165.448ZM166.736 7.91182C167.616 6.28466 168.832 5.04572 170.392 4.17276L169.416 2.42724C167.516 3.49028 166.033 5.00867 164.977 6.96018L166.736 7.91182ZM170.386 4.17622C171.979 3.30014 173.833 2.848 175.976 2.848V0.848C173.544 0.848 171.35 1.36386 169.422 2.42378L170.386 4.17622ZM175.976 2.848H180.904V0.848H175.976V2.848ZM180.904 2.848C182.969 2.848 184.74 3.26005 186.247 4.05292L187.178 2.28308C185.341 1.31595 183.24 0.848 180.904 0.848V2.848ZM186.247 4.05292C187.752 4.84526 188.9 5.95679 189.713 7.39901L191.455 6.41698C190.45 4.63254 189.017 3.25074 187.178 2.28308L186.247 4.05292ZM189.72 7.41089C190.559 8.85227 190.992 10.537 190.992 12.496H192.992C192.992 10.231 192.487 8.19039 191.449 6.4051L189.72 7.41089ZM191.992 11.496H186.008V13.496H191.992V11.496ZM187.008 12.496C187.008 10.7008 186.469 9.15869 185.318 7.97185L183.882 9.36415C184.609 10.1133 185.008 11.1232 185.008 12.496H187.008ZM185.318 7.97185C184.166 6.78338 182.661 6.216 180.904 6.216V8.216C182.198 8.216 183.158 8.61662 183.882 9.36414L185.318 7.97185ZM180.904 6.216H175.976V8.216H180.904V6.216ZM175.976 6.216C174.045 6.216 172.434 6.95858 171.239 8.4348L172.794 9.6932C173.593 8.70542 174.623 8.216 175.976 8.216V6.216ZM171.247 8.42566C170.065 9.85012 169.52 11.6792 169.52 13.816H171.52C171.52 12.0221 171.973 10.6832 172.786 9.70234L171.247 8.42566ZM169.52 13.816V21.384H171.52V13.816H169.52ZM169.52 21.384C169.52 23.5153 170.047 25.3488 171.186 26.7978L172.759 25.5622C171.961 24.5472 171.52 23.1834 171.52 21.384H169.52ZM171.203 26.8183C172.397 28.2586 173.989 28.984 175.888 28.984V26.984C174.561 26.984 173.542 26.5068 172.742 25.5417L171.203 26.8183ZM175.888 28.984H181.08V26.984H175.888V28.984ZM181.08 28.984C182.852 28.984 184.359 28.3265 185.523 27.0216L184.03 25.6904C183.258 26.5561 182.301 26.984 181.08 26.984V28.984ZM185.513 27.0326C186.696 25.7446 187.272 24.1462 187.272 22.308H185.272C185.272 23.6965 184.851 24.7967 184.04 25.6794L185.513 27.0326ZM187.272 22.308V21.34H185.272V22.308H187.272ZM186.272 20.34H177.736V22.34H186.272V20.34ZM178.736 21.34V16.06H176.736V21.34H178.736ZM177.736 17.06H192.256V15.06H177.736V17.06ZM191.256 16.06V22.308H193.256V16.06H191.256ZM191.256 22.308C191.256 24.2983 190.822 26.0328 189.976 27.5385L191.72 28.5175C192.752 26.6792 193.256 24.6004 193.256 22.308H191.256ZM189.976 27.5385C189.13 29.0458 187.946 30.2184 186.405 31.0684L187.371 32.8196C189.233 31.7922 190.689 30.3542 191.72 28.5175L189.976 27.5385ZM186.405 31.0684C184.869 31.9163 183.102 32.352 181.08 32.352V34.352C183.4 34.352 185.505 33.8491 187.371 32.8196L186.405 31.0684ZM181.08 32.352H175.888V34.352H181.08V32.352ZM3.728 56.2V55.2H2.728V56.2H3.728ZM26.784 56.2H27.784V55.2H26.784V56.2ZM26.784 61.48V62.48H27.784V61.48H26.784ZM9.8 61.48V60.48H8.8V61.48H9.8ZM9.8 69.752H8.8V70.752H9.8V69.752ZM25.156 69.752H26.156V68.752H25.156V69.752ZM25.156 75.032V76.032H26.156V75.032H25.156ZM9.8 75.032V74.032H8.8V75.032H9.8ZM9.8 87V88H10.8V87H9.8ZM3.728 87H2.728V88H3.728V87ZM3.728 57.2H26.784V55.2H3.728V57.2ZM25.784 56.2V61.48H27.784V56.2H25.784ZM26.784 60.48H9.8V62.48H26.784V60.48ZM8.8 61.48V69.752H10.8V61.48H8.8ZM9.8 70.752H25.156V68.752H9.8V70.752ZM24.156 69.752V75.032H26.156V69.752H24.156ZM25.156 74.032H9.8V76.032H25.156V74.032ZM8.8 75.032V87H10.8V75.032H8.8ZM9.8 86H3.728V88H9.8V86ZM4.728 87V56.2H2.728V87H4.728ZM45.9371 79.828L46.8736 79.4775L46.6306 78.828H45.9371V79.828ZM34.4091 79.828V78.828H33.7195L33.4744 79.4725L34.4091 79.828ZM31.6811 87V88H32.3706L32.6157 87.3555L31.6811 87ZM25.3451 87L24.4139 86.6355L23.8798 88H25.3451V87ZM37.4011 56.2V55.2H36.7186L36.4699 55.8355L37.4011 56.2ZM44.0011 58.84L43.0673 59.1979L43.0691 59.2026L44.0011 58.84ZM54.9571 87V88H56.4191L55.889 86.6374L54.9571 87ZM48.6211 87L47.6845 87.3505L47.9276 88H48.6211V87ZM36.0371 74.724L35.1001 74.3745L34.5967 75.724H36.0371V74.724ZM44.3091 74.724V75.724H45.744L45.2472 74.3778L44.3091 74.724ZM40.2171 63.636L41.1552 63.2898L40.9139 62.636H40.2171V63.636ZM40.1731 63.636V62.636H39.4788L39.2361 63.2865L40.1731 63.636ZM45.9371 78.828H34.4091V80.828H45.9371V78.828ZM33.4744 79.4725L30.7464 86.6445L32.6157 87.3555L35.3437 80.1835L33.4744 79.4725ZM31.6811 86H25.3451V88H31.6811V86ZM26.2763 87.3645L38.3323 56.5645L36.4699 55.8355L24.4139 86.6355L26.2763 87.3645ZM37.4011 57.2H40.1291V55.2H37.4011V57.2ZM40.1291 57.2C40.9263 57.2 41.518 57.3823 41.9637 57.6862C42.4086 57.9895 42.7876 58.4681 43.0673 59.1979L44.9348 58.4821C44.5399 57.4519 43.9362 56.6105 43.0904 56.0338C42.2455 55.4577 41.2385 55.2 40.1291 55.2V57.2ZM43.0691 59.2026L54.0251 87.3626L55.889 86.6374L44.933 58.4774L43.0691 59.2026ZM54.9571 86H48.6211V88H54.9571V86ZM49.5576 86.6495L46.8736 79.4775L45.0005 80.1785L47.6845 87.3505L49.5576 86.6495ZM36.0371 75.724H44.3091V73.724H36.0371V75.724ZM45.2472 74.3778L41.1552 63.2898L39.2789 63.9822L43.3709 75.0702L45.2472 74.3778ZM40.2171 62.636H40.1731V64.636H40.2171V62.636ZM39.2361 63.2865L35.1001 74.3745L36.974 75.0735L41.11 63.9855L39.2361 63.2865ZM58.7263 56.2V55.2H57.7263V56.2H58.7263ZM64.1383 56.2L65.0143 55.7178L64.7293 55.2H64.1383V56.2ZM74.2143 74.504L73.3382 74.9862L74.224 76.5953L75.0947 74.9781L74.2143 74.504ZM84.0703 56.2V55.2H83.473L83.1898 55.7259L84.0703 56.2ZM89.4823 56.2H90.4823V55.2H89.4823V56.2ZM89.4823 87V88H90.4823V87H89.4823ZM83.5423 87H82.5423V88H83.5423V87ZM83.5423 67.508H84.5423L82.667 67.0243L83.5423 67.508ZM77.0743 79.212L77.9484 79.6976L77.9495 79.6957L77.0743 79.212ZM75.7103 80.928L76.3017 81.7345L76.3103 81.728L75.7103 80.928ZM72.4983 81.412L71.627 81.9028L71.9138 82.412H72.4983V81.412ZM64.6663 67.508L65.5376 67.0172L63.6663 63.6952V67.508H64.6663ZM64.6663 87V88H65.6663V87H64.6663ZM58.7263 87H57.7263V88H58.7263V87ZM58.7263 57.2H64.1383V55.2H58.7263V57.2ZM63.2622 56.6822L73.3382 74.9862L75.0903 74.0218L65.0143 55.7178L63.2622 56.6822ZM75.0947 74.9781L84.9508 56.6741L83.1898 55.7259L73.3338 74.0299L75.0947 74.9781ZM84.0703 57.2H89.4823V55.2H84.0703V57.2ZM88.4823 56.2V87H90.4823V56.2H88.4823ZM89.4823 86H83.5423V88H89.4823V86ZM84.5423 87V67.508H82.5423V87H84.5423ZM82.667 67.0243L76.199 78.7283L77.9495 79.6957L84.4175 67.9917L82.667 67.0243ZM76.2001 78.7264C75.795 79.4556 75.4228 79.8936 75.1103 80.128L76.3103 81.728C76.9365 81.2584 77.4736 80.5524 77.9484 79.6976L76.2001 78.7264ZM75.1189 80.1216C74.8636 80.3088 74.5612 80.412 74.1703 80.412V82.412C74.9527 82.412 75.6769 82.1925 76.3016 81.7344L75.1189 80.1216ZM74.1703 80.412H72.4983V82.412H74.1703V80.412ZM73.3696 80.9212L65.5376 67.0172L63.795 67.9988L71.627 81.9028L73.3696 80.9212ZM63.6663 67.508V87H65.6663V67.508H63.6663ZM64.6663 86H58.7263V88H64.6663V86ZM59.7263 87V56.2H57.7263V87H59.7263ZM96.2689 56.2V55.2H95.2689V56.2H96.2689ZM102.341 56.2H103.341V55.2H102.341V56.2ZM102.341 87V88H103.341V87H102.341ZM96.2689 87H95.2689V88H96.2689V87ZM96.2689 57.2H102.341V55.2H96.2689V57.2ZM101.341 56.2V87H103.341V56.2H101.341ZM102.341 86H96.2689V88H102.341V86ZM97.2689 87V56.2H95.2689V87H97.2689ZM110.271 85.9L109.564 86.6071L109.577 86.6207L109.591 86.6338L110.271 85.9ZM109.127 56.2V55.2H108.127V56.2H109.127ZM115.199 56.2H116.199V55.2H115.199V56.2ZM115.199 81.72H114.199V82.72H115.199V81.72ZM131.919 81.72H132.919V80.72H131.919V81.72ZM131.919 87V88H132.919V87H131.919ZM113.395 86C112.304 86 111.522 85.696 110.95 85.1662L109.591 86.6338C110.603 87.5707 111.905 88 113.395 88V86ZM110.978 85.1929C110.43 84.6449 110.127 83.9158 110.127 82.908H108.127C108.127 84.3642 108.586 85.6298 109.564 86.6071L110.978 85.1929ZM110.127 82.908V56.2H108.127V82.908H110.127ZM109.127 57.2H115.199V55.2H109.127V57.2ZM114.199 56.2V81.72H116.199V56.2H114.199ZM115.199 82.72H131.919V80.72H115.199V82.72ZM130.919 81.72V87H132.919V81.72H130.919ZM131.919 86H113.395V88H131.919V86ZM136.314 56.2V55.2H135.314V56.2H136.314ZM142.386 56.2H143.386V55.2H142.386V56.2ZM142.386 87V88H143.386V87H142.386ZM136.314 87H135.314V88H136.314V87ZM136.314 57.2H142.386V55.2H136.314V57.2ZM141.386 56.2V87H143.386V56.2H141.386ZM142.386 86H136.314V88H142.386V86ZM137.314 87V56.2H135.314V87H137.314ZM167.212 79.828L168.149 79.4775L167.906 78.828H167.212V79.828ZM155.684 79.828V78.828H154.995L154.749 79.4725L155.684 79.828ZM152.956 87V88H153.646L153.891 87.3555L152.956 87ZM146.62 87L145.689 86.6355L145.155 88H146.62V87ZM158.676 56.2V55.2H157.994L157.745 55.8355L158.676 56.2ZM165.276 58.84L164.342 59.1979L164.344 59.2026L165.276 58.84ZM176.232 87V88H177.694L177.164 86.6374L176.232 87ZM169.896 87L168.96 87.3505L169.203 88H169.896V87ZM157.312 74.724L156.375 74.3745L155.872 75.724H157.312V74.724ZM165.584 74.724V75.724H167.019L166.522 74.3778L165.584 74.724ZM161.492 63.636L162.43 63.2898L162.189 62.636H161.492V63.636ZM161.448 63.636V62.636H160.754L160.511 63.2865L161.448 63.636ZM167.212 78.828H155.684V80.828H167.212V78.828ZM154.749 79.4725L152.021 86.6445L153.891 87.3555L156.619 80.1835L154.749 79.4725ZM152.956 86H146.62V88H152.956V86ZM147.551 87.3645L159.607 56.5645L157.745 55.8355L145.689 86.6355L147.551 87.3645ZM158.676 57.2H161.404V55.2H158.676V57.2ZM161.404 57.2C162.201 57.2 162.793 57.3823 163.239 57.6862C163.684 57.9895 164.063 58.4681 164.342 59.1979L166.21 58.4821C165.815 57.4519 165.211 56.6105 164.365 56.0338C163.52 55.4577 162.514 55.2 161.404 55.2V57.2ZM164.344 59.2026L175.3 87.3626L177.164 86.6374L166.208 58.4774L164.344 59.2026ZM176.232 86H169.896V88H176.232V86ZM170.833 86.6495L168.149 79.4775L166.275 80.1785L168.96 87.3505L170.833 86.6495ZM157.312 75.724H165.584V73.724H157.312V75.724ZM166.522 74.3778L162.43 63.2898L160.554 63.9822L164.646 75.0702L166.522 74.3778ZM161.492 62.636H161.448V64.636H161.492V62.636ZM160.511 63.2865L156.375 74.3745L158.249 75.0735L162.385 63.9855L160.511 63.2865ZM180.001 56.2V55.2H179.001V56.2H180.001ZM202.793 58.356L202.128 59.1027L202.135 59.1086L202.793 58.356ZM203.937 71.116L203.145 70.5063L203.142 70.5093L203.937 71.116ZM200.197 73.668L199.861 72.7263L199.197 72.9633V73.668H200.197ZM200.197 73.756H199.197V74.2959L199.649 74.592L200.197 73.756ZM202.309 75.868L201.449 76.3778L201.456 76.3894L201.463 76.4008L202.309 75.868ZM203.761 79.168L204.715 78.8679L204.713 78.8598L204.71 78.8518L203.761 79.168ZM206.225 87V88H207.588L207.179 86.6999L206.225 87ZM199.933 87L198.981 87.3042L199.203 88H199.933V87ZM197.601 79.696L196.644 79.9854L196.646 79.9928L196.649 80.0002L197.601 79.696ZM196.017 76.88L195.343 77.6185L196.017 76.88ZM186.073 75.956V74.956H185.073V75.956H186.073ZM186.073 87V88H187.073V87H186.073ZM180.001 87H179.001V88H180.001V87ZM198.129 69.752L198.805 70.4892L198.813 70.4817L198.821 70.474L198.129 69.752ZM198.393 62.272L197.686 62.9791L197.696 62.9892L197.707 62.999L198.393 62.272ZM186.073 61.48V60.48H185.073V61.48H186.073ZM186.073 70.72H185.073V71.72H186.073V70.72ZM180.001 57.2H196.369V55.2H180.001V57.2ZM196.369 57.2C198.854 57.2 200.738 57.8645 202.128 59.1027L203.458 57.6093C201.622 55.9728 199.224 55.2 196.369 55.2V57.2ZM202.135 59.1086C203.543 60.3405 204.257 61.9492 204.257 64.032H206.257C206.257 61.4214 205.329 59.2462 203.452 57.6034L202.135 59.1086ZM204.257 64.032V67.112H206.257V64.032H204.257ZM204.257 67.112C204.257 68.4302 203.882 69.5474 203.145 70.5063L204.73 71.7257C205.752 70.3966 206.257 68.8445 206.257 67.112H204.257ZM203.142 70.5093C202.435 71.4367 201.366 72.1887 199.861 72.7263L200.534 74.6097C202.314 73.9739 203.739 73.0247 204.732 71.7227L203.142 70.5093ZM199.197 73.668V73.756H201.197V73.668H199.197ZM199.649 74.592C200.487 75.1425 201.073 75.7425 201.449 76.3778L203.17 75.3582C202.607 74.4095 201.784 73.6015 200.746 72.92L199.649 74.592ZM201.463 76.4008C201.902 77.0974 202.356 78.1135 202.813 79.4842L204.71 78.8518C204.228 77.4065 203.714 76.2225 203.156 75.3352L201.463 76.4008ZM202.807 79.4681L205.271 87.3001L207.179 86.6999L204.715 78.8679L202.807 79.4681ZM206.225 86H199.933V88H206.225V86ZM200.886 86.6958L198.554 79.3918L196.649 80.0002L198.981 87.3042L200.886 86.6958ZM198.559 79.4066C198.147 78.0447 197.546 76.9212 196.692 76.1415L195.343 77.6185C195.838 78.0708 196.293 78.8246 196.644 79.9854L198.559 79.4066ZM196.692 76.1415C195.815 75.3412 194.731 74.956 193.509 74.956V76.956C194.282 76.956 194.87 77.1868 195.343 77.6185L196.692 76.1415ZM193.509 74.956H186.073V76.956H193.509V74.956ZM185.073 75.956V87H187.073V75.956H185.073ZM186.073 86H180.001V88H186.073V86ZM181.001 87V56.2H179.001V87H181.001ZM195.225 71.72C196.633 71.72 197.868 71.3481 198.805 70.4892L197.454 69.0148C196.983 69.4466 196.282 69.72 195.225 69.72V71.72ZM198.821 70.474C199.739 69.594 200.185 68.4595 200.185 67.156H198.185C198.185 67.9645 197.927 68.5607 197.437 69.03L198.821 70.474ZM200.185 67.156V64.296H198.185V67.156H200.185ZM200.185 64.296C200.185 63.2215 199.842 62.2651 199.08 61.545L197.707 62.999C198 63.2762 198.185 63.6692 198.185 64.296H200.185ZM199.1 61.5649C198.352 60.8162 197.376 60.48 196.281 60.48V62.48C196.947 62.48 197.379 62.6718 197.686 62.9791L199.1 61.5649ZM196.281 60.48H186.073V62.48H196.281V60.48ZM185.073 61.48V70.72H187.073V61.48H185.073ZM186.073 71.72H195.225V69.72H186.073V71.72ZM227.689 83.568L226.709 83.7635L226.71 83.7684L227.689 83.568ZM222.233 56.2V55.2H221.014L221.253 56.3955L222.233 56.2ZM228.393 56.2L229.379 56.0295L229.235 55.2H228.393V56.2ZM232.177 78.068L231.192 78.2385L231.336 79.068H232.177V78.068ZM232.265 78.068V79.068H232.999L233.219 78.3686L232.265 78.068ZM238.645 57.828V56.828H237.912L237.692 57.5274L238.645 57.828ZM242.737 58.4L242.152 59.2107L242.162 59.2181L242.173 59.2253L242.737 58.4ZM244.013 60.468L243.054 60.7502L243.057 60.7604L244.013 60.468ZM249.381 78.024L248.425 78.3164L248.641 79.024H249.381V78.024ZM249.469 78.024V79.024H250.311L250.455 78.1948L249.469 78.024ZM253.253 56.2V55.2H252.412L252.268 56.0292L253.253 56.2ZM259.413 56.2L260.394 56.397L260.634 55.2H259.413V56.2ZM253.913 83.568L252.933 83.371L252.933 83.3719L253.913 83.568ZM252.593 86.164L251.94 85.4072L251.931 85.4147L251.922 85.4225L252.593 86.164ZM247.489 87L246.534 87.2965L246.753 88H247.489V87ZM240.933 65.88L241.888 65.5835L241.67 64.88H240.933V65.88ZM240.845 65.88V64.88H240.113L239.892 65.5781L240.845 65.88ZM234.157 87V88H234.89L235.111 87.3019L234.157 87ZM231.605 86C230.78 86 230.164 85.7966 229.692 85.4478L228.503 87.0562C229.38 87.7047 230.436 88 231.605 88V86ZM229.692 85.4478C229.302 85.1599 228.911 84.5481 228.669 83.3676L226.71 83.7684C226.996 85.1692 227.543 86.3467 228.503 87.0562L229.692 85.4478ZM228.67 83.3725L223.214 56.0045L221.253 56.3955L226.709 83.7635L228.67 83.3725ZM222.233 57.2H228.393V55.2H222.233V57.2ZM227.408 56.3705L231.192 78.2385L233.163 77.8975L229.379 56.0295L227.408 56.3705ZM232.177 79.068H232.265V77.068H232.177V79.068ZM233.219 78.3686L239.599 58.1286L237.692 57.5274L231.312 77.7674L233.219 78.3686ZM238.645 58.828H240.845V56.828H238.645V58.828ZM240.845 58.828C241.396 58.828 241.815 58.9677 242.152 59.2107L243.323 57.5893C242.603 57.0697 241.761 56.828 240.845 56.828V58.828ZM242.173 59.2253C242.461 59.4226 242.792 59.8606 243.054 60.7502L244.973 60.1858C244.648 59.0808 244.128 58.1401 243.302 57.5747L242.173 59.2253ZM243.057 60.7604L248.425 78.3164L250.338 77.7316L244.97 60.1756L243.057 60.7604ZM249.381 79.024H249.469V77.024H249.381V79.024ZM250.455 78.1948L254.239 56.3708L252.268 56.0292L248.484 77.8532L250.455 78.1948ZM253.253 57.2H259.413V55.2H253.253V57.2ZM258.433 56.003L252.933 83.371L254.894 83.765L260.394 56.397L258.433 56.003ZM252.933 83.3719C252.725 84.4133 252.361 85.0437 251.94 85.4072L253.247 86.9208C254.117 86.1696 254.633 85.0694 254.894 83.7641L252.933 83.3719ZM251.922 85.4225C251.541 85.7677 250.957 86 250.041 86V88C251.297 88 252.414 87.675 253.264 86.9055L251.922 85.4225ZM250.041 86H247.489V88H250.041V86ZM248.444 86.7035L241.888 65.5835L239.978 66.1765L246.534 87.2965L248.444 86.7035ZM240.933 64.88H240.845V66.88H240.933V64.88ZM239.892 65.5781L233.204 86.6981L235.111 87.3019L241.799 66.1819L239.892 65.5781ZM234.157 86H231.605V88H234.157V86ZM264.163 56.2V55.2H263.163V56.2H264.163ZM270.235 56.2H271.235V55.2H270.235V56.2ZM270.235 87V88H271.235V87H270.235ZM264.163 87H263.163V88H264.163V87ZM264.163 57.2H270.235V55.2H264.163V57.2ZM269.235 56.2V87H271.235V56.2H269.235ZM270.235 86H264.163V88H270.235V86ZM265.163 87V56.2H263.163V87H265.163ZM284.589 61.48H285.589V60.48H284.589V61.48ZM274.821 61.48H273.821V62.48H274.821V61.48ZM274.821 56.2V55.2H273.821V56.2H274.821ZM300.429 56.2H301.429V55.2H300.429V56.2ZM300.429 61.48V62.48H301.429V61.48H300.429ZM290.661 61.48V60.48H289.661V61.48H290.661ZM290.661 87V88H291.661V87H290.661ZM284.589 87H283.589V88H284.589V87ZM284.589 60.48H274.821V62.48H284.589V60.48ZM275.821 61.48V56.2H273.821V61.48H275.821ZM274.821 57.2H300.429V55.2H274.821V57.2ZM299.429 56.2V61.48H301.429V56.2H299.429ZM300.429 60.48H290.661V62.48H300.429V60.48ZM289.661 61.48V87H291.661V61.48H289.661ZM290.661 86H284.589V88H290.661V86ZM285.589 87V61.48H283.589V87H285.589ZM304.585 56.2V55.2H303.585V56.2H304.585ZM310.657 56.2H311.657V55.2H310.657V56.2ZM310.657 68.916H309.657V69.916H310.657V68.916ZM325.001 68.916V69.916H326.001V68.916H325.001ZM325.001 56.2V55.2H324.001V56.2H325.001ZM331.073 56.2H332.073V55.2H331.073V56.2ZM331.073 87V88H332.073V87H331.073ZM325.001 87H324.001V88H325.001V87ZM325.001 74.196H326.001V73.196H325.001V74.196ZM310.657 74.196V73.196H309.657V74.196H310.657ZM310.657 87V88H311.657V87H310.657ZM304.585 87H303.585V88H304.585V87ZM304.585 57.2H310.657V55.2H304.585V57.2ZM309.657 56.2V68.916H311.657V56.2H309.657ZM310.657 69.916H325.001V67.916H310.657V69.916ZM326.001 68.916V56.2H324.001V68.916H326.001ZM325.001 57.2H331.073V55.2H325.001V57.2ZM330.073 56.2V87H332.073V56.2H330.073ZM331.073 86H325.001V88H331.073V86ZM326.001 87V74.196H324.001V87H326.001ZM325.001 73.196H310.657V75.196H325.001V73.196ZM309.657 74.196V87H311.657V74.196H309.657ZM310.657 86H304.585V88H310.657V86ZM305.585 87V56.2H303.585V87H305.585ZM11.296 115.48H12.296V114.48H11.296V115.48ZM1.528 115.48H0.528V116.48H1.528V115.48ZM1.528 110.2V109.2H0.528V110.2H1.528ZM27.136 110.2H28.136V109.2H27.136V110.2ZM27.136 115.48V116.48H28.136V115.48H27.136ZM17.368 115.48V114.48H16.368V115.48H17.368ZM17.368 141V142H18.368V141H17.368ZM11.296 141H10.296V142H11.296V141ZM11.296 114.48H1.528V116.48H11.296V114.48ZM2.528 115.48V110.2H0.528V115.48H2.528ZM1.528 111.2H27.136V109.2H1.528V111.2ZM26.136 110.2V115.48H28.136V110.2H26.136ZM27.136 114.48H17.368V116.48H27.136V114.48ZM16.368 115.48V141H18.368V115.48H16.368ZM17.368 140H11.296V142H17.368V140ZM12.296 141V115.48H10.296V141H12.296ZM31.2916 110.2V109.2H30.2916V110.2H31.2916ZM37.3636 110.2H38.3636V109.2H37.3636V110.2ZM37.3636 122.916H36.3636V123.916H37.3636V122.916ZM51.7076 122.916V123.916H52.7076V122.916H51.7076ZM51.7076 110.2V109.2H50.7076V110.2H51.7076ZM57.7796 110.2H58.7796V109.2H57.7796V110.2ZM57.7796 141V142H58.7796V141H57.7796ZM51.7076 141H50.7076V142H51.7076V141ZM51.7076 128.196H52.7076V127.196H51.7076V128.196ZM37.3636 128.196V127.196H36.3636V128.196H37.3636ZM37.3636 141V142H38.3636V141H37.3636ZM31.2916 141H30.2916V142H31.2916V141ZM31.2916 111.2H37.3636V109.2H31.2916V111.2ZM36.3636 110.2V122.916H38.3636V110.2H36.3636ZM37.3636 123.916H51.7076V121.916H37.3636V123.916ZM52.7076 122.916V110.2H50.7076V122.916H52.7076ZM51.7076 111.2H57.7796V109.2H51.7076V111.2ZM56.7796 110.2V141H58.7796V110.2H56.7796ZM57.7796 140H51.7076V142H57.7796V140ZM52.7076 141V128.196H50.7076V141H52.7076ZM51.7076 127.196H37.3636V129.196H51.7076V127.196ZM36.3636 128.196V141H38.3636V128.196H36.3636ZM37.3636 140H31.2916V142H37.3636V140ZM32.2916 141V110.2H30.2916V141H32.2916ZM65.2854 139.856L64.5917 140.576L65.2854 139.856ZM64.0974 110.2V109.2H63.0974V110.2H64.0974ZM87.5934 110.2H88.5934V109.2H87.5934V110.2ZM87.5934 115.48V116.48H88.5934V115.48H87.5934ZM70.1694 115.48V114.48H69.1694V115.48H70.1694ZM70.1694 122.608H69.1694V123.608H70.1694V122.608ZM86.2734 122.608H87.2734V121.608H86.2734V122.608ZM86.2734 127.888V128.888H87.2734V127.888H86.2734ZM70.1694 127.888V126.888H69.1694V127.888H70.1694ZM70.1694 135.72H69.1694V136.72H70.1694V135.72ZM87.5934 135.72H88.5934V134.72H87.5934V135.72ZM87.5934 141V142H88.5934V141H87.5934ZM68.3654 140C67.3216 140 66.5571 139.692 65.979 139.136L64.5917 140.576C65.5977 141.545 66.8864 142 68.3654 142V140ZM65.979 139.136C65.4073 138.585 65.0974 137.86 65.0974 136.864H63.0974C63.0974 138.332 63.5795 139.602 64.5917 140.576L65.979 139.136ZM65.0974 136.864V110.2H63.0974V136.864H65.0974ZM64.0974 111.2H87.5934V109.2H64.0974V111.2ZM86.5934 110.2V115.48H88.5934V110.2H86.5934ZM87.5934 114.48H70.1694V116.48H87.5934V114.48ZM69.1694 115.48V122.608H71.1694V115.48H69.1694ZM70.1694 123.608H86.2734V121.608H70.1694V123.608ZM85.2734 122.608V127.888H87.2734V122.608H85.2734ZM86.2734 126.888H70.1694V128.888H86.2734V126.888ZM69.1694 127.888V135.72H71.1694V127.888H69.1694ZM70.1694 136.72H87.5934V134.72H70.1694V136.72ZM86.5934 135.72V141H88.5934V135.72H86.5934ZM87.5934 140H68.3654V142H87.5934V140ZM110.65 139.9L110.156 140.769L110.162 140.773L110.65 139.9ZM106.69 135.808L105.804 136.273L105.808 136.279L106.69 135.808ZM106.69 115.436L105.811 114.96L105.808 114.965L106.69 115.436ZM110.738 111.3L110.256 110.424L110.25 110.427L110.738 111.3ZM127.282 111.256L127.772 110.384L127.282 111.256ZM131.154 115.216L130.272 115.687L130.277 115.697L130.282 115.706L131.154 115.216ZM132.562 121.068V122.068H133.562V121.068H132.562ZM126.578 121.068H125.578V122.068H126.578V121.068ZM125.17 116.844L124.414 117.498L124.423 117.508L125.17 116.844ZM112.85 117.064L113.62 117.702L113.627 117.693L112.85 117.064ZM112.806 134.18L112.02 134.798L112.027 134.807L112.806 134.18ZM125.17 134.18L124.4 133.542L124.396 133.547L124.391 133.553L125.17 134.18ZM126.666 129.428V128.428H125.666V129.428H126.666ZM132.65 129.428H133.65V128.428H132.65V129.428ZM131.242 135.72L132.128 136.185L132.131 136.179L131.242 135.72ZM127.282 139.9L127.777 140.769L127.788 140.763L127.282 139.9ZM116.634 140.352C114.522 140.352 112.7 139.901 111.138 139.027L110.162 140.773C112.061 141.835 114.229 142.352 116.634 142.352V140.352ZM111.145 139.031C109.611 138.158 108.424 136.934 107.572 135.337L105.808 136.279C106.834 138.202 108.287 139.706 110.156 140.769L111.145 139.031ZM107.576 135.343C106.722 133.717 106.282 131.827 106.282 129.648H104.282C104.282 132.103 104.78 134.32 105.805 136.273L107.576 135.343ZM106.282 129.648V121.552H104.282V129.648H106.282ZM106.282 121.552C106.282 119.372 106.723 117.5 107.572 115.907L105.808 114.965C104.78 116.892 104.282 119.097 104.282 121.552H106.282ZM107.57 115.912C108.45 114.285 109.665 113.046 111.226 112.173L110.25 110.427C108.349 111.49 106.866 113.009 105.811 114.96L107.57 115.912ZM111.22 112.176C112.813 111.3 114.667 110.848 116.81 110.848V108.848C114.377 108.848 112.183 109.364 110.256 110.424L111.22 112.176ZM116.81 110.848H121.474V108.848H116.81V110.848ZM121.474 110.848C123.528 110.848 125.291 111.285 126.793 112.128L127.772 110.384C125.929 109.35 123.82 108.848 121.474 108.848V110.848ZM126.793 112.128C128.297 112.973 129.452 114.153 130.272 115.687L132.036 114.745C131.037 112.876 129.611 111.417 127.772 110.384L126.793 112.128ZM130.282 115.706C131.124 117.205 131.562 118.982 131.562 121.068H133.562C133.562 118.695 133.061 116.571 132.026 114.726L130.282 115.706ZM132.562 120.068H126.578V122.068H132.562V120.068ZM127.578 121.068C127.578 119.126 127.056 117.461 125.917 116.18L124.423 117.508C125.161 118.339 125.578 119.49 125.578 121.068H127.578ZM125.926 116.19C124.785 114.87 123.269 114.216 121.474 114.216V116.216C122.73 116.216 123.678 116.648 124.414 117.498L125.926 116.19ZM121.474 114.216H116.81V116.216H121.474V114.216ZM116.81 114.216C114.878 114.216 113.268 114.959 112.073 116.435L113.627 117.693C114.427 116.705 115.456 116.216 116.81 116.216V114.216ZM112.08 116.426C110.899 117.85 110.354 119.679 110.354 121.816H112.354C112.354 120.022 112.806 118.683 113.62 117.702L112.08 116.426ZM110.354 121.816V129.384H112.354V121.816H110.354ZM110.354 129.384C110.354 131.515 110.881 133.349 112.02 134.798L113.592 133.562C112.795 132.547 112.354 131.183 112.354 129.384H110.354ZM112.027 134.807C113.191 136.253 114.756 136.984 116.634 136.984V134.984C115.344 134.984 114.358 134.513 113.585 133.553L112.027 134.807ZM116.634 136.984H121.386V134.984H116.634V136.984ZM121.386 136.984C123.241 136.984 124.79 136.247 125.949 134.807L124.391 133.553C123.614 134.518 122.64 134.984 121.386 134.984V136.984ZM125.94 134.818C127.121 133.394 127.666 131.565 127.666 129.428H125.666C125.666 131.222 125.214 132.561 124.4 133.542L125.94 134.818ZM126.666 130.428H132.65V128.428H126.666V130.428ZM131.65 129.428C131.65 131.67 131.208 133.606 130.353 135.261L132.131 136.179C133.153 134.197 133.65 131.938 133.65 129.428H131.65ZM130.357 135.255C129.502 136.883 128.312 138.137 126.776 139.037L127.788 140.763C129.655 139.668 131.104 138.135 132.128 136.185L130.357 135.255ZM126.788 139.031C125.257 139.902 123.466 140.352 121.386 140.352V142.352C123.764 142.352 125.905 141.834 127.777 140.769L126.788 139.031ZM121.386 140.352H116.634V142.352H121.386V140.352ZM142.043 139.9L141.55 140.77L141.559 140.775L141.567 140.78L142.043 139.9ZM137.907 135.764L137.027 136.24L137.032 136.248L137.037 136.257L137.907 135.764ZM137.907 115.48L137.034 114.993L137.031 114.998L137.907 115.48ZM142.043 111.344L142.525 112.22L142.53 112.217L142.043 111.344ZM158.983 111.344L158.49 112.214L158.499 112.219L158.507 112.224L158.983 111.344ZM163.119 115.48L162.239 115.956L162.244 115.964L162.249 115.973L163.119 115.48ZM163.119 135.764L162.246 135.277L162.243 135.282L163.119 135.764ZM158.983 139.9L159.465 140.776L159.47 140.773L158.983 139.9ZM156.959 134.136L156.2 133.485L156.191 133.496L156.959 134.136ZM156.959 117.064L156.191 117.704L156.2 117.715L156.959 117.064ZM144.067 117.064L143.308 116.413L143.299 116.424L144.067 117.064ZM144.067 134.136L143.299 134.776L143.308 134.787L144.067 134.136ZM148.203 140.352C146.028 140.352 144.143 139.899 142.519 139.02L141.567 140.78C143.522 141.837 145.743 142.352 148.203 142.352V140.352ZM142.536 139.03C140.934 138.122 139.685 136.874 138.777 135.271L137.037 136.257C138.124 138.174 139.633 139.683 141.55 140.77L142.536 139.03ZM138.787 135.288C137.909 133.666 137.455 131.766 137.455 129.56H135.455C135.455 132.047 135.969 134.283 137.027 136.24L138.787 135.288ZM137.455 129.56V121.64H135.455V129.56H137.455ZM137.455 121.64C137.455 119.433 137.909 117.551 138.783 115.962L137.031 114.998C135.969 116.929 135.455 119.153 135.455 121.64H137.455ZM138.781 115.967C139.688 114.338 140.933 113.096 142.525 112.22L141.561 110.468C139.633 111.528 138.12 113.043 137.034 114.993L138.781 115.967ZM142.53 112.217C144.152 111.314 146.033 110.848 148.203 110.848V108.848C145.738 108.848 143.513 109.38 141.556 110.471L142.53 112.217ZM148.203 110.848H152.867V108.848H148.203V110.848ZM152.867 110.848C155.037 110.848 156.901 111.314 158.49 112.214L159.476 110.474C157.545 109.38 155.332 108.848 152.867 108.848V110.848ZM158.507 112.224C160.126 113.099 161.364 114.337 162.239 115.956L163.999 115.004C162.938 113.044 161.419 111.525 159.459 110.464L158.507 112.224ZM162.249 115.973C163.148 117.56 163.615 119.438 163.615 121.64H165.615C165.615 119.148 165.084 116.92 163.989 114.987L162.249 115.973ZM163.615 121.64V129.56H165.615V121.64H163.615ZM163.615 129.56C163.615 131.761 163.148 133.657 162.246 135.277L163.993 136.251C165.084 134.292 165.615 132.052 165.615 129.56H163.615ZM162.243 135.282C161.367 136.874 160.125 138.119 158.496 139.027L159.47 140.773C161.42 139.687 162.935 138.174 163.995 136.246L162.243 135.282ZM158.501 139.024C156.91 139.899 155.042 140.352 152.867 140.352V142.352C155.327 142.352 157.536 141.837 159.465 140.776L158.501 139.024ZM152.867 140.352H148.203V142.352H152.867V140.352ZM152.867 136.984C154.844 136.984 156.498 136.252 157.727 134.776L156.191 133.496C155.367 134.484 154.292 134.984 152.867 134.984V136.984ZM157.718 134.787C158.963 133.335 159.543 131.473 159.543 129.296H157.543C157.543 131.109 157.067 132.473 156.2 133.485L157.718 134.787ZM159.543 129.296V121.904H157.543V129.296H159.543ZM159.543 121.904C159.543 119.727 158.963 117.865 157.718 116.413L156.2 117.715C157.067 118.727 157.543 120.091 157.543 121.904H159.543ZM157.727 116.424C156.498 114.948 154.844 114.216 152.867 114.216V116.216C154.292 116.216 155.367 116.716 156.191 117.704L157.727 116.424ZM152.867 114.216H148.203V116.216H152.867V114.216ZM148.203 114.216C146.226 114.216 144.564 114.948 143.308 116.413L144.826 117.715C145.682 116.716 146.777 116.216 148.203 116.216V114.216ZM143.299 116.424C142.089 117.876 141.527 119.734 141.527 121.904H143.527C143.527 120.085 143.992 118.716 144.835 117.704L143.299 116.424ZM141.527 121.904V129.296H143.527V121.904H141.527ZM141.527 129.296C141.527 131.466 142.089 133.324 143.299 134.776L144.835 133.496C143.992 132.484 143.527 131.115 143.527 129.296H141.527ZM143.308 134.787C144.564 136.252 146.226 136.984 148.203 136.984V134.984C146.777 134.984 145.682 134.484 144.826 133.485L143.308 134.787ZM148.203 136.984H152.867V134.984H148.203V136.984ZM170.055 110.2V109.2H169.055V110.2H170.055ZM175.467 110.2L176.343 109.718L176.058 109.2H175.467V110.2ZM185.543 128.504L184.667 128.986L185.553 130.595L186.423 128.978L185.543 128.504ZM195.399 110.2V109.2H194.802L194.518 109.726L195.399 110.2ZM200.811 110.2H201.811V109.2H200.811V110.2ZM200.811 141V142H201.811V141H200.811ZM194.871 141H193.871V142H194.871V141ZM194.871 121.508H195.871L193.996 121.024L194.871 121.508ZM188.403 133.212L189.277 133.698L189.278 133.696L188.403 133.212ZM187.039 134.928L187.63 135.734L187.639 135.728L187.039 134.928ZM183.827 135.412L182.956 135.903L183.242 136.412H183.827V135.412ZM175.995 121.508L176.866 121.017L174.995 117.695V121.508H175.995ZM175.995 141V142H176.995V141H175.995ZM170.055 141H169.055V142H170.055V141ZM170.055 111.2H175.467V109.2H170.055V111.2ZM174.591 110.682L184.667 128.986L186.419 128.022L176.343 109.718L174.591 110.682ZM186.423 128.978L196.279 110.674L194.518 109.726L184.662 128.03L186.423 128.978ZM195.399 111.2H200.811V109.2H195.399V111.2ZM199.811 110.2V141H201.811V110.2H199.811ZM200.811 140H194.871V142H200.811V140ZM195.871 141V121.508H193.871V141H195.871ZM193.996 121.024L187.528 132.728L189.278 133.696L195.746 121.992L193.996 121.024ZM187.529 132.726C187.124 133.456 186.751 133.894 186.439 134.128L187.639 135.728C188.265 135.258 188.802 134.552 189.277 133.698L187.529 132.726ZM186.448 134.122C186.192 134.309 185.89 134.412 185.499 134.412V136.412C186.281 136.412 187.006 136.193 187.63 135.734L186.448 134.122ZM185.499 134.412H183.827V136.412H185.499V134.412ZM184.698 134.921L176.866 121.017L175.124 121.999L182.956 135.903L184.698 134.921ZM174.995 121.508V141H176.995V121.508H174.995ZM175.995 140H170.055V142H175.995V140ZM171.055 141V110.2H169.055V141H171.055ZM207.158 110.2V109.2H206.158V110.2H207.158ZM212.57 110.2L213.446 109.718L213.161 109.2H212.57V110.2ZM222.646 128.504L221.77 128.986L222.655 130.595L223.526 128.978L222.646 128.504ZM232.502 110.2V109.2H231.904L231.621 109.726L232.502 110.2ZM237.914 110.2H238.914V109.2H237.914V110.2ZM237.914 141V142H238.914V141H237.914ZM231.974 141H230.974V142H231.974V141ZM231.974 121.508H232.974L231.098 121.024L231.974 121.508ZM225.506 133.212L226.38 133.698L226.381 133.696L225.506 133.212ZM224.142 134.928L224.733 135.734L224.742 135.728L224.142 134.928ZM220.93 135.412L220.058 135.903L220.345 136.412H220.93V135.412ZM213.098 121.508L213.969 121.017L212.098 117.695V121.508H213.098ZM213.098 141V142H214.098V141H213.098ZM207.158 141H206.158V142H207.158V141ZM207.158 111.2H212.57V109.2H207.158V111.2ZM211.693 110.682L221.77 128.986L223.522 128.022L213.446 109.718L211.693 110.682ZM223.526 128.978L233.382 110.674L231.621 109.726L221.765 128.03L223.526 128.978ZM232.502 111.2H237.914V109.2H232.502V111.2ZM236.914 110.2V141H238.914V110.2H236.914ZM237.914 140H231.974V142H237.914V140ZM232.974 141V121.508H230.974V141H232.974ZM231.098 121.024L224.63 132.728L226.381 133.696L232.849 121.992L231.098 121.024ZM224.631 132.726C224.226 133.456 223.854 133.894 223.542 134.128L224.742 135.728C225.368 135.258 225.905 134.552 226.38 133.698L224.631 132.726ZM223.55 134.122C223.295 134.309 222.992 134.412 222.602 134.412V136.412C223.384 136.412 224.108 136.193 224.733 135.734L223.55 134.122ZM222.602 134.412H220.93V136.412H222.602V134.412ZM221.801 134.921L213.969 121.017L212.226 121.999L220.058 135.903L221.801 134.921ZM212.098 121.508V141H214.098V121.508H212.098ZM213.098 140H207.158V142H213.098V140ZM208.158 141V110.2H206.158V141H208.158ZM248.968 139.9L248.475 140.77L248.484 140.775L248.492 140.78L248.968 139.9ZM244.832 135.764L243.953 136.24L243.957 136.248L243.962 136.257L244.832 135.764ZM244.832 115.48L243.959 114.993L243.956 114.998L244.832 115.48ZM248.968 111.344L249.45 112.22L249.455 112.217L248.968 111.344ZM265.908 111.344L265.415 112.214L265.424 112.219L265.432 112.224L265.908 111.344ZM270.044 115.48L269.165 115.956L269.169 115.964L269.174 115.973L270.044 115.48ZM270.044 135.764L269.171 135.277L269.168 135.282L270.044 135.764ZM265.908 139.9L266.39 140.776L266.395 140.773L265.908 139.9ZM263.884 134.136L263.125 133.485L263.116 133.496L263.884 134.136ZM263.884 117.064L263.116 117.704L263.125 117.715L263.884 117.064ZM250.992 117.064L250.233 116.413L250.224 116.424L250.992 117.064ZM250.992 134.136L250.224 134.776L250.233 134.787L250.992 134.136ZM255.128 140.352C252.954 140.352 251.068 139.899 249.444 139.02L248.492 140.78C250.447 141.837 252.668 142.352 255.128 142.352V140.352ZM249.461 139.03C247.859 138.122 246.61 136.874 245.702 135.271L243.962 136.257C245.049 138.174 246.558 139.683 248.475 140.77L249.461 139.03ZM245.712 135.288C244.834 133.666 244.38 131.766 244.38 129.56H242.38C242.38 132.047 242.894 134.283 243.953 136.24L245.712 135.288ZM244.38 129.56V121.64H242.38V129.56H244.38ZM244.38 121.64C244.38 119.433 244.834 117.551 245.708 115.962L243.956 114.998C242.894 116.929 242.38 119.153 242.38 121.64H244.38ZM245.706 115.967C246.614 114.338 247.858 113.096 249.45 112.22L248.486 110.468C246.558 111.528 245.046 113.043 243.959 114.993L245.706 115.967ZM249.455 112.217C251.077 111.314 252.959 110.848 255.128 110.848V108.848C252.663 108.848 250.438 109.38 248.481 110.471L249.455 112.217ZM255.128 110.848H259.792V108.848H255.128V110.848ZM259.792 110.848C261.962 110.848 263.826 111.314 265.415 112.214L266.401 110.474C264.47 109.38 262.257 108.848 259.792 108.848V110.848ZM265.432 112.224C267.051 113.099 268.289 114.337 269.165 115.956L270.924 115.004C269.863 113.044 268.344 111.525 266.384 110.464L265.432 112.224ZM269.174 115.973C270.074 117.56 270.54 119.438 270.54 121.64H272.54C272.54 119.148 272.01 116.92 270.914 114.987L269.174 115.973ZM270.54 121.64V129.56H272.54V121.64H270.54ZM270.54 129.56C270.54 131.761 270.074 133.657 269.171 135.277L270.918 136.251C272.009 134.292 272.54 132.052 272.54 129.56H270.54ZM269.168 135.282C268.292 136.874 267.05 138.119 265.421 139.027L266.395 140.773C268.345 139.687 269.86 138.174 270.92 136.246L269.168 135.282ZM265.426 139.024C263.835 139.899 261.967 140.352 259.792 140.352V142.352C262.252 142.352 264.461 141.837 266.39 140.776L265.426 139.024ZM259.792 140.352H255.128V142.352H259.792V140.352ZM259.792 136.984C261.77 136.984 263.423 136.252 264.652 134.776L263.116 133.496C262.292 134.484 261.217 134.984 259.792 134.984V136.984ZM264.643 134.787C265.888 133.335 266.468 131.473 266.468 129.296H264.468C264.468 131.109 263.992 132.473 263.125 133.485L264.643 134.787ZM266.468 129.296V121.904H264.468V129.296H266.468ZM266.468 121.904C266.468 119.727 265.888 117.865 264.643 116.413L263.125 117.715C263.992 118.727 264.468 120.091 264.468 121.904H266.468ZM264.652 116.424C263.423 114.948 261.77 114.216 259.792 114.216V116.216C261.217 116.216 262.292 116.716 263.116 117.704L264.652 116.424ZM259.792 114.216H255.128V116.216H259.792V114.216ZM255.128 114.216C253.151 114.216 251.489 114.948 250.233 116.413L251.751 117.715C252.607 116.716 253.703 116.216 255.128 116.216V114.216ZM250.224 116.424C249.014 117.876 248.452 119.734 248.452 121.904H250.452C250.452 120.085 250.917 118.716 251.76 117.704L250.224 116.424ZM248.452 121.904V129.296H250.452V121.904H248.452ZM248.452 129.296C248.452 131.466 249.014 133.324 250.224 134.776L251.76 133.496C250.917 132.484 250.452 131.115 250.452 129.296H248.452ZM250.233 134.787C251.489 136.252 253.151 136.984 255.128 136.984V134.984C253.703 134.984 252.607 134.484 251.751 133.485L250.233 134.787ZM255.128 136.984H259.792V134.984H255.128V136.984ZM276.98 110.2V109.2H275.98V110.2H276.98ZM282.392 110.2L283.209 109.623L282.91 109.2H282.392V110.2ZM297.176 131.144L296.359 131.721L298.176 134.295V131.144H297.176ZM297.176 110.2V109.2H296.176V110.2H297.176ZM303.116 110.2H304.116V109.2H303.116V110.2ZM303.116 141V142H304.116V141H303.116ZM297.704 141L296.887 141.577L297.186 142H297.704V141ZM282.92 120.056L283.737 119.479L281.92 116.905V120.056H282.92ZM282.92 141V142H283.92V141H282.92ZM276.98 141H275.98V142H276.98V141ZM276.98 111.2H282.392V109.2H276.98V111.2ZM281.575 110.777L296.359 131.721L297.993 130.567L283.209 109.623L281.575 110.777ZM298.176 131.144V110.2H296.176V131.144H298.176ZM297.176 111.2H303.116V109.2H297.176V111.2ZM302.116 110.2V141H304.116V110.2H302.116ZM303.116 140H297.704V142H303.116V140ZM298.521 140.423L283.737 119.479L282.103 120.633L296.887 141.577L298.521 140.423ZM281.92 120.056V141H283.92V120.056H281.92ZM282.92 140H276.98V142H282.92V140ZM277.98 141V110.2H275.98V141H277.98ZM311.114 138.668L310.407 139.375L310.413 139.381L311.114 138.668ZM308.386 131.1V130.1H307.386V131.1H308.386ZM314.37 131.1H315.37V130.1H314.37V131.1ZM315.514 134.708L314.758 135.363L314.77 135.376L314.782 135.389L315.514 134.708ZM326.778 135.192L327.333 136.024L327.34 136.019L326.778 135.192ZM324.842 128.812L324.676 129.798L324.678 129.798L324.842 128.812ZM316.746 127.448L316.912 126.462L316.91 126.462L316.746 127.448ZM310.718 124.94L310.035 125.671L310.043 125.678L310.052 125.686L310.718 124.94ZM309.926 113.588L309.11 113.011L309.107 113.015L309.926 113.588ZM313.49 110.816L313.107 109.892L313.1 109.895L313.49 110.816ZM328.89 111.036L329.365 110.156L328.89 111.036ZM332.278 114.38L331.402 114.863L331.408 114.873L331.414 114.884L332.278 114.38ZM333.51 119.308V120.308H334.51V119.308H333.51ZM327.526 119.308H326.526V120.308H327.526V119.308ZM326.514 116.36L325.765 117.023L325.772 117.03L325.778 117.037L326.514 116.36ZM315.866 116.008L315.297 115.186L315.289 115.191L315.282 115.196L315.866 116.008ZM317.802 122.036L317.974 121.051L317.973 121.051L317.802 122.036ZM325.854 123.444L326.027 122.459L326.026 122.459L325.854 123.444ZM331.97 125.952L331.321 126.712L331.33 126.72L331.97 125.952ZM332.762 137.568L331.955 136.977L331.95 136.984L331.946 136.991L332.762 137.568ZM329.154 140.384L329.537 141.308L329.545 141.305L329.552 141.301L329.154 140.384ZM318.682 140.352C315.645 140.352 313.401 139.515 311.815 137.955L310.413 139.381C312.465 141.4 315.266 142.352 318.682 142.352V140.352ZM311.821 137.961C310.235 136.375 309.386 134.133 309.386 131.1H307.386C307.386 134.521 308.356 137.324 310.407 139.375L311.821 137.961ZM308.386 132.1H314.37V130.1H308.386V132.1ZM313.37 131.1C313.37 132.79 313.795 134.251 314.758 135.363L316.27 134.053C315.708 133.405 315.37 132.461 315.37 131.1H313.37ZM314.782 135.389C315.798 136.481 317.17 136.984 318.77 136.984V134.984C317.613 134.984 316.814 134.636 316.246 134.027L314.782 135.389ZM318.77 136.984H323.654V134.984H318.77V136.984ZM323.654 136.984C325.074 136.984 326.328 136.694 327.333 136.024L326.223 134.36C325.645 134.746 324.816 134.984 323.654 134.984V136.984ZM327.34 136.019C328.406 135.296 329.01 134.267 329.01 132.992H327.01C327.01 133.536 326.793 133.973 326.217 134.365L327.34 136.019ZM329.01 132.992V131.496H327.01V132.992H329.01ZM329.01 131.496C329.01 130.496 328.626 129.63 327.864 128.984C327.143 128.373 326.151 128.016 325.006 127.826L324.678 129.798C325.645 129.96 326.237 130.226 326.572 130.51C326.866 130.759 327.01 131.058 327.01 131.496H329.01ZM325.008 127.826L316.912 126.462L316.58 128.434L324.676 129.798L325.008 127.826ZM316.91 126.462C314.378 126.04 312.572 125.256 311.384 124.194L310.052 125.686C311.621 127.088 313.834 127.976 316.582 128.434L316.91 126.462ZM311.401 124.209C310.265 123.147 309.694 121.818 309.694 120.144H307.694C307.694 122.342 308.473 124.21 310.035 125.671L311.401 124.209ZM309.694 120.144V117.68H307.694V120.144H309.694ZM309.694 117.68C309.694 116.312 310.052 115.152 310.745 114.161L309.107 113.015C308.158 114.37 307.694 115.939 307.694 117.68H309.694ZM310.742 114.165C311.473 113.133 312.504 112.319 313.88 111.737L313.1 109.895C311.426 110.604 310.081 111.638 309.11 113.011L310.742 114.165ZM313.873 111.74C315.285 111.154 316.94 110.848 318.858 110.848V108.848C316.729 108.848 314.805 109.188 313.107 109.892L313.873 111.74ZM318.858 110.848H323.83V108.848H318.858V110.848ZM323.83 110.848C325.595 110.848 327.114 111.213 328.415 111.916L329.365 110.156C327.733 109.275 325.879 108.848 323.83 108.848V110.848ZM328.415 111.916C329.715 112.618 330.704 113.596 331.402 114.863L333.154 113.897C332.268 112.289 330.998 111.038 329.365 110.156L328.415 111.916ZM331.414 114.884C332.134 116.117 332.51 117.58 332.51 119.308H334.51C334.51 117.281 334.065 115.459 333.142 113.876L331.414 114.884ZM333.51 118.308H327.526V120.308H333.51V118.308ZM328.526 119.308C328.526 117.887 328.132 116.642 327.25 115.683L325.778 117.037C326.245 117.545 326.526 118.265 326.526 119.308H328.526ZM327.263 115.697C326.379 114.698 325.201 114.216 323.83 114.216V116.216C324.689 116.216 325.299 116.496 325.765 117.023L327.263 115.697ZM323.83 114.216H318.858V116.216H323.83V114.216ZM318.858 114.216C317.488 114.216 316.274 114.51 315.297 115.186L316.435 116.83C316.984 116.45 317.764 116.216 318.858 116.216V114.216ZM315.282 115.196C314.296 115.906 313.766 116.908 313.766 118.12H315.766C315.766 117.572 315.97 117.166 316.45 116.82L315.282 115.196ZM313.766 118.12V119.308H315.766V118.12H313.766ZM313.766 119.308C313.766 120.3 314.122 121.173 314.857 121.834C315.556 122.463 316.521 122.828 317.631 123.021L317.973 121.051C317.059 120.892 316.506 120.627 316.193 120.346C315.916 120.097 315.766 119.782 315.766 119.308H313.766ZM317.63 123.021L325.682 124.429L326.026 122.459L317.974 121.051L317.63 123.021ZM325.681 124.429C328.251 124.881 330.097 125.667 331.321 126.712L332.62 125.192C331.027 123.831 328.796 122.946 326.027 122.459L325.681 124.429ZM331.33 126.72C332.504 127.698 333.082 128.939 333.082 130.528H335.082C335.082 128.362 334.253 126.552 332.61 125.184L331.33 126.72ZM333.082 130.528V133.432H335.082V130.528H333.082ZM333.082 133.432C333.082 134.784 332.704 135.954 331.955 136.977L333.569 138.159C334.58 136.777 335.082 135.189 335.082 133.432H333.082ZM331.946 136.991C331.216 138.022 330.168 138.854 328.756 139.467L329.552 141.301C331.249 140.565 332.607 139.519 333.578 138.145L331.946 136.991ZM328.771 139.46C327.361 140.046 325.692 140.352 323.742 140.352V142.352C325.899 142.352 327.838 142.013 329.537 141.308L328.771 139.46ZM323.742 140.352H318.682V142.352H323.742V140.352ZM8.216 193.9L7.72146 194.769L7.72785 194.773L8.216 193.9ZM4.256 189.808L3.37043 190.273L3.37365 190.279L4.256 189.808ZM4.256 169.436L3.37644 168.96L3.37365 168.965L4.256 169.436ZM8.304 165.3L7.82207 164.424L7.81585 164.427L8.304 165.3ZM24.848 165.256L25.3375 164.384H25.3375L24.848 165.256ZM28.72 169.216L27.8381 169.687L27.843 169.697L27.848 169.706L28.72 169.216ZM30.128 175.068V176.068H31.128V175.068H30.128ZM24.144 175.068H23.144V176.068H24.144V175.068ZM22.736 170.844L21.9796 171.498L21.9886 171.508L22.736 170.844ZM10.416 171.064L11.1858 171.702L11.1932 171.693L10.416 171.064ZM10.372 188.18L9.58563 188.798L9.59299 188.807L10.372 188.18ZM22.736 188.18L21.9662 187.542L21.9616 187.547L21.957 187.553L22.736 188.18ZM24.232 183.428V182.428H23.232V183.428H24.232ZM30.216 183.428H31.216V182.428H30.216V183.428ZM28.808 189.72L29.6936 190.185L29.6966 190.179L28.808 189.72ZM24.848 193.9L25.3426 194.769L25.3537 194.763L24.848 193.9ZM14.2 194.352C12.0882 194.352 10.2659 193.901 8.70415 193.027L7.72785 194.773C9.62739 195.835 11.7945 196.352 14.2 196.352V194.352ZM8.71052 193.031C7.17683 192.158 5.98982 190.934 5.13835 189.337L3.37365 190.279C4.39951 192.202 5.85251 193.706 7.72148 194.769L8.71052 193.031ZM5.14155 189.343C4.28844 187.717 3.848 185.827 3.848 183.648H1.848C1.848 186.103 2.34623 188.32 3.37045 190.273L5.14155 189.343ZM3.848 183.648V175.552H1.848V183.648H3.848ZM3.848 175.552C3.848 173.372 4.28857 171.5 5.13835 169.907L3.37365 168.965C2.34609 170.892 1.848 173.097 1.848 175.552H3.848ZM5.13554 169.912C6.01581 168.285 7.23141 167.046 8.79215 166.173L7.81585 164.427C5.91526 165.49 4.43219 167.009 3.37646 168.96L5.13554 169.912ZM8.78592 166.176C10.3788 165.3 12.2328 164.848 14.376 164.848V162.848C11.9432 162.848 9.74921 163.364 7.82208 164.424L8.78592 166.176ZM14.376 164.848H19.04V162.848H14.376V164.848ZM19.04 164.848C21.0941 164.848 22.8568 165.285 24.3585 166.128L25.3375 164.384C23.4952 163.35 21.3859 162.848 19.04 162.848V164.848ZM24.3585 166.128C25.8631 166.973 27.0181 168.153 27.8381 169.687L29.6019 168.745C28.6033 166.876 27.1769 165.417 25.3375 164.384L24.3585 166.128ZM27.848 169.706C28.69 171.205 29.128 172.982 29.128 175.068H31.128C31.128 172.695 30.6274 170.571 29.592 168.726L27.848 169.706ZM30.128 174.068H24.144V176.068H30.128V174.068ZM25.144 175.068C25.144 173.126 24.622 171.461 23.4834 170.18L21.9886 171.508C22.7273 172.339 23.144 173.49 23.144 175.068H25.144ZM23.4924 170.19C22.3506 168.87 20.8349 168.216 19.04 168.216V170.216C20.2957 170.216 21.2441 170.648 21.9796 171.498L23.4924 170.19ZM19.04 168.216H14.376V170.216H19.04V168.216ZM14.376 168.216C12.4443 168.216 10.8338 168.959 9.63876 170.435L11.1932 171.693C11.9929 170.705 13.0224 170.216 14.376 170.216V168.216ZM9.64624 170.426C8.46499 171.85 7.92 173.679 7.92 175.816H9.92C9.92 174.022 10.3723 172.683 11.1858 171.702L9.64624 170.426ZM7.92 175.816V183.384H9.92V175.816H7.92ZM7.92 183.384C7.92 185.515 8.44718 187.349 9.58568 188.798L11.1583 187.562C10.3608 186.547 9.92 185.183 9.92 183.384H7.92ZM9.59299 188.807C10.7565 190.253 12.3224 190.984 14.2 190.984V188.984C12.9096 188.984 11.9235 188.513 11.151 187.553L9.59299 188.807ZM14.2 190.984H18.952V188.984H14.2V190.984ZM18.952 190.984C20.8069 190.984 22.3556 190.247 23.515 188.807L21.957 187.553C21.1804 188.518 20.2064 188.984 18.952 188.984V190.984ZM23.5058 188.818C24.687 187.394 25.232 185.565 25.232 183.428H23.232C23.232 185.222 22.7797 186.561 21.9662 187.542L23.5058 188.818ZM24.232 184.428H30.216V182.428H24.232V184.428ZM29.216 183.428C29.216 185.67 28.7739 187.606 27.9194 189.261L29.6966 190.179C30.7194 188.197 31.216 185.938 31.216 183.428H29.216ZM27.9225 189.255C27.0684 190.883 25.8781 192.137 24.3423 193.037L25.3537 194.763C27.2205 193.668 28.6702 192.135 29.6935 190.185L27.9225 189.255ZM24.3535 193.031C22.8228 193.902 21.0324 194.352 18.952 194.352V196.352C21.3303 196.352 23.4706 195.834 25.3425 194.769L24.3535 193.031ZM18.952 194.352H14.2V196.352H18.952V194.352ZM39.609 193.9L39.116 194.77L39.1245 194.775L39.1331 194.78L39.609 193.9ZM35.473 189.764L34.5934 190.24L34.5981 190.248L34.6029 190.257L35.473 189.764ZM35.473 169.48L34.5995 168.993L34.5968 168.998L35.473 169.48ZM39.609 165.344L40.0909 166.22L40.0958 166.217L39.609 165.344ZM56.549 165.344L56.056 166.214L56.0645 166.219L56.0732 166.224L56.549 165.344ZM60.685 169.48L59.8054 169.956L59.8101 169.964L59.8149 169.973L60.685 169.48ZM60.685 189.764L59.8115 189.277L59.8088 189.282L60.685 189.764ZM56.549 193.9L57.0309 194.776L57.0358 194.773L56.549 193.9ZM54.525 188.136L53.7656 187.485L53.7567 187.496L54.525 188.136ZM54.525 171.064L53.7567 171.704L53.7657 171.715L54.525 171.064ZM41.633 171.064L40.8736 170.413L40.8647 170.424L41.633 171.064ZM41.633 188.136L40.8647 188.776L40.8737 188.787L41.633 188.136ZM45.769 194.352C43.5944 194.352 41.7087 193.899 40.0848 193.02L39.1331 194.78C41.0879 195.837 43.3089 196.352 45.769 196.352V194.352ZM40.102 193.03C38.4995 192.122 37.2511 190.874 36.343 189.271L34.6029 190.257C35.6895 192.174 37.1985 193.683 39.116 194.77L40.102 193.03ZM36.3525 189.288C35.475 187.666 35.021 185.766 35.021 183.56H33.021C33.021 186.047 33.535 188.283 34.5934 190.24L36.3525 189.288ZM35.021 183.56V175.64H33.021V183.56H35.021ZM35.021 175.64C35.021 173.433 35.4751 171.551 36.3492 169.962L34.5968 168.998C33.5348 170.929 33.021 173.153 33.021 175.64H35.021ZM36.3465 169.967C37.2543 168.338 38.4988 167.096 40.0909 166.22L39.127 164.468C37.1992 165.528 35.6863 167.043 34.5995 168.993L36.3465 169.967ZM40.0958 166.217C41.7176 165.314 43.5993 164.848 45.769 164.848V162.848C43.3039 162.848 41.079 163.38 39.1221 164.471L40.0958 166.217ZM45.769 164.848H50.433V162.848H45.769V164.848ZM50.433 164.848C52.603 164.848 54.467 165.314 56.056 166.214L57.042 164.474C55.1109 163.38 52.8976 162.848 50.433 162.848V164.848ZM56.0732 166.224C57.6915 167.099 58.9299 168.337 59.8054 169.956L61.5645 169.004C60.504 167.044 58.9851 165.525 57.0248 164.464L56.0732 166.224ZM59.8149 169.973C60.7143 171.56 61.181 173.438 61.181 175.64H63.181C63.181 173.148 62.6503 170.92 61.555 168.987L59.8149 169.973ZM61.181 175.64V183.56H63.181V175.64H61.181ZM61.181 183.56C61.181 185.761 60.7144 187.657 59.8115 189.277L61.5584 190.251C62.6502 188.292 63.181 186.052 63.181 183.56H61.181ZM59.8088 189.282C58.9331 190.874 57.6909 192.119 56.0621 193.027L57.0358 194.773C58.9857 193.687 60.5008 192.174 61.5612 190.246L59.8088 189.282ZM56.0671 193.024C54.476 193.899 52.6079 194.352 50.433 194.352V196.352C52.8927 196.352 55.1019 195.837 57.0309 194.776L56.0671 193.024ZM50.433 194.352H45.769V196.352H50.433V194.352ZM50.433 190.984C52.4104 190.984 54.0637 190.252 55.2932 188.776L53.7567 187.496C52.9329 188.484 51.8582 188.984 50.433 188.984V190.984ZM55.2842 188.787C56.5289 187.335 57.109 185.473 57.109 183.296H55.109C55.109 185.109 54.633 186.473 53.7657 187.485L55.2842 188.787ZM57.109 183.296V175.904H55.109V183.296H57.109ZM57.109 175.904C57.109 173.727 56.5289 171.865 55.2842 170.413L53.7657 171.715C54.633 172.727 55.109 174.091 55.109 175.904H57.109ZM55.2932 170.424C54.0637 168.948 52.4104 168.216 50.433 168.216V170.216C51.8582 170.216 52.9329 170.716 53.7567 171.704L55.2932 170.424ZM50.433 168.216H45.769V170.216H50.433V168.216ZM45.769 168.216C43.7919 168.216 42.13 168.948 40.8737 170.413L42.3922 171.715C43.248 170.716 44.3434 170.216 45.769 170.216V168.216ZM40.8647 170.424C39.6546 171.876 39.093 173.734 39.093 175.904H41.093C41.093 174.085 41.558 172.716 42.4012 171.704L40.8647 170.424ZM39.093 175.904V183.296H41.093V175.904H39.093ZM39.093 183.296C39.093 185.466 39.6546 187.324 40.8647 188.776L42.4012 187.496C41.558 186.484 41.093 185.115 41.093 183.296H39.093ZM40.8737 188.787C42.13 190.252 43.7919 190.984 45.769 190.984V188.984C44.3434 188.984 43.248 188.484 42.3922 187.485L40.8737 188.787ZM45.769 190.984H50.433V188.984H45.769V190.984ZM67.6208 164.2V163.2H66.6208V164.2H67.6208ZM73.0328 164.2L73.8498 163.623L73.551 163.2H73.0328V164.2ZM87.8168 185.144L86.9998 185.721L88.8168 188.295V185.144H87.8168ZM87.8168 164.2V163.2H86.8168V164.2H87.8168ZM93.7568 164.2H94.7568V163.2H93.7568V164.2ZM93.7568 195V196H94.7568V195H93.7568ZM88.3448 195L87.5278 195.577L87.8267 196H88.3448V195ZM73.5608 174.056L74.3778 173.479L72.5608 170.905V174.056H73.5608ZM73.5608 195V196H74.5608V195H73.5608ZM67.6208 195H66.6208V196H67.6208V195ZM67.6208 165.2H73.0328V163.2H67.6208V165.2ZM72.2158 164.777L86.9998 185.721L88.6338 184.567L73.8498 163.623L72.2158 164.777ZM88.8168 185.144V164.2H86.8168V185.144H88.8168ZM87.8168 165.2H93.7568V163.2H87.8168V165.2ZM92.7568 164.2V195H94.7568V164.2H92.7568ZM93.7568 194H88.3448V196H93.7568V194ZM89.1618 194.423L74.3778 173.479L72.7438 174.633L87.5278 195.577L89.1618 194.423ZM72.5608 174.056V195H74.5608V174.056H72.5608ZM73.5608 194H67.6208V196H73.5608V194ZM68.6208 195V164.2H66.6208V195H68.6208ZM100.083 164.2V163.2H99.0828V164.2H100.083ZM123.139 164.2H124.139V163.2H123.139V164.2ZM123.139 169.48V170.48H124.139V169.48H123.139ZM106.155 169.48V168.48H105.155V169.48H106.155ZM106.155 177.752H105.155V178.752H106.155V177.752ZM121.511 177.752H122.511V176.752H121.511V177.752ZM121.511 183.032V184.032H122.511V183.032H121.511ZM106.155 183.032V182.032H105.155V183.032H106.155ZM106.155 195V196H107.155V195H106.155ZM100.083 195H99.0828V196H100.083V195ZM100.083 165.2H123.139V163.2H100.083V165.2ZM122.139 164.2V169.48H124.139V164.2H122.139ZM123.139 168.48H106.155V170.48H123.139V168.48ZM105.155 169.48V177.752H107.155V169.48H105.155ZM106.155 178.752H121.511V176.752H106.155V178.752ZM120.511 177.752V183.032H122.511V177.752H120.511ZM121.511 182.032H106.155V184.032H121.511V182.032ZM105.155 183.032V195H107.155V183.032H105.155ZM106.155 194H100.083V196H106.155V194ZM101.083 195V164.2H99.0828V195H101.083ZM127.958 164.2V163.2H126.958V164.2H127.958ZM134.03 164.2H135.03V163.2H134.03V164.2ZM134.03 195V196H135.03V195H134.03ZM127.958 195H126.958V196H127.958V195ZM127.958 165.2H134.03V163.2H127.958V165.2ZM133.03 164.2V195H135.03V164.2H133.03ZM134.03 194H127.958V196H134.03V194ZM128.958 195V164.2H126.958V195H128.958ZM145.391 193.9L144.903 194.773L145.391 193.9ZM141.343 189.808L140.458 190.273L140.463 190.281L140.467 190.29L141.343 189.808ZM141.343 169.436L140.464 168.96L140.461 168.965L141.343 169.436ZM145.391 165.3L144.91 164.424L144.903 164.427L145.391 165.3ZM162.199 165.168L162.665 164.283L162.199 165.168ZM166.072 168.908L165.2 169.399L165.207 169.411L166.072 168.908ZM167.479 174.496V175.496H168.479V174.496H167.479ZM161.495 174.496H160.495V175.496H161.495V174.496ZM160.087 170.668L159.37 171.364L160.087 170.668ZM147.503 171.064L148.273 171.702L148.281 171.693L147.503 171.064ZM147.459 188.18L146.673 188.798L146.681 188.808L146.69 188.818L147.459 188.18ZM160.263 188.356L159.527 187.679L159.522 187.685L159.517 187.69L160.263 188.356ZM161.759 183.34H162.759V182.34H161.759V183.34ZM153.223 183.34H152.223V184.34H153.223V183.34ZM153.223 178.06V177.06H152.223V178.06H153.223ZM167.743 178.06H168.743V177.06H167.743V178.06ZM166.335 190.028L165.464 189.538L166.335 190.028ZM162.375 193.944L162.859 194.82L162.375 193.944ZM151.375 194.352C149.264 194.352 147.441 193.901 145.88 193.027L144.903 194.773C146.803 195.835 148.97 196.352 151.375 196.352V194.352ZM145.88 193.027C144.315 192.152 143.099 190.924 142.22 189.326L140.467 190.29C141.524 192.212 143.007 193.712 144.903 194.773L145.88 193.027ZM142.229 189.343C141.376 187.717 140.936 185.827 140.936 183.648H138.936C138.936 186.103 139.434 188.32 140.458 190.273L142.229 189.343ZM140.936 183.648V175.552H138.936V183.648H140.936ZM140.936 175.552C140.936 173.372 141.376 171.5 142.226 169.907L140.461 168.965C139.434 170.892 138.936 173.097 138.936 175.552H140.936ZM142.223 169.912C143.103 168.285 144.319 167.046 145.88 166.173L144.903 164.427C143.003 165.49 141.52 167.009 140.464 168.96L142.223 169.912ZM145.873 166.176C147.466 165.3 149.32 164.848 151.464 164.848V162.848C149.031 162.848 146.837 163.364 144.91 164.424L145.873 166.176ZM151.464 164.848H156.391V162.848H151.464V164.848ZM156.391 164.848C158.456 164.848 160.227 165.26 161.734 166.053L162.665 164.283C160.828 163.316 158.727 162.848 156.391 162.848V164.848ZM161.734 166.053C163.239 166.845 164.387 167.957 165.2 169.399L166.943 168.417C165.937 166.633 164.504 165.251 162.665 164.283L161.734 166.053ZM165.207 169.411C166.046 170.852 166.479 172.537 166.479 174.496H168.479C168.479 172.231 167.975 170.19 166.936 168.405L165.207 169.411ZM167.479 173.496H161.495V175.496H167.479V173.496ZM162.495 174.496C162.495 172.701 161.956 171.159 160.805 169.972L159.37 171.364C160.096 172.113 160.495 173.123 160.495 174.496H162.495ZM160.805 169.972C159.653 168.783 158.148 168.216 156.391 168.216V170.216C157.685 170.216 158.645 170.617 159.37 171.364L160.805 169.972ZM156.391 168.216H151.464V170.216H156.391V168.216ZM151.464 168.216C149.532 168.216 147.921 168.959 146.726 170.435L148.281 171.693C149.08 170.705 150.11 170.216 151.464 170.216V168.216ZM146.734 170.426C145.552 171.85 145.007 173.679 145.007 175.816H147.007C147.007 174.022 147.46 172.683 148.273 171.702L146.734 170.426ZM145.007 175.816V183.384H147.007V175.816H145.007ZM145.007 183.384C145.007 185.515 145.535 187.349 146.673 188.798L148.246 187.562C147.448 186.547 147.007 185.183 147.007 183.384H145.007ZM146.69 188.818C147.884 190.259 149.476 190.984 151.375 190.984V188.984C150.049 188.984 149.03 188.507 148.229 187.542L146.69 188.818ZM151.375 190.984H156.567V188.984H151.375V190.984ZM156.567 190.984C158.339 190.984 159.846 190.327 161.01 189.022L159.517 187.69C158.745 188.556 157.788 188.984 156.567 188.984V190.984ZM161 189.033C162.183 187.745 162.759 186.146 162.759 184.308H160.759C160.759 185.696 160.338 186.797 159.527 187.679L161 189.033ZM162.759 184.308V183.34H160.759V184.308H162.759ZM161.759 182.34H153.223V184.34H161.759V182.34ZM154.223 183.34V178.06H152.223V183.34H154.223ZM153.223 179.06H167.743V177.06H153.223V179.06ZM166.743 178.06V184.308H168.743V178.06H166.743ZM166.743 184.308C166.743 186.298 166.309 188.033 165.464 189.538L167.207 190.518C168.24 188.679 168.743 186.6 168.743 184.308H166.743ZM165.464 189.538C164.617 191.046 163.433 192.218 161.892 193.068L162.859 194.82C164.721 193.792 166.176 192.354 167.207 190.518L165.464 189.538ZM161.892 193.068C160.356 193.916 158.589 194.352 156.567 194.352V196.352C158.887 196.352 160.993 195.849 162.859 194.82L161.892 193.068ZM156.567 194.352H151.375V196.352H156.567V194.352ZM178.036 193.988L177.54 194.856L177.551 194.863L178.036 193.988ZM174.208 190.072L173.329 190.55L174.208 190.072ZM172.844 164.2V163.2H171.844V164.2H172.844ZM178.916 164.2H179.916V163.2H178.916V164.2ZM180.236 188.356L179.459 188.986L179.464 188.992L179.469 188.998L180.236 188.356ZM191.984 188.356L191.217 187.714L191.984 188.356ZM193.348 164.2V163.2H192.348V164.2H193.348ZM199.42 164.2H200.42V163.2H199.42V164.2ZM198.056 190.072L198.934 190.55L198.056 190.072ZM194.184 193.988L194.662 194.867L194.673 194.86L194.184 193.988ZM183.756 194.352C181.728 194.352 179.993 193.928 178.52 193.113L177.551 194.863C179.364 195.866 181.442 196.352 183.756 196.352V194.352ZM178.532 193.12C177.051 192.274 175.907 191.104 175.086 189.594L173.329 190.55C174.327 192.384 175.735 193.825 177.54 194.856L178.532 193.12ZM175.086 189.594C174.268 188.09 173.844 186.323 173.844 184.264H171.844C171.844 186.605 172.329 188.71 173.329 190.55L175.086 189.594ZM173.844 184.264V164.2H171.844V184.264H173.844ZM172.844 165.2H178.916V163.2H172.844V165.2ZM177.916 164.2V184.088H179.916V164.2H177.916ZM177.916 184.088C177.916 186.016 178.4 187.68 179.459 188.986L181.012 187.726C180.311 186.861 179.916 185.68 179.916 184.088H177.916ZM179.469 188.998C180.572 190.314 182.028 190.984 183.756 190.984V188.984C182.609 188.984 181.718 188.568 181.002 187.714L179.469 188.998ZM183.756 190.984H188.42V188.984H183.756V190.984ZM188.42 190.984C190.17 190.984 191.643 190.32 192.75 188.998L191.217 187.714C190.506 188.563 189.603 188.984 188.42 188.984V190.984ZM192.75 188.998C193.844 187.692 194.348 186.024 194.348 184.088H192.348C192.348 185.672 191.942 186.849 191.217 187.714L192.75 188.998ZM194.348 184.088V164.2H192.348V184.088H194.348ZM193.348 165.2H199.42V163.2H193.348V165.2ZM198.42 164.2V184.264H200.42V164.2H198.42ZM198.42 184.264C198.42 186.323 197.995 188.09 197.177 189.594L198.934 190.55C199.935 188.71 200.42 186.605 200.42 184.264H198.42ZM197.177 189.594C196.359 191.1 195.203 192.269 193.694 193.116L194.673 194.86C196.508 193.83 197.934 192.388 198.934 190.55L197.177 189.594ZM193.706 193.11C192.2 193.928 190.447 194.352 188.42 194.352V196.352C190.734 196.352 192.823 195.866 194.661 194.866L193.706 193.11ZM188.42 194.352H183.756V196.352H188.42V194.352ZM205.568 164.2V163.2H204.568V164.2H205.568ZM228.36 166.356L227.694 167.103L227.701 167.109L228.36 166.356ZM229.504 179.116L228.711 178.506L228.709 178.509L229.504 179.116ZM225.764 181.668L225.427 180.726L224.764 180.963V181.668H225.764ZM225.764 181.756H224.764V182.296L225.215 182.592L225.764 181.756ZM227.876 183.868L227.015 184.378L227.022 184.389L227.029 184.401L227.876 183.868ZM229.328 187.168L230.282 186.868L230.279 186.86L230.276 186.852L229.328 187.168ZM231.792 195V196H233.155L232.746 194.7L231.792 195ZM225.5 195L224.547 195.304L224.769 196H225.5V195ZM223.168 187.696L222.21 187.985L222.213 187.993L222.215 188L223.168 187.696ZM221.584 184.88L220.909 185.618L221.584 184.88ZM211.64 183.956V182.956H210.64V183.956H211.64ZM211.64 195V196H212.64V195H211.64ZM205.568 195H204.568V196H205.568V195ZM223.696 177.752L224.371 178.489L224.38 178.482L224.388 178.474L223.696 177.752ZM223.96 170.272L223.253 170.979L223.263 170.989L223.273 170.999L223.96 170.272ZM211.64 169.48V168.48H210.64V169.48H211.64ZM211.64 178.72H210.64V179.72H211.64V178.72ZM205.568 165.2H221.936V163.2H205.568V165.2ZM221.936 165.2C224.42 165.2 226.305 165.865 227.694 167.103L229.025 165.609C227.188 163.973 224.79 163.2 221.936 163.2V165.2ZM227.701 167.109C229.109 168.34 229.824 169.949 229.824 172.032H231.824C231.824 169.421 230.896 167.246 229.018 165.603L227.701 167.109ZM229.824 172.032V175.112H231.824V172.032H229.824ZM229.824 175.112C229.824 176.43 229.449 177.547 228.711 178.506L230.296 179.726C231.319 178.397 231.824 176.844 231.824 175.112H229.824ZM228.709 178.509C228.001 179.437 226.932 180.189 225.427 180.726L226.1 182.61C227.88 181.974 229.305 181.025 230.299 179.723L228.709 178.509ZM224.764 181.668V181.756H226.764V181.668H224.764ZM225.215 182.592C226.054 183.143 226.639 183.742 227.015 184.378L228.736 183.358C228.174 182.41 227.351 181.602 226.312 180.92L225.215 182.592ZM227.029 184.401C227.468 185.097 227.922 186.114 228.379 187.484L230.276 186.852C229.795 185.406 229.281 184.223 228.722 183.335L227.029 184.401ZM228.374 187.468L230.838 195.3L232.746 194.7L230.282 186.868L228.374 187.468ZM231.792 194H225.5V196H231.792V194ZM226.452 194.696L224.12 187.392L222.215 188L224.547 195.304L226.452 194.696ZM224.125 187.407C223.713 186.045 223.112 184.921 222.258 184.142L220.909 185.618C221.405 186.071 221.86 186.825 222.21 187.985L224.125 187.407ZM222.258 184.142C221.381 183.341 220.298 182.956 219.076 182.956V184.956C219.848 184.956 220.437 185.187 220.909 185.618L222.258 184.142ZM219.076 182.956H211.64V184.956H219.076V182.956ZM210.64 183.956V195H212.64V183.956H210.64ZM211.64 194H205.568V196H211.64V194ZM206.568 195V164.2H204.568V195H206.568ZM220.792 179.72C222.199 179.72 223.434 179.348 224.371 178.489L223.02 177.015C222.549 177.447 221.848 177.72 220.792 177.72V179.72ZM224.388 178.474C225.306 177.594 225.752 176.459 225.752 175.156H223.752C223.752 175.965 223.494 176.561 223.004 177.03L224.388 178.474ZM225.752 175.156V172.296H223.752V175.156H225.752ZM225.752 172.296C225.752 171.221 225.409 170.265 224.646 169.545L223.273 170.999C223.567 171.276 223.752 171.669 223.752 172.296H225.752ZM224.667 169.565C223.918 168.816 222.942 168.48 221.848 168.48V170.48C222.513 170.48 222.945 170.672 223.253 170.979L224.667 169.565ZM221.848 168.48H211.64V170.48H221.848V168.48ZM210.64 169.48V178.72H212.64V169.48H210.64ZM211.64 179.72H220.792V177.72H211.64V179.72ZM254.308 187.828L255.245 187.478L255.001 186.828H254.308V187.828ZM242.78 187.828V186.828H242.09L241.845 187.472L242.78 187.828ZM240.052 195V196H240.742L240.987 195.356L240.052 195ZM233.716 195L232.785 194.635L232.251 196H233.716V195ZM245.772 164.2V163.2H245.09L244.841 163.835L245.772 164.2ZM252.372 166.84L251.438 167.198L251.44 167.203L252.372 166.84ZM263.328 195V196H264.79L264.26 194.637L263.328 195ZM256.992 195L256.055 195.35L256.298 196H256.992V195ZM244.408 182.724L243.471 182.375L242.968 183.724H244.408V182.724ZM252.68 182.724V183.724H254.115L253.618 182.378L252.68 182.724ZM248.588 171.636L249.526 171.29L249.285 170.636H248.588V171.636ZM248.544 171.636V170.636H247.85L247.607 171.286L248.544 171.636ZM254.308 186.828H242.78V188.828H254.308V186.828ZM241.845 187.472L239.117 194.644L240.987 195.356L243.715 188.184L241.845 187.472ZM240.052 194H233.716V196H240.052V194ZM234.647 195.365L246.703 164.564L244.841 163.835L232.785 194.635L234.647 195.365ZM245.772 165.2H248.5V163.2H245.772V165.2ZM248.5 165.2C249.297 165.2 249.889 165.382 250.335 165.686C250.779 165.99 251.158 166.468 251.438 167.198L253.306 166.482C252.911 165.452 252.307 164.61 251.461 164.034C250.616 163.458 249.609 163.2 248.5 163.2V165.2ZM251.44 167.203L262.396 195.363L264.26 194.637L253.304 166.477L251.44 167.203ZM263.328 194H256.992V196H263.328V194ZM257.929 194.65L255.245 187.478L253.371 188.178L256.055 195.35L257.929 194.65ZM244.408 183.724H252.68V181.724H244.408V183.724ZM253.618 182.378L249.526 171.29L247.65 171.982L251.742 183.07L253.618 182.378ZM248.588 170.636H248.544V172.636H248.588V170.636ZM247.607 171.286L243.471 182.375L245.345 183.073L249.481 171.985L247.607 171.286ZM270.282 169.48H271.282V168.48H270.282V169.48ZM260.514 169.48H259.514V170.48H260.514V169.48ZM260.514 164.2V163.2H259.514V164.2H260.514ZM286.122 164.2H287.122V163.2H286.122V164.2ZM286.122 169.48V170.48H287.122V169.48H286.122ZM276.354 169.48V168.48H275.354V169.48H276.354ZM276.354 195V196H277.354V195H276.354ZM270.282 195H269.282V196H270.282V195ZM270.282 168.48H260.514V170.48H270.282V168.48ZM261.514 169.48V164.2H259.514V169.48H261.514ZM260.514 165.2H286.122V163.2H260.514V165.2ZM285.122 164.2V169.48H287.122V164.2H285.122ZM286.122 168.48H276.354V170.48H286.122V168.48ZM275.354 169.48V195H277.354V169.48H275.354ZM276.354 194H270.282V196H276.354V194ZM271.282 195V169.48H269.282V195H271.282ZM290.718 164.2V163.2H289.718V164.2H290.718ZM296.79 164.2H297.79V163.2H296.79V164.2ZM296.79 195V196H297.79V195H296.79ZM290.718 195H289.718V196H290.718V195ZM290.718 165.2H296.79V163.2H290.718V165.2ZM295.79 164.2V195H297.79V164.2H295.79ZM296.79 194H290.718V196H296.79V194ZM291.718 195V164.2H289.718V195H291.718ZM308.284 193.9L307.791 194.77L307.799 194.775L307.808 194.78L308.284 193.9ZM304.148 189.764L303.268 190.24L303.273 190.248L303.278 190.257L304.148 189.764ZM304.148 169.48L303.274 168.993L303.272 168.998L304.148 169.48ZM308.284 165.344L308.766 166.22L308.771 166.217L308.284 165.344ZM325.224 165.344L324.731 166.214L324.74 166.219L324.748 166.224L325.224 165.344ZM329.36 169.48L328.48 169.956L328.485 169.964L328.49 169.973L329.36 169.48ZM329.36 189.764L328.486 189.277L328.484 189.282L329.36 189.764ZM325.224 193.9L325.706 194.776L325.711 194.773L325.224 193.9ZM323.2 188.136L322.441 187.485L322.432 187.496L323.2 188.136ZM323.2 171.064L322.432 171.704L322.441 171.715L323.2 171.064ZM310.308 171.064L309.549 170.413L309.54 170.424L310.308 171.064ZM310.308 188.136L309.54 188.776L309.549 188.787L310.308 188.136ZM314.444 194.352C312.269 194.352 310.384 193.899 308.76 193.02L307.808 194.78C309.763 195.837 311.984 196.352 314.444 196.352V194.352ZM308.777 193.03C307.174 192.122 305.926 190.874 305.018 189.271L303.278 190.257C304.365 192.174 305.873 193.683 307.791 194.77L308.777 193.03ZM305.027 189.288C304.15 187.666 303.696 185.766 303.696 183.56H301.696C301.696 186.047 302.21 188.283 303.268 190.24L305.027 189.288ZM303.696 183.56V175.64H301.696V183.56H303.696ZM303.696 175.64C303.696 173.433 304.15 171.551 305.024 169.962L303.272 168.998C302.21 170.929 301.696 173.153 301.696 175.64H303.696ZM305.021 169.967C305.929 168.338 307.174 167.096 308.766 166.22L307.802 164.468C305.874 165.528 304.361 167.043 303.274 168.993L305.021 169.967ZM308.771 166.217C310.393 165.314 312.274 164.848 314.444 164.848V162.848C311.979 162.848 309.754 163.38 307.797 164.471L308.771 166.217ZM314.444 164.848H319.108V162.848H314.444V164.848ZM319.108 164.848C321.278 164.848 323.142 165.314 324.731 166.214L325.717 164.474C323.786 163.38 321.573 162.848 319.108 162.848V164.848ZM324.748 166.224C326.367 167.099 327.605 168.337 328.48 169.956L330.24 169.004C329.179 167.044 327.66 165.525 325.7 164.464L324.748 166.224ZM328.49 169.973C329.389 171.56 329.856 173.438 329.856 175.64H331.856C331.856 173.148 331.325 170.92 330.23 168.987L328.49 169.973ZM329.856 175.64V183.56H331.856V175.64H329.856ZM329.856 183.56C329.856 185.761 329.389 187.657 328.486 189.277L330.233 190.251C331.325 188.292 331.856 186.052 331.856 183.56H329.856ZM328.484 189.282C327.608 190.874 326.366 192.119 324.737 193.027L325.711 194.773C327.661 193.687 329.176 192.174 330.236 190.246L328.484 189.282ZM324.742 193.024C323.151 193.899 321.283 194.352 319.108 194.352V196.352C321.568 196.352 323.777 195.837 325.706 194.776L324.742 193.024ZM319.108 194.352H314.444V196.352H319.108V194.352ZM319.108 190.984C321.085 190.984 322.739 190.252 323.968 188.776L322.432 187.496C321.608 188.484 320.533 188.984 319.108 188.984V190.984ZM323.959 188.787C325.204 187.335 325.784 185.473 325.784 183.296H323.784C323.784 185.109 323.308 186.473 322.441 187.485L323.959 188.787ZM325.784 183.296V175.904H323.784V183.296H325.784ZM325.784 175.904C325.784 173.727 325.204 171.865 323.959 170.413L322.441 171.715C323.308 172.727 323.784 174.091 323.784 175.904H325.784ZM323.968 170.424C322.739 168.948 321.085 168.216 319.108 168.216V170.216C320.533 170.216 321.608 170.716 322.432 171.704L323.968 170.424ZM319.108 168.216H314.444V170.216H319.108V168.216ZM314.444 168.216C312.467 168.216 310.805 168.948 309.549 170.413L311.067 171.715C311.923 170.716 313.018 170.216 314.444 170.216V168.216ZM309.54 170.424C308.33 171.876 307.768 173.734 307.768 175.904H309.768C309.768 174.085 310.233 172.716 311.076 171.704L309.54 170.424ZM307.768 175.904V183.296H309.768V175.904H307.768ZM307.768 183.296C307.768 185.466 308.33 187.324 309.54 188.776L311.076 187.496C310.233 186.484 309.768 185.115 309.768 183.296H307.768ZM309.549 188.787C310.805 190.252 312.467 190.984 314.444 190.984V188.984C313.018 188.984 311.923 188.484 311.067 187.485L309.549 188.787ZM314.444 190.984H319.108V188.984H314.444V190.984ZM336.296 164.2V163.2H335.296V164.2H336.296ZM341.708 164.2L342.525 163.623L342.226 163.2H341.708V164.2ZM356.492 185.144L355.675 185.721L357.492 188.295V185.144H356.492ZM356.492 164.2V163.2H355.492V164.2H356.492ZM362.432 164.2H363.432V163.2H362.432V164.2ZM362.432 195V196H363.432V195H362.432ZM357.02 195L356.203 195.577L356.502 196H357.02V195ZM342.236 174.056L343.053 173.479L341.236 170.905V174.056H342.236ZM342.236 195V196H343.236V195H342.236ZM336.296 195H335.296V196H336.296V195ZM336.296 165.2H341.708V163.2H336.296V165.2ZM340.891 164.777L355.675 185.721L357.309 184.567L342.525 163.623L340.891 164.777ZM357.492 185.144V164.2H355.492V185.144H357.492ZM356.492 165.2H362.432V163.2H356.492V165.2ZM361.432 164.2V195H363.432V164.2H361.432ZM362.432 194H357.02V196H362.432V194ZM357.837 194.423L343.053 173.479L341.419 174.633L356.203 195.577L357.837 194.423ZM341.236 174.056V195H343.236V174.056H341.236ZM342.236 194H336.296V196H342.236V194ZM337.296 195V164.2H335.296V195H337.296Z" fill="#03B3FF"/>
</svg>
