<svg width="966" height="96" viewBox="0 0 966 96" fill="none" xmlns="http://www.w3.org/2000/svg">
<path d="M30.7915 32C29.5009 32 28.4595 31.6333 27.6675 30.9C26.9049 30.1373 26.5235 29.14 26.5235 27.908V1.2H32.5955V26.72H49.3155V32H30.7915ZM56.2187 32C54.9574 32 53.9307 31.6187 53.1387 30.856C52.3467 30.0933 51.9507 29.096 51.9507 27.864V1.2L75.4467 1.2V6.48L58.0227 6.48V13.608H74.1267V18.888H58.0227V26.72H75.4467V32H56.2187ZM86.7076 6.48H76.9396V1.2H102.548V6.48H92.7796V32H86.7076V6.48ZM104.327 1.2H110.311V11.892H104.327V1.2ZM123.507 32.352C120.281 32.352 117.758 31.4573 115.939 29.668C114.121 27.8493 113.211 25.3267 113.211 22.1H119.195C119.195 23.6253 119.577 24.828 120.339 25.708C121.131 26.5587 122.217 26.984 123.595 26.984L128.479 26.984C129.77 26.984 130.811 26.72 131.603 26.192C132.425 25.6347 132.835 24.9013 132.835 23.992V22.496C132.835 21.0587 131.779 20.164 129.667 19.812L121.571 18.448C118.931 18.008 116.922 17.172 115.543 15.94C114.194 14.6787 113.519 13.08 113.519 11.144V8.68C113.519 7.12533 113.93 5.76133 114.751 4.588C115.602 3.38533 116.79 2.46133 118.315 1.816C119.87 1.17067 121.659 0.848 123.683 0.848H128.655C130.562 0.848 132.249 1.244 133.715 2.036C135.182 2.828 136.311 3.94267 137.103 5.38C137.925 6.788 138.335 8.43067 138.335 10.308H132.351C132.351 9.076 132.014 8.09333 131.339 7.36C130.665 6.59733 129.77 6.216 128.655 6.216H123.683C122.451 6.216 121.454 6.48 120.691 7.008C119.958 7.536 119.591 8.24 119.591 9.12V10.308C119.591 11.7747 120.603 12.684 122.627 13.036L130.679 14.444C133.349 14.9133 135.387 15.7493 136.795 16.952C138.203 18.1253 138.907 19.6507 138.907 21.528V24.432C138.907 25.9867 138.467 27.3653 137.587 28.568C136.737 29.7707 135.534 30.7093 133.979 31.384C132.425 32.0293 130.621 32.352 128.567 32.352L123.507 32.352ZM159.206 32C157.916 32 156.874 31.6333 156.082 30.9C155.32 30.1373 154.938 29.14 154.938 27.908V1.2H161.01V26.72H177.73V32H159.206ZM184.633 32C183.372 32 182.345 31.6187 181.553 30.856C180.761 30.0933 180.365 29.096 180.365 27.864V1.2L203.861 1.2V6.48L186.437 6.48V13.608H202.541V18.888H186.437V26.72H203.861V32H184.633ZM225.594 24.828H214.066L211.338 32H205.002L217.058 1.2H219.786C221.693 1.2 222.984 2.08 223.658 3.84L234.614 32H228.278L225.594 24.828ZM215.694 19.724H223.966L219.874 8.636H219.83L215.694 19.724ZM237.064 1.2H253.432C256.101 1.2 258.242 1.91866 259.856 3.356C261.498 4.79333 262.32 6.68533 262.32 9.032V12.112C262.32 13.6373 261.88 14.972 261 16.116C260.149 17.2307 258.902 18.0813 257.26 18.668V18.756C258.198 19.372 258.902 20.076 259.372 20.868C259.87 21.66 260.354 22.76 260.824 24.168L263.288 32H256.996L254.664 24.696C254.282 23.4347 253.754 22.496 253.08 21.88C252.405 21.264 251.569 20.956 250.572 20.956H243.136V32H237.064V1.2ZM252.288 15.72C253.52 15.72 254.488 15.3973 255.192 14.752C255.896 14.0773 256.248 13.212 256.248 12.156V9.296C256.248 8.44533 255.984 7.77067 255.456 7.272C254.928 6.744 254.224 6.48 253.344 6.48H243.136V15.72H252.288ZM266.444 1.2H271.856L286.64 22.144V1.2H292.58V32H287.168L272.384 11.056V32H266.444V1.2ZM327.862 24.828H316.334L313.606 32H307.27L319.326 1.2H322.054C323.96 1.2 325.251 2.08 325.926 3.84L336.882 32H330.546L327.862 24.828ZM317.962 19.724H326.234L322.142 8.636H322.098L317.962 19.724ZM355.835 32C354.544 32 353.503 31.6333 352.711 30.9C351.948 30.1373 351.567 29.14 351.567 27.908V1.2H357.639V26.72H374.359V32H355.835ZM377.434 1.2H383.506V32L377.434 32V1.2ZM396.54 6.48H386.772V1.2H412.38V6.48H402.612V32H396.54V6.48ZM422.783 6.48H413.015V1.2H438.623V6.48H428.855V32H422.783V6.48ZM445.727 32C444.436 32 443.395 31.6333 442.603 30.9C441.84 30.1373 441.459 29.14 441.459 27.908V1.2L447.531 1.2V26.72H464.251V32H445.727ZM471.154 32C469.893 32 468.866 31.6187 468.074 30.856C467.282 30.0933 466.886 29.096 466.886 27.864V1.2H490.382V6.48H472.958V13.608H489.062V18.888H472.958V26.72H490.382V32H471.154ZM510.579 32C509.318 32 508.291 31.6187 507.499 30.856C506.707 30.0933 506.311 29.096 506.311 27.864V1.2H521.623C524.41 1.2 526.639 1.86 528.311 3.18C530.012 4.5 530.863 6.27467 530.863 8.504V10.704C530.863 11.672 530.614 12.596 530.115 13.476C529.646 14.356 528.971 15.0747 528.091 15.632V15.676C529.499 16.1747 530.628 16.9813 531.479 18.096C532.359 19.2107 532.799 20.4573 532.799 21.836V24.124C532.799 26.5293 531.919 28.4507 530.159 29.888C528.428 31.296 526.082 32 523.119 32H510.579ZM521.623 13.96C522.562 13.96 523.324 13.6667 523.911 13.08C524.498 12.464 524.791 11.6573 524.791 10.66V9.164C524.791 8.34266 524.483 7.69733 523.867 7.228C523.251 6.72933 522.43 6.48 521.403 6.48H512.383V13.96H521.623ZM522.679 26.72C523.97 26.72 524.967 26.4707 525.671 25.972C526.375 25.444 526.727 24.7107 526.727 23.772V21.836C526.727 20.9853 526.419 20.296 525.803 19.768C525.187 19.24 524.366 18.976 523.339 18.976H512.383V26.72H522.679ZM536.69 1.2H542.762V32H536.69V1.2ZM555.796 6.48H546.028V1.2H571.636V6.48H561.868V32H555.796V6.48ZM604.747 24.828H593.219L590.491 32H584.155L596.211 1.2H598.939C600.846 1.2 602.136 2.08 602.811 3.84L613.767 32H607.431L604.747 24.828ZM594.847 19.724H603.119L599.027 8.636H598.983L594.847 19.724ZM620.227 32C618.965 32 617.939 31.6187 617.147 30.856C616.355 30.0933 615.959 29.096 615.959 27.864V1.2H631.271C634.057 1.2 636.287 1.86 637.959 3.18C639.66 4.5 640.511 6.27467 640.511 8.504V10.704C640.511 11.672 640.261 12.596 639.763 13.476C639.293 14.356 638.619 15.0747 637.739 15.632V15.676C639.147 16.1747 640.276 16.9813 641.127 18.096C642.007 19.2107 642.447 20.4573 642.447 21.836V24.124C642.447 26.5293 641.567 28.4507 639.807 29.888C638.076 31.296 635.729 32 632.767 32H620.227ZM631.271 13.96C632.209 13.96 632.972 13.6667 633.559 13.08C634.145 12.464 634.439 11.6573 634.439 10.66V9.164C634.439 8.34266 634.131 7.69733 633.515 7.228C632.899 6.72933 632.077 6.48 631.051 6.48H622.031V13.96H631.271ZM632.327 26.72C633.617 26.72 634.615 26.4707 635.319 25.972C636.023 25.444 636.375 24.7107 636.375 23.772V21.836C636.375 20.9853 636.067 20.296 635.451 19.768C634.835 19.24 634.013 18.976 632.987 18.976H622.031V26.72H632.327ZM656.765 32.352C654.448 32.352 652.395 31.868 650.605 30.9C648.845 29.9027 647.467 28.524 646.469 26.764C645.501 24.9747 645.017 22.9067 645.017 20.56V12.64C645.017 10.2933 645.501 8.24 646.469 6.48C647.467 4.69067 648.845 3.312 650.605 2.344C652.395 1.34667 654.448 0.848 656.765 0.848H661.429C663.747 0.848 665.785 1.34667 667.545 2.344C669.335 3.312 670.713 4.69067 671.681 6.48C672.679 8.24 673.177 10.2933 673.177 12.64V20.56C673.177 22.9067 672.679 24.9747 671.681 26.764C670.713 28.524 669.335 29.9027 667.545 30.9C665.785 31.868 663.747 32.352 661.429 32.352H656.765ZM661.429 26.984C663.131 26.984 664.495 26.368 665.521 25.136C666.577 23.904 667.105 22.2907 667.105 20.296V12.904C667.105 10.9093 666.577 9.296 665.521 8.064C664.495 6.832 663.131 6.216 661.429 6.216H656.765C655.064 6.216 653.685 6.832 652.629 8.064C651.603 9.296 651.089 10.9093 651.089 12.904V20.296C651.089 22.2907 651.603 23.904 652.629 25.136C653.685 26.368 655.064 26.984 656.765 26.984H661.429ZM688.033 32.352C685.863 32.352 683.956 31.8973 682.313 30.988C680.671 30.0493 679.395 28.744 678.485 27.072C677.576 25.4 677.121 23.464 677.121 21.264V1.2H683.193V21.088C683.193 22.848 683.633 24.2707 684.513 25.356C685.423 26.4413 686.596 26.984 688.033 26.984H692.697C694.164 26.984 695.352 26.4413 696.261 25.356C697.171 24.2707 697.625 22.848 697.625 21.088V1.2L703.697 1.2V21.264C703.697 23.464 703.243 25.4 702.333 27.072C701.424 28.744 700.133 30.0493 698.461 30.988C696.789 31.8973 694.868 32.352 692.697 32.352H688.033ZM716.093 6.48H706.325V1.2H731.933V6.48H722.165V32H716.093V6.48ZM747.005 1.2H753.077V13.916H767.421V1.2H773.493V32H767.421V19.196H753.077V32H747.005V1.2ZM789.358 32.352C787.041 32.352 784.988 31.868 783.198 30.9C781.438 29.9027 780.06 28.524 779.062 26.764C778.094 24.9747 777.61 22.9067 777.61 20.56V12.64C777.61 10.2933 778.094 8.24 779.062 6.48C780.06 4.69067 781.438 3.312 783.198 2.344C784.988 1.34667 787.041 0.848 789.358 0.848H794.022C796.34 0.848 798.378 1.34667 800.138 2.344C801.928 3.312 803.306 4.69067 804.274 6.48C805.272 8.24 805.77 10.2933 805.77 12.64V20.56C805.77 22.9067 805.272 24.9747 804.274 26.764C803.306 28.524 801.928 29.9027 800.138 30.9C798.378 31.868 796.34 32.352 794.022 32.352H789.358ZM794.022 26.984C795.724 26.984 797.088 26.368 798.114 25.136C799.17 23.904 799.698 22.2907 799.698 20.296V12.904C799.698 10.9093 799.17 9.296 798.114 8.064C797.088 6.832 795.724 6.216 794.022 6.216H789.358C787.657 6.216 786.278 6.832 785.222 8.064C784.196 9.296 783.682 10.9093 783.682 12.904V20.296C783.682 22.2907 784.196 23.904 785.222 25.136C786.278 26.368 787.657 26.984 789.358 26.984H794.022ZM816.98 32C815.983 32 815.147 31.7507 814.472 31.252C813.798 30.7533 813.328 29.8587 813.064 28.568L807.608 1.2H813.768L817.552 23.068H817.64L824.02 2.828H826.22C826.954 2.828 827.584 3.01866 828.112 3.4C828.67 3.78133 829.095 4.47067 829.388 5.468L834.756 23.024H834.844L838.628 1.2H844.788L839.288 28.568C839.054 29.7413 838.614 30.6067 837.968 31.164C837.352 31.7213 836.502 32 835.416 32H832.864L826.308 10.88H826.22L819.532 32H816.98ZM867.582 6.48H857.814V1.2H883.422V6.48H873.654V32H867.582V6.48ZM886.258 1.2H892.33V13.916H906.674V1.2H912.746V32H906.674V19.196H892.33V32L886.258 32V1.2ZM922.012 32C920.75 32 919.724 31.6187 918.932 30.856C918.14 30.0933 917.744 29.096 917.744 27.864V1.2H941.24V6.48H923.816V13.608H939.92V18.888H923.816V26.72H941.24V32H922.012ZM12.09 95.352C9.83135 95.352 7.83668 94.868 6.10601 93.9C4.40468 92.932 3.08468 91.568 2.14601 89.808C1.20735 88.0187 0.738015 85.9653 0.738015 83.648V75.552C0.738015 73.2347 1.20735 71.196 2.14601 69.436C3.11401 67.6467 4.46335 66.268 6.19402 65.3C7.95402 64.332 9.97802 63.848 12.266 63.848H16.93C19.13 63.848 21.066 64.3173 22.738 65.256C24.41 66.1947 25.7007 67.5147 26.61 69.216C27.5487 70.888 28.018 72.8387 28.018 75.068H22.034C22.034 73.308 21.5647 71.9 20.626 70.844C19.6873 69.7587 18.4553 69.216 16.93 69.216H12.266C10.6233 69.216 9.30335 69.832 8.30602 71.064C7.30868 72.2667 6.81001 73.8507 6.81001 75.816L6.81001 83.384C6.81001 85.3493 7.29402 86.948 8.26202 88.18C9.23002 89.3827 10.506 89.984 12.09 89.984H16.842C18.3967 89.984 19.658 89.3827 20.626 88.18C21.6233 86.9773 22.122 85.3933 22.122 83.428H28.106C28.106 85.804 27.6367 87.9013 26.698 89.72C25.7593 91.5093 24.4393 92.9027 22.738 93.9C21.0367 94.868 19.0713 95.352 16.842 95.352H12.09ZM42.339 95.352C40.0216 95.352 37.9683 94.868 36.179 93.9C34.419 92.9027 33.0403 91.524 32.043 89.764C31.075 87.9747 30.591 85.9067 30.591 83.56V75.64C30.591 73.2933 31.075 71.24 32.043 69.48C33.0403 67.6907 34.419 66.312 36.179 65.344C37.9683 64.3467 40.0216 63.848 42.339 63.848H47.003C49.3203 63.848 51.359 64.3467 53.119 65.344C54.9083 66.312 56.287 67.6907 57.255 69.48C58.2523 71.24 58.751 73.2933 58.751 75.64V83.56C58.751 85.9067 58.2523 87.9747 57.255 89.764C56.287 91.524 54.9083 92.9027 53.119 93.9C51.359 94.868 49.3203 95.352 47.003 95.352H42.339ZM47.003 89.984C48.7043 89.984 50.0683 89.368 51.095 88.136C52.151 86.904 52.679 85.2907 52.679 83.296V75.904C52.679 73.9093 52.151 72.296 51.095 71.064C50.0683 69.832 48.7043 69.216 47.003 69.216H42.339C40.6376 69.216 39.259 69.832 38.203 71.064C37.1763 72.296 36.663 73.9093 36.663 75.904V83.296C36.663 85.2907 37.1763 86.904 38.203 88.136C39.259 89.368 40.6376 89.984 42.339 89.984H47.003ZM62.8708 64.2H68.2828L78.3588 82.504L88.2148 64.2H93.6268V95H87.6868V75.508L81.2188 87.212C80.7788 88.004 80.3242 88.576 79.8548 88.928C79.4148 89.2507 78.9015 89.412 78.3148 89.412H76.6428L68.8108 75.508V95H62.8708V64.2ZM98.6535 64.2H104.065L114.141 82.504L123.997 64.2H129.409V95H123.469V75.508L117.001 87.212C116.561 88.004 116.107 88.576 115.637 88.928C115.197 89.2507 114.684 89.412 114.097 89.412H112.425L104.593 75.508V95H98.6535V64.2ZM145.304 95.352C142.987 95.352 140.933 94.868 139.144 93.9C137.384 92.9027 136.005 91.524 135.008 89.764C134.04 87.9747 133.556 85.9067 133.556 83.56V75.64C133.556 73.2933 134.04 71.24 135.008 69.48C136.005 67.6907 137.384 66.312 139.144 65.344C140.933 64.3467 142.987 63.848 145.304 63.848H149.968C152.285 63.848 154.324 64.3467 156.084 65.344C157.873 66.312 159.252 67.6907 160.22 69.48C161.217 71.24 161.716 73.2933 161.716 75.64V83.56C161.716 85.9067 161.217 87.9747 160.22 89.764C159.252 91.524 157.873 92.9027 156.084 93.9C154.324 94.868 152.285 95.352 149.968 95.352H145.304ZM149.968 89.984C151.669 89.984 153.033 89.368 154.06 88.136C155.116 86.904 155.644 85.2907 155.644 83.296V75.904C155.644 73.9093 155.116 72.296 154.06 71.064C153.033 69.832 151.669 69.216 149.968 69.216H145.304C143.603 69.216 142.224 69.832 141.168 71.064C140.141 72.296 139.628 73.9093 139.628 75.904V83.296C139.628 85.2907 140.141 86.904 141.168 88.136C142.224 89.368 143.603 89.984 145.304 89.984H149.968ZM165.836 64.2H171.248L186.032 85.144V64.2H191.972V95H186.56L171.776 74.056V95H165.836V64.2ZM206.218 95.352C202.991 95.352 200.469 94.4573 198.65 92.668C196.831 90.8493 195.922 88.3267 195.922 85.1H201.906C201.906 86.6253 202.287 87.828 203.05 88.708C203.842 89.5587 204.927 89.984 206.306 89.984H211.19C212.481 89.984 213.522 89.72 214.314 89.192C215.135 88.6347 215.546 87.9013 215.546 86.992V85.496C215.546 84.0587 214.49 83.164 212.378 82.812L204.282 81.448C201.642 81.008 199.633 80.172 198.254 78.94C196.905 77.6787 196.23 76.08 196.23 74.144V71.68C196.23 70.1253 196.641 68.7613 197.462 67.588C198.313 66.3853 199.501 65.4613 201.026 64.816C202.581 64.1707 204.37 63.848 206.394 63.848H211.366C213.273 63.848 214.959 64.244 216.426 65.036C217.893 65.828 219.022 66.9427 219.814 68.38C220.635 69.788 221.046 71.4307 221.046 73.308H215.062C215.062 72.076 214.725 71.0933 214.05 70.36C213.375 69.5973 212.481 69.216 211.366 69.216H206.394C205.162 69.216 204.165 69.48 203.402 70.008C202.669 70.536 202.302 71.24 202.302 72.12V73.308C202.302 74.7747 203.314 75.684 205.338 76.036L213.39 77.444C216.059 77.9133 218.098 78.7493 219.506 79.952C220.914 81.1253 221.618 82.6507 221.618 84.528V87.432C221.618 88.9867 221.178 90.3653 220.298 91.568C219.447 92.7707 218.245 93.7093 216.69 94.384C215.135 95.0293 213.331 95.352 211.278 95.352H206.218ZM244.997 95C243.999 95 243.163 94.7507 242.489 94.252C241.814 93.7533 241.345 92.8587 241.081 91.568L235.625 64.2H241.785L245.569 86.068H245.657L252.037 65.828H254.237C254.97 65.828 255.601 66.0187 256.129 66.4C256.686 66.7813 257.111 67.4707 257.405 68.468L262.773 86.024H262.861L266.645 64.2H272.805L267.305 91.568C267.07 92.7413 266.63 93.6067 265.985 94.164C265.369 94.7213 264.518 95 263.433 95H260.881L254.325 73.88H254.237L247.549 95H244.997ZM286.405 95.352C284.088 95.352 282.034 94.868 280.245 93.9C278.485 92.9027 277.106 91.524 276.109 89.764C275.141 87.9747 274.657 85.9067 274.657 83.56V75.64C274.657 73.2933 275.141 71.24 276.109 69.48C277.106 67.6907 278.485 66.312 280.245 65.344C282.034 64.3467 284.088 63.848 286.405 63.848H291.069C293.386 63.848 295.425 64.3467 297.185 65.344C298.974 66.312 300.353 67.6907 301.321 69.48C302.318 71.24 302.817 73.2933 302.817 75.64V83.56C302.817 85.9067 302.318 87.9747 301.321 89.764C300.353 91.524 298.974 92.9027 297.185 93.9C295.425 94.868 293.386 95.352 291.069 95.352H286.405ZM291.069 89.984C292.77 89.984 294.134 89.368 295.161 88.136C296.217 86.904 296.745 85.2907 296.745 83.296V75.904C296.745 73.9093 296.217 72.296 295.161 71.064C294.134 69.832 292.77 69.216 291.069 69.216H286.405C284.704 69.216 283.325 69.832 282.269 71.064C281.242 72.296 280.729 73.9093 280.729 75.904V83.296C280.729 85.2907 281.242 86.904 282.269 88.136C283.325 89.368 284.704 89.984 286.405 89.984H291.069ZM306.937 64.2H323.305C325.974 64.2 328.115 64.9187 329.729 66.356C331.371 67.7933 332.193 69.6853 332.193 72.032V75.112C332.193 76.6373 331.753 77.972 330.873 79.116C330.022 80.2307 328.775 81.0813 327.133 81.668V81.756C328.071 82.372 328.775 83.076 329.245 83.868C329.743 84.66 330.227 85.76 330.697 87.168L333.161 95H326.869L324.537 87.696C324.155 86.4347 323.627 85.496 322.953 84.88C322.278 84.264 321.442 83.956 320.445 83.956H313.009V95H306.937V64.2ZM322.161 78.72C323.393 78.72 324.361 78.3973 325.065 77.752C325.769 77.0773 326.121 76.212 326.121 75.156V72.296C326.121 71.4453 325.857 70.7707 325.329 70.272C324.801 69.744 324.097 69.48 323.217 69.48H313.009V78.72H322.161ZM355.501 95L345.337 82.064L342.389 85.232V95H336.317V64.2H342.389V77.488L354.621 64.2H362.101L349.429 77.708L362.893 95H355.501ZM373.176 95.352C369.949 95.352 367.426 94.4573 365.608 92.668C363.789 90.8493 362.88 88.3267 362.88 85.1H368.864C368.864 86.6253 369.245 87.828 370.008 88.708C370.8 89.5587 371.885 89.984 373.264 89.984H378.148C379.438 89.984 380.48 89.72 381.272 89.192C382.093 88.6347 382.504 87.9013 382.504 86.992V85.496C382.504 84.0587 381.448 83.164 379.336 82.812L371.24 81.448C368.6 81.008 366.59 80.172 365.212 78.94C363.862 77.6787 363.188 76.08 363.188 74.144V71.68C363.188 70.1253 363.598 68.7613 364.42 67.588C365.27 66.3853 366.458 65.4613 367.984 64.816C369.538 64.1707 371.328 63.848 373.352 63.848H378.324C380.23 63.848 381.917 64.244 383.384 65.036C384.85 65.828 385.98 66.9427 386.772 68.38C387.593 69.788 388.004 71.4307 388.004 73.308H382.02C382.02 72.076 381.682 71.0933 381.008 70.36C380.333 69.5973 379.438 69.216 378.324 69.216H373.352C372.12 69.216 371.122 69.48 370.36 70.008C369.626 70.536 369.26 71.24 369.26 72.12V73.308C369.26 74.7747 370.272 75.684 372.296 76.036L380.348 77.444C383.017 77.9133 385.056 78.7493 386.464 79.952C387.872 81.1253 388.576 82.6507 388.576 84.528V87.432C388.576 88.9867 388.136 90.3653 387.256 91.568C386.405 92.7707 385.202 93.7093 383.648 94.384C382.093 95.0293 380.289 95.352 378.236 95.352H373.176ZM408.874 95C407.613 95 406.586 94.6187 405.794 93.856C405.002 93.0933 404.606 92.096 404.606 90.864V64.2H419.918C422.705 64.2 424.934 64.86 426.606 66.18C428.308 67.5 429.158 69.2747 429.158 71.504V73.704C429.158 74.672 428.909 75.596 428.41 76.476C427.941 77.356 427.266 78.0747 426.386 78.632V78.676C427.794 79.1747 428.924 79.9813 429.774 81.096C430.654 82.2107 431.094 83.4573 431.094 84.836V87.124C431.094 89.5293 430.214 91.4507 428.454 92.888C426.724 94.296 424.377 95 421.414 95H408.874ZM419.918 76.96C420.857 76.96 421.62 76.6667 422.206 76.08C422.793 75.464 423.086 74.6573 423.086 73.66V72.164C423.086 71.3427 422.778 70.6973 422.162 70.228C421.546 69.7293 420.725 69.48 419.698 69.48H410.678V76.96H419.918ZM420.974 89.72C422.265 89.72 423.262 89.4707 423.966 88.972C424.67 88.444 425.022 87.7107 425.022 86.772V84.836C425.022 83.9853 424.714 83.296 424.098 82.768C423.482 82.24 422.661 81.976 421.634 81.976H410.678V89.72H420.974ZM438.813 95C437.552 95 436.525 94.6187 435.733 93.856C434.941 93.0933 434.545 92.096 434.545 90.864V64.2H458.041V69.48H440.617V76.608H456.721V81.888H440.617V89.72H458.041V95H438.813ZM461.734 64.2H484.79V69.48H467.806V77.752H483.162V83.032H467.806V95H461.734V64.2ZM497.858 95.352C495.54 95.352 493.487 94.868 491.698 93.9C489.938 92.9027 488.559 91.524 487.562 89.764C486.594 87.9747 486.11 85.9067 486.11 83.56V75.64C486.11 73.2933 486.594 71.24 487.562 69.48C488.559 67.6907 489.938 66.312 491.698 65.344C493.487 64.3467 495.54 63.848 497.858 63.848H502.522C504.839 63.848 506.878 64.3467 508.638 65.344C510.427 66.312 511.806 67.6907 512.774 69.48C513.771 71.24 514.27 73.2933 514.27 75.64V83.56C514.27 85.9067 513.771 87.9747 512.774 89.764C511.806 91.524 510.427 92.9027 508.638 93.9C506.878 94.868 504.839 95.352 502.522 95.352H497.858ZM502.522 89.984C504.223 89.984 505.587 89.368 506.614 88.136C507.67 86.904 508.198 85.2907 508.198 83.296V75.904C508.198 73.9093 507.67 72.296 506.614 71.064C505.587 69.832 504.223 69.216 502.522 69.216H497.858C496.156 69.216 494.778 69.832 493.722 71.064C492.695 72.296 492.182 73.9093 492.182 75.904V83.296C492.182 85.2907 492.695 86.904 493.722 88.136C494.778 89.368 496.156 89.984 497.858 89.984H502.522ZM518.389 64.2H534.757C537.427 64.2 539.568 64.9187 541.181 66.356C542.824 67.7933 543.645 69.6853 543.645 72.032V75.112C543.645 76.6373 543.205 77.972 542.325 79.116C541.475 80.2307 540.228 81.0813 538.585 81.668V81.756C539.524 82.372 540.228 83.076 540.697 83.868C541.196 84.66 541.68 85.76 542.149 87.168L544.613 95H538.321L535.989 87.696C535.608 86.4347 535.08 85.496 534.405 84.88C533.731 84.264 532.895 83.956 531.897 83.956H524.461V95H518.389V64.2ZM533.613 78.72C534.845 78.72 535.813 78.3973 536.517 77.752C537.221 77.0773 537.573 76.212 537.573 75.156V72.296C537.573 71.4453 537.309 70.7707 536.781 70.272C536.253 69.744 535.549 69.48 534.669 69.48H524.461V78.72H533.613ZM552.038 95C550.776 95 549.75 94.6187 548.958 93.856C548.166 93.0933 547.77 92.096 547.77 90.864V64.2H571.266V69.48H553.842V76.608H569.946V81.888H553.842V89.72H571.266V95H552.038ZM594.542 95C593.545 95 592.709 94.7507 592.034 94.252C591.36 93.7533 590.89 92.8587 590.626 91.568L585.17 64.2H591.33L595.114 86.068H595.202L601.582 65.828H603.782C604.516 65.828 605.146 66.0187 605.674 66.4C606.232 66.7813 606.657 67.4707 606.95 68.468L612.318 86.024H612.406L616.19 64.2H622.35L616.85 91.568C616.616 92.7413 616.176 93.6067 615.53 94.164C614.914 94.7213 614.064 95 612.978 95H610.426L603.87 73.88H603.782L597.094 95H594.542ZM629.608 95C628.347 95 627.32 94.6187 626.528 93.856C625.736 93.0933 625.34 92.096 625.34 90.864V64.2H648.836V69.48H631.412V76.608H647.516V81.888H631.412V89.72H648.836V95H629.608ZM675.237 95.352C672.978 95.352 670.984 94.868 669.253 93.9C667.552 92.932 666.232 91.568 665.293 89.808C664.354 88.0187 663.885 85.9653 663.885 83.648V75.552C663.885 73.2347 664.354 71.196 665.293 69.436C666.261 67.6467 667.61 66.268 669.341 65.3C671.101 64.332 673.125 63.848 675.413 63.848H680.077C682.277 63.848 684.213 64.3173 685.885 65.256C687.557 66.1947 688.848 67.5147 689.757 69.216C690.696 70.888 691.165 72.8387 691.165 75.068H685.181C685.181 73.308 684.712 71.9 683.773 70.844C682.834 69.7587 681.602 69.216 680.077 69.216H675.413C673.77 69.216 672.45 69.832 671.453 71.064C670.456 72.2667 669.957 73.8507 669.957 75.816V83.384C669.957 85.3493 670.441 86.948 671.409 88.18C672.377 89.3827 673.653 89.984 675.237 89.984H679.989C681.544 89.984 682.805 89.3827 683.773 88.18C684.77 86.9773 685.269 85.3933 685.269 83.428H691.253C691.253 85.804 690.784 87.9013 689.845 89.72C688.906 91.5093 687.586 92.9027 685.885 93.9C684.184 94.868 682.218 95.352 679.989 95.352H675.237ZM705.486 95.352C703.169 95.352 701.115 94.868 699.326 93.9C697.566 92.9027 696.187 91.524 695.19 89.764C694.222 87.9747 693.738 85.9067 693.738 83.56V75.64C693.738 73.2933 694.222 71.24 695.19 69.48C696.187 67.6907 697.566 66.312 699.326 65.344C701.115 64.3467 703.169 63.848 705.486 63.848H710.15C712.467 63.848 714.506 64.3467 716.266 65.344C718.055 66.312 719.434 67.6907 720.402 69.48C721.399 71.24 721.898 73.2933 721.898 75.64V83.56C721.898 85.9067 721.399 87.9747 720.402 89.764C719.434 91.524 718.055 92.9027 716.266 93.9C714.506 94.868 712.467 95.352 710.15 95.352H705.486ZM710.15 89.984C711.851 89.984 713.215 89.368 714.242 88.136C715.298 86.904 715.826 85.2907 715.826 83.296V75.904C715.826 73.9093 715.298 72.296 714.242 71.064C713.215 69.832 711.851 69.216 710.15 69.216H705.486C703.785 69.216 702.406 69.832 701.35 71.064C700.323 72.296 699.81 73.9093 699.81 75.904V83.296C699.81 85.2907 700.323 86.904 701.35 88.136C702.406 89.368 703.785 89.984 705.486 89.984H710.15ZM726.018 64.2H731.43L746.214 85.144V64.2H752.154V95H746.742L731.958 74.056V95H726.018V64.2ZM757.16 64.2L780.216 64.2V69.48L763.232 69.48V77.752L778.588 77.752V83.032L763.232 83.032V95H757.16V64.2ZM783.715 64.2H789.787V95H783.715V64.2ZM805.813 95.352C803.554 95.352 801.559 94.868 799.829 93.9C798.098 92.932 796.749 91.568 795.781 89.808C794.842 88.0187 794.373 85.9653 794.373 83.648V75.552C794.373 73.2347 794.842 71.196 795.781 69.436C796.749 67.6467 798.098 66.268 799.829 65.3C801.589 64.332 803.613 63.848 805.901 63.848H810.829C813.029 63.848 814.965 64.288 816.637 65.168C818.309 66.048 819.599 67.2947 820.509 68.908C821.447 70.5213 821.917 72.384 821.917 74.496H815.933C815.933 72.912 815.463 71.636 814.525 70.668C813.586 69.7 812.354 69.216 810.829 69.216H805.901C804.258 69.216 802.938 69.832 801.941 71.064C800.943 72.2667 800.445 73.8507 800.445 75.816V83.384C800.445 85.3493 800.929 86.948 801.897 88.18C802.894 89.3827 804.199 89.984 805.813 89.984H811.005C812.501 89.984 813.733 89.4413 814.701 88.356C815.698 87.2707 816.197 85.9213 816.197 84.308V83.34H807.661V78.06H822.181V84.308C822.181 86.4493 821.711 88.356 820.773 90.028C819.834 91.7 818.514 93.0053 816.813 93.944C815.111 94.8827 813.175 95.352 811.005 95.352H805.813ZM836.873 95.352C834.702 95.352 832.795 94.8973 831.153 93.988C829.51 93.0493 828.234 91.744 827.325 90.072C826.415 88.4 825.961 86.464 825.961 84.264V64.2H832.033V84.088C832.033 85.848 832.473 87.2707 833.353 88.356C834.262 89.4413 835.435 89.984 836.873 89.984H841.537C843.003 89.984 844.191 89.4413 845.101 88.356C846.01 87.2707 846.465 85.848 846.465 84.088V64.2H852.537V84.264C852.537 86.464 852.082 88.4 851.173 90.072C850.263 91.744 848.973 93.0493 847.301 93.988C845.629 94.8973 843.707 95.352 841.537 95.352H836.873ZM857.365 64.2H873.733C876.402 64.2 878.543 64.9187 880.157 66.356C881.799 67.7933 882.621 69.6853 882.621 72.032V75.112C882.621 76.6373 882.181 77.972 881.301 79.116C880.45 80.2307 879.203 81.0813 877.561 81.668V81.756C878.499 82.372 879.203 83.076 879.673 83.868C880.171 84.66 880.655 85.76 881.125 87.168L883.589 95H877.297L874.965 87.696C874.583 86.4347 874.055 85.496 873.381 84.88C872.706 84.264 871.87 83.956 870.873 83.956H863.437V95H857.365V64.2ZM872.589 78.72C873.821 78.72 874.789 78.3973 875.493 77.752C876.197 77.0773 876.549 76.212 876.549 75.156V72.296C876.549 71.4453 876.285 70.7707 875.757 70.272C875.229 69.744 874.525 69.48 873.645 69.48H863.437V78.72H872.589ZM891.013 95C889.752 95 888.725 94.6187 887.933 93.856C887.141 93.0933 886.745 92.096 886.745 90.864V64.2H910.241V69.48H892.817V76.608H908.921V81.888H892.817V89.72H910.241V95H891.013ZM926.61 64.2H932.682V95H926.61V64.2ZM945.716 69.48H935.948V64.2H961.556V69.48H951.788V95H945.716V69.48ZM962.26 95.44C961.174 95.44 960.294 95.1173 959.62 94.472C958.974 93.7973 958.652 92.9173 958.652 91.832C958.652 90.7467 958.974 89.8813 959.62 89.236C960.294 88.5613 961.174 88.224 962.26 88.224C963.345 88.224 964.21 88.5613 964.856 89.236C965.53 89.8813 965.868 90.7467 965.868 91.832C965.868 92.9173 965.53 93.7973 964.856 94.472C964.21 95.1173 963.345 95.44 962.26 95.44Z" fill="url(#paint0_linear)"/>
<defs>
<linearGradient id="paint0_linear" x1="854.658" y1="99.26" x2="836.329" y2="-84.2277" gradientUnits="userSpaceOnUse">
<stop stop-color="#DEFB48"/>
<stop offset="1" stop-color="#03B3FF"/>
</linearGradient>
</defs>
</svg>
