
<svg width="113" height="50" viewBox="0 0 113 50" fill="none" xmlns="http://www.w3.org/2000/svg">
<path d="M3.344 1.84H0L0 0L8.864 0V1.84H5.52V11.2H3.344V1.84Z" fill="white"/>
<path d="M10.7494 9.36V1.84L12.5894 0L18.3494 0L20.1894 1.84V9.36L18.3494 11.2H12.5894L10.7494 9.36ZM17.1974 9.344L18.0134 8.528V2.672L17.1974 1.856H13.7414L12.9254 2.672V8.528L13.7414 9.344H17.1974Z" fill="white"/>
<path d="M23.1125 0L25.2885 0V4.688H26.9845L29.6885 0L32.1365 0L28.8565 5.584L32.4085 11.2H29.9125L26.9685 6.544H25.2885V11.2H23.1125V0Z" fill="white"/>
<path d="M34.5344 0L42.6304 0V1.84H36.7104V4.672H42.1664V6.48H36.7104V9.36H42.6304V11.2H34.5344V0Z" fill="white"/>
<path d="M45.2375 0L47.1895 0L52.1815 7.6H52.2135V0L54.3095 0V11.2H52.3575L47.3655 3.616H47.3335V11.2H45.2375V0Z" fill="white"/>
<path d="M0.8 19H8.896V20.84H2.976V23.672H8.432V25.48H2.976V28.36H8.896V30.2H0.8L0.8 19Z" fill="white"/>
<path d="M11.5031 19H13.4551L18.4471 26.6H18.4791V19H20.5751V30.2H18.6231L13.6311 22.616H13.5991V30.2H11.5031V19Z" fill="white"/>
<path d="M23.4994 28.36V20.84L25.3394 19H30.9074L32.7154 20.808V22.52H30.5394V21.608L29.7874 20.856H26.4914L25.6754 21.672V27.528L26.4914 28.344H29.8194L30.6034 27.56V25.816H28.2034V23.96H32.7154V28.36L30.8754 30.2H25.3394L23.4994 28.36Z" fill="white"/>
<path d="M35.5519 19H37.7279V30.2H35.5519V19Z" fill="white"/>
<path d="M40.8937 19H42.8457L47.8377 26.6H47.8697V19H49.9657V30.2H48.0137L43.0217 22.616H42.9897V30.2H40.8937V19Z" fill="white"/>
<path d="M53.05 19H61.146V20.84H55.226V23.672H60.682V25.48H55.226V28.36H61.146V30.2H53.05V19Z" fill="white"/>
<path d="M63.7531 19H71.8491V20.84H65.9291V23.672H71.3851V25.48H65.9291V28.36H71.8491V30.2H63.7531V19Z" fill="white"/>
<path d="M83.2562 26.488V30.2H81.0802V26.984L80.1202 25.912H76.6323V30.2H74.4562V19H81.4803L83.1922 20.728V24.12L82.1043 25.224L83.2562 26.488ZM76.6323 24.12H80.4882L81.0483 23.56V21.384L80.4882 20.824H76.6323V24.12Z" fill="white"/>
<path d="M86.3331 19H88.5091V30.2H86.3331V19Z" fill="white"/>
<path d="M91.675 19H93.627L98.619 26.6H98.651V19H100.747V30.2H98.795L93.803 22.616H93.771V30.2H91.675V19Z" fill="white"/>
<path d="M103.671 28.36V20.84L105.511 19H111.079L112.887 20.808V22.52H110.711V21.608L109.959 20.856H106.663L105.847 21.672V27.528L106.663 28.344H109.991L110.775 27.56V25.816H108.375V23.96H112.887V28.36L111.047 30.2H105.511L103.671 28.36Z" fill="white"/>
<path d="M0.64 47.36V39.84L2.48 38H7.952L9.76 39.808V41.52H7.584V40.608L6.832 39.856H3.632L2.816 40.672V46.528L3.632 47.344H6.832L7.584 46.592V45.68H9.76V47.392L7.952 49.2H2.48L0.64 47.36Z" fill="white"/>
<path d="M12.1244 47.36V39.84L13.9644 38H19.7244L21.5644 39.84V47.36L19.7244 49.2H13.9644L12.1244 47.36ZM18.5724 47.344L19.3884 46.528V40.672L18.5724 39.856H15.1164L14.3004 40.672V46.528L15.1164 47.344H18.5724Z" fill="white"/>
<path d="M24.4875 38H26.5035L29.8315 45.232H29.8635L33.2075 38H35.2235V49.2H33.1275V42.384H33.0955L30.5195 47.632H29.1755L26.6155 42.384H26.5835V49.2H24.4875V38Z" fill="white"/>
<path d="M38.3 38H40.316L43.644 45.232H43.676L47.02 38H49.036V49.2H46.94V42.384H46.908L44.332 47.632H42.988L40.428 42.384H40.396V49.2H38.3V38Z" fill="white"/>
<path d="M51.9525 47.36V39.84L53.7925 38H59.5525L61.3925 39.84V47.36L59.5525 49.2H53.7925L51.9525 47.36ZM58.4005 47.344L59.2165 46.528V40.672L58.4005 39.856H54.9445L54.1285 40.672V46.528L54.9445 47.344H58.4005Z" fill="white"/>
<path d="M64.3156 38H66.2676L71.2596 45.6H71.2916V38H73.3876V49.2H71.4356L66.4436 41.616H66.4116V49.2H64.3156V38Z" fill="white"/>
<path d="M76.2319 47.472V45.872H78.3759V46.816L78.9039 47.344H82.2159L82.7599 46.8V44.944L82.2319 44.416H77.9919L76.2639 42.688V39.728L77.9919 38H83.0479L84.7759 39.728V41.344H82.6319V40.384L82.1039 39.856H78.9359L78.4079 40.384V42.032L78.9359 42.56H83.1759L84.9039 44.288V47.44L83.1439 49.2H77.9599L76.2319 47.472Z" fill="white"/>
</svg>
