
<svg width="109" height="52" viewBox="0 0 109 52" fill="none" xmlns="http://www.w3.org/2000/svg">
<path fill-rule="evenodd" clip-rule="evenodd" d="M74.4002 51.5174L66.0932 43.1697V25.9972L91.9636 0H107.866L108.815 0.954026V8.58625L94.0997 23.6122L95.5237 25.1625H107.628L108.815 26.4743V34.5835L91.9636 51.5174H74.4002ZM83.6566 9.54028V25.2817L91.7262 33.391H107.866V26.1165H95.049L91.2516 22.1811V12.8794L95.5237 8.467H107.866V0.954026H92.2009L83.6566 9.54028ZM8.23409 51.6431V26.2496H0V17.264L16.9455 0.251304H25.7763L27.2083 1.689L29.1176 0.251304H42.7218V9.35671L34.4877 17.8631V34.5164L17.1842 51.6431H8.23409ZM26.1343 8.75768V34.0372H33.6524V9.35671L25.2989 0.970152H17.9002V8.75768H26.1343ZM42.0058 0.970152H30.7883L38.1871 8.39825H42.0058V0.970152Z" fill="#0B0A15"/>
<path fill-rule="evenodd" clip-rule="evenodd" d="M34.1775 51.5174V42.6927V38.2803V30.0519L34.1915 25.878H34.4148V17.1725L51.5035 0H76.8993V9.54028V17.1725L72.9831 21.9426L70.2537 24.8047V25.401H76.8993V34.822L60.2852 51.5174H34.1775ZM76.1872 26.2358H52.2156V33.391H52.2574V33.4293H76.2291V26.2741H76.1872V26.2358ZM71.9151 13.5949H51.9782V20.2731H52.0201V20.3115H71.9569V13.6333H71.9151V13.5949ZM76.1872 0.71552H52.2156V8.10924H52.2574V8.14762H76.2291V0.753907H76.1872V0.71552Z" fill="#0B0A15"/>
</svg>
