<svg width="1485" height="1373" viewBox="0 0 1485 1373" fill="none" xmlns="http://www.w3.org/2000/svg">
<g clip-path="url(#clip0_7666:6785)">
<path d="M1000.93 785.593C1088.03 906.539 1039.38 859.558 960.587 806.231C914.382 774.961 809.158 831.685 749.039 814.57C685.357 796.445 593.907 720.576 551.43 781.573C490.541 869.016 408.207 886.267 339.521 788.907C293.709 723.972 348.455 591.516 325.476 501.4C300.967 405.336 194.596 302.735 220.754 231.629C260.624 123.237 380.902 116.084 409.003 86.9075C466.525 27.1872 515.614 47.5422 559.178 148.019C588.679 216.063 530.327 348.008 571.693 400.813C619.353 461.648 739.215 442.463 771.658 483.267C813.159 535.461 763.908 643.469 804.167 696.608C835.63 738.127 955.786 722.911 1000.93 785.593Z" stroke="url(#paint0_linear_7666:6785)" stroke-miterlimit="10"/>
<path d="M1007.28 782.734C1096.42 905.186 1046.36 861.688 966.513 811.397C919.345 781.686 814.619 840.554 753.023 823.76C687.907 806.005 595.207 728.484 552.003 787.656C490.055 872.333 407.865 889.81 340.814 792.94C296.007 728.2 352.411 597.142 330.517 507.493C307.303 412.446 201.659 310.42 227.578 239.483C266.399 133.565 386.94 125.857 414.907 95.6513C473.028 32.8884 522.384 48.4133 567.439 145.825C597.887 211.652 541.175 343.366 583.128 396.187C631.036 456.668 750.748 437.914 782.549 479.041C823.232 531.657 771.82 639.228 811.257 692.936C842.008 734.821 962.029 720.278 1007.28 782.734Z" stroke="url(#paint1_linear_7666:6785)" stroke-miterlimit="10"/>
<path d="M1013.72 779.989C1104.52 904.005 1053.16 864.164 972.519 816.959C924.434 788.808 820.154 849.659 757.071 833.114C690.518 815.656 596.654 736.414 552.683 793.808C489.683 875.715 407.594 893.429 342.179 797.065C298.369 732.525 356.439 602.884 335.632 513.691C313.698 419.675 208.771 318.193 234.449 247.418C272.3 143.801 393.035 135.624 420.886 104.495C479.545 38.9224 529.207 49.4863 575.755 143.788C607.134 207.366 552.12 338.831 594.638 391.638C642.84 451.829 762.42 433.63 793.547 475.15C833.321 528.193 779.66 635.297 818.272 689.562C848.309 731.778 968.246 717.889 1013.72 779.989Z" stroke="url(#paint2_linear_7666:6785)" stroke-miterlimit="10"/>
<path d="M1020.08 777.281C1112.59 902.629 1060.07 866.571 978.776 822.543C929.767 795.996 825.902 858.793 761.238 842.488C693.163 825.327 598.115 744.359 553.345 799.988C489.294 879.115 407.266 897.09 343.505 801.254C300.697 736.914 360.428 608.707 340.703 519.968C320.038 426.962 215.821 326.011 241.265 255.407C278.196 153.934 399.077 145.359 426.819 113.388C485.886 45.3129 535.842 50.5655 583.812 141.551C616.16 202.912 562.942 334.285 606.082 387.145C654.532 446.982 773.942 429.272 804.4 471.129C843.317 524.613 787.483 631.243 825.269 686.065C854.609 728.639 974.439 715.443 1020.08 777.281Z" stroke="url(#paint3_linear_7666:6785)" stroke-miterlimit="10"/>
<path d="M1026.42 774.731C1120.6 901.356 1066.92 869.09 985.062 828.248C935.147 803.344 831.722 868.064 765.451 852.011C695.835 835.152 599.617 752.446 554.039 806.319C488.965 882.633 406.912 900.931 344.741 805.669C302.884 741.533 364.207 614.74 345.573 526.447C326.145 434.42 222.681 333.983 248.042 263.566C283.963 163.845 404.885 154.821 432.546 122.073C491.819 51.8947 542.231 51.5846 591.701 139.155C625.128 198.335 573.864 329.771 617.499 382.798C666.383 442.201 785.69 424.962 815.5 467.18C853.55 521.062 795.456 627.2 832.342 682.627C860.929 725.59 980.631 713.171 1026.42 774.731Z" stroke="url(#paint4_linear_7666:6785)" stroke-miterlimit="10"/>
<path d="M1032.72 772.137C1128.53 899.99 1073.8 871.585 991.497 833.999C940.699 810.801 837.724 877.42 769.775 861.632C698.613 845.097 601.233 760.643 554.729 812.609C488.775 886.313 406.689 904.841 346.114 810.047C305.251 746.103 368.208 620.753 350.631 532.902C332.415 441.842 229.632 341.9 254.795 271.669C289.893 173.704 410.881 164.35 438.48 130.899C497.951 58.8141 548.614 52.8007 599.437 136.827C633.886 193.782 584.615 325.263 628.879 378.402C678.084 437.476 797.237 420.77 826.398 463.353C863.563 517.633 803.303 623.248 839.342 679.226C867.221 722.545 986.786 710.851 1032.72 772.137Z" stroke="url(#paint5_linear_7666:6785)" stroke-miterlimit="10"/>
<path d="M1039.01 769.671C1136.37 898.63 1080.6 874.1 997.981 839.792C946.298 818.327 843.761 886.79 774.102 871.259C701.334 855.033 602.838 768.831 555.469 819.004C488.507 889.939 406.346 908.77 347.412 814.546C307.541 750.8 372.141 626.93 355.649 539.506C338.647 449.424 236.556 349.951 261.52 279.889C295.849 183.546 416.88 173.903 444.439 139.794C504.033 66.0438 554.865 54.1635 606.99 134.54C642.48 189.263 595.317 320.849 640.237 374.124C689.767 432.877 808.766 416.72 837.269 459.683C873.501 514.288 811.067 619.303 846.186 675.727C873.4 719.453 992.861 708.548 1039.01 769.671Z" stroke="url(#paint6_linear_7666:6785)" stroke-miterlimit="10"/>
<path d="M1045.27 767.293C1144.11 897.274 1087.36 876.649 1004.53 845.63C951.986 825.951 849.889 896.229 778.468 880.954C704.071 865.046 604.475 777.096 556.235 825.474C488.274 893.631 405.984 912.774 348.693 819.138C309.818 755.596 376.053 633.215 360.646 546.212C344.864 457.11 243.46 358.083 268.23 288.195C301.825 193.383 422.887 183.475 450.426 148.741C510.07 73.5113 560.96 55.6263 614.345 132.257C650.906 184.74 605.976 316.493 651.579 369.933C701.443 428.372 820.272 412.789 848.128 456.13C883.451 511.093 818.877 615.512 853.117 672.439C879.634 716.54 998.959 706.394 1045.27 767.293Z" stroke="url(#paint7_linear_7666:6785)" stroke-miterlimit="10"/>
<path d="M1051.5 765.009C1151.72 895.884 1094.07 879.216 1011.22 851.547C957.839 833.721 856.173 905.756 782.921 890.746C706.843 875.154 606.159 785.458 557.02 832.039C488.061 897.413 405.6 916.874 349.952 823.848C312.067 760.514 379.944 639.635 365.622 553.054C351.042 464.916 250.322 366.322 274.89 296.596C307.815 203.16 428.9 192.998 456.449 157.676C516.12 81.1806 566.989 57.3098 621.614 130.2C659.227 180.393 616.612 312.26 662.874 365.826C713.067 423.95 831.722 408.951 858.918 452.677C893.324 507.99 826.636 611.797 859.997 669.21C885.839 713.687 1005.02 704.322 1051.5 765.009Z" stroke="url(#paint8_linear_7666:6785)" stroke-miterlimit="10"/>
<path d="M1057.7 762.832C1159.24 894.52 1100.73 881.812 1017.98 857.508C963.777 841.594 862.549 915.371 787.417 900.635C709.635 885.381 607.89 793.941 557.838 838.716C487.882 901.301 405.206 921.079 351.206 828.688C314.311 765.557 383.828 646.208 370.591 560.031C357.202 472.854 257.157 374.668 281.533 305.106C313.823 212.937 434.94 202.528 462.528 166.637C522.089 89.1525 572.749 59.0464 628.5 127.99C667.232 175.893 627.134 308.031 674.147 361.827C724.681 419.65 843.151 405.26 869.691 449.379C903.171 505.029 834.39 608.19 866.863 666.075C892.024 710.932 1011.06 702.349 1057.7 762.832Z" stroke="url(#paint9_linear_7666:6785)" stroke-miterlimit="10"/>
<path d="M1063.86 760.764C1166.68 893.201 1107.32 884.431 1024.74 863.494C969.744 849.554 868.982 925.045 791.935 910.608C712.427 895.711 609.645 802.55 558.677 845.506C487.738 905.294 404.782 925.395 352.431 833.656C316.525 770.734 387.685 652.927 375.535 567.143C363.322 480.917 263.958 383.118 288.131 313.718C319.834 222.703 440.983 212.047 468.639 175.606C528.032 97.35 578.324 60.9433 635.124 125.864C675.007 171.444 637.581 303.89 685.384 357.938C736.253 415.447 854.513 401.665 880.397 446.176C912.954 502.158 842.107 604.658 873.689 663.008C898.168 708.245 1017.05 700.472 1063.86 760.764Z" stroke="url(#paint10_linear_7666:6785)" stroke-miterlimit="10"/>
<path d="M1069.99 758.827C1174.03 891.949 1113.83 887.099 1031.52 869.53C975.76 857.629 875.474 934.816 796.469 920.695C715.209 906.168 611.426 811.314 559.524 852.435C487.627 909.399 404.383 929.877 353.688 838.883C318.749 776.169 391.528 659.891 380.46 574.477C369.408 489.176 270.707 391.719 294.689 322.461C325.845 232.492 447.026 221.589 474.783 184.602C533.903 105.835 583.586 62.9721 641.315 123.683C682.424 166.912 647.903 299.773 696.584 354.169C747.797 411.39 865.851 398.252 891.076 443.165C922.696 499.464 849.803 601.268 880.488 660.06C904.298 705.678 1023.01 698.714 1069.99 758.827Z" stroke="url(#paint11_linear_7666:6785)" stroke-miterlimit="10"/>
<path d="M1076.08 757.023C1181.26 890.73 1120.27 889.808 1038.36 875.619C981.876 865.833 882.082 944.685 801.061 930.899C718.019 916.769 613.242 820.24 560.397 859.518C487.53 913.679 403.91 934.459 354.859 844.155C320.91 781.649 395.325 666.957 385.354 581.923C375.463 497.545 277.424 400.436 301.212 331.331C331.851 242.314 453.086 231.147 480.976 193.622C539.809 114.466 588.728 65.2704 647.368 121.824C689.684 162.644 658.208 295.821 707.745 350.52C759.311 407.461 877.149 394.981 901.713 440.307C932.388 496.91 857.474 597.99 887.253 657.215C910.389 703.227 1028.93 697.086 1076.08 757.023Z" stroke="url(#paint12_linear_7666:6785)" stroke-miterlimit="10"/>
<path d="M1082.13 755.361C1188.41 889.614 1126.63 892.584 1045.18 881.752C987.993 874.146 888.713 954.64 805.658 941.217C720.816 927.509 615.086 829.344 561.293 866.755C487.459 918.101 403.41 939.169 356.013 849.581C323.051 787.289 399.106 674.195 390.228 589.533C381.479 506.086 284.104 409.297 307.698 340.344C337.852 252.186 459.143 240.744 487.203 202.668C545.702 123.297 593.644 67.8085 653.113 120.16C696.677 158.509 668.436 291.991 718.866 347.025C770.791 403.688 888.394 391.894 912.294 437.639C942.016 494.537 865.11 594.868 893.988 654.51C916.448 700.904 1034.81 695.588 1082.13 755.361Z" stroke="url(#paint13_linear_7666:6785)" stroke-miterlimit="10"/>
<path d="M1088.13 753.856C1195.49 888.625 1132.89 895.448 1051.95 887.937C994.09 882.572 895.347 964.687 810.232 951.661C723.578 938.398 616.927 838.646 562.179 874.172C487.39 922.705 402.867 944.033 357.111 855.191C325.138 793.107 402.83 681.639 395.053 597.345C387.443 514.818 290.728 418.324 314.123 349.517C343.837 262.132 465.204 250.387 493.469 211.758C551.586 132.326 598.323 70.6071 658.542 118.723C703.379 154.546 678.579 288.285 729.936 343.676C782.227 400.073 899.587 388.975 922.811 435.147C951.576 492.328 872.699 591.875 900.67 651.916C922.471 698.712 1040.63 694.241 1088.13 753.856Z" stroke="url(#paint14_linear_7666:6785)" stroke-miterlimit="10"/>
<path d="M1094.08 752.522C1202.49 887.768 1139.07 898.411 1058.69 894.207C1000.19 891.146 902 974.853 814.81 962.258C726.329 949.477 618.786 848.18 563.083 881.802C487.35 927.516 402.298 949.083 358.188 861.006C327.204 799.136 406.527 689.315 399.853 605.373C393.362 523.741 297.304 427.527 320.504 358.854C349.798 272.147 471.268 260.082 499.778 220.878C557.477 141.543 602.768 73.712 663.66 117.573C709.8 150.803 688.648 284.73 740.958 340.484C793.621 396.617 910.718 386.244 933.273 432.856C961.069 490.305 880.258 589.039 907.313 649.465C928.445 696.661 1046.41 693.046 1094.08 752.522Z" stroke="url(#paint15_linear_7666:6785)" stroke-miterlimit="10"/>
<path d="M1099.99 751.366C1209.38 887.013 1145.16 901.475 1065.45 900.556C1006.35 899.874 908.727 985.146 819.412 972.999C729.077 960.715 620.655 857.927 563.984 889.632C487.316 932.516 401.695 954.3 359.221 867.008C329.219 805.349 410.181 697.194 404.613 613.6C399.237 532.869 303.832 436.909 326.837 368.372C355.744 282.259 477.328 269.833 506.133 230.037C563.372 150.937 606.984 77.159 668.478 116.763C715.944 147.332 698.645 281.337 751.93 337.478C804.967 393.359 921.793 383.725 943.666 430.784C970.49 488.491 887.765 586.393 913.909 647.188C934.384 694.782 1052.14 692.03 1099.99 751.366Z" stroke="url(#paint16_linear_7666:6785)" stroke-miterlimit="10"/>
<path d="M1105.84 750.4C1216.2 886.45 1151.18 904.69 1072.12 907.002C1012.46 908.746 915.403 995.551 823.966 983.903C731.772 972.154 622.502 867.93 564.857 897.692C487.272 937.752 401.031 959.705 360.191 873.225C331.177 811.78 413.766 705.311 409.308 622.066C405.046 542.224 310.296 446.49 333.108 378.083C361.653 292.492 483.375 279.678 512.51 239.266C569.268 160.519 610.947 80.9639 672.956 116.31C721.781 144.142 708.553 278.108 762.853 334.657C816.27 390.288 932.811 381.418 954.001 428.931C979.849 486.886 895.248 583.929 920.478 645.081C940.276 693.078 1057.81 691.2 1105.84 750.4Z" stroke="url(#paint17_linear_7666:6785)" stroke-miterlimit="10"/>
<path d="M1111.63 749.641C1222.97 886.082 1157.12 908.071 1078.74 913.567C1018.53 917.791 922.055 1006.1 828.496 994.976C734.436 983.789 624.344 878.203 565.737 906.004C487.239 943.236 400.349 965.321 361.132 879.674C333.099 818.446 417.322 713.681 413.979 630.769C410.8 551.802 316.699 456.276 339.324 387.989C367.523 302.868 489.409 289.632 518.914 248.558C575.161 170.254 614.674 85.1545 677.114 116.266C727.328 141.284 718.371 275.06 773.707 332.028C827.512 387.417 943.743 379.327 964.241 427.296C989.11 485.495 902.663 581.645 926.978 643.142C946.12 691.554 1063.42 690.562 1111.63 749.641Z" stroke="url(#paint18_linear_7666:6785)" stroke-miterlimit="10"/>
<path d="M1117.37 749.083C1229.66 885.917 1163.01 911.618 1085.29 920.249C1024.56 926.993 928.591 1016.77 832.871 1006.21C736.974 995.624 626.146 888.756 566.595 914.566C487.208 948.969 399.618 971.145 362.025 886.348C334.973 825.338 420.828 722.305 418.606 639.721C416.503 561.616 323.063 466.273 345.492 398.104C373.363 313.401 495.435 299.703 525.352 257.939C581.072 180.141 618.207 89.7758 681.022 116.711C732.64 138.845 728.119 272.219 784.517 329.609C838.711 384.755 954.619 377.465 974.423 425.907C998.31 484.336 910.051 579.575 933.443 641.399C951.918 690.223 1068.97 690.118 1117.37 749.083Z" stroke="url(#paint19_linear_7666:6785)" stroke-miterlimit="10"/>
<path d="M1123.04 748.741C1236.26 885.914 1168.83 915.325 1091.85 927.054C1030.64 936.382 935.208 1027.6 837.33 1017.63C739.545 1007.67 627.933 899.577 567.412 923.389C487.147 954.962 398.832 977.176 362.844 893.258C336.773 832.465 424.253 731.185 423.155 648.925C422.123 571.675 329.338 476.497 351.58 408.431C379.133 324.108 501.416 309.899 531.788 267.411C587.003 190.164 621.588 94.8389 684.714 117.666C737.749 136.84 737.802 269.594 795.259 327.398C849.851 382.31 965.415 375.837 984.517 424.76C1007.42 483.414 917.378 577.71 939.855 639.857C957.662 689.093 1074.47 689.886 1123.04 748.741Z" stroke="url(#paint20_linear_7666:6785)" stroke-miterlimit="10"/>
<path d="M1128.65 748.614C1242.81 886.15 1174.61 919.23 1098.33 934.004C1036.68 945.945 941.767 1038.59 841.759 1029.25C742.073 1019.94 629.701 910.699 568.199 932.493C487.078 961.242 398.007 983.435 363.614 900.41C338.519 839.833 427.625 740.329 427.658 658.384C427.688 581.981 335.56 486.938 357.61 418.974C384.86 334.996 507.375 320.242 538.239 276.977C592.944 200.298 624.846 100.358 688.233 119.16C742.686 135.312 747.419 267.196 805.94 325.398C860.928 380.082 976.132 374.443 994.524 423.852C1016.44 482.724 924.65 576.052 946.209 638.504C963.353 688.164 1079.89 689.863 1128.65 748.614Z" stroke="url(#paint21_linear_7666:6785)" stroke-miterlimit="10"/>
<path d="M1134.21 748.705C1249.31 886.627 1180.35 923.341 1104.75 941.09C1042.68 955.663 948.249 1049.71 846.131 1041.04C744.548 1032.41 631.415 922.103 568.942 941.859C486.983 967.782 397.134 989.909 364.324 907.802C340.204 847.447 430.935 749.741 432.108 668.101C433.193 592.532 341.719 497.608 363.58 429.735C390.534 346.058 513.317 330.705 544.726 286.615C598.924 210.533 628.045 106.326 691.647 121.21C747.521 134.285 756.977 265.032 816.557 323.609C871.946 378.064 986.77 373.272 1004.45 423.178C1025.37 482.257 931.875 574.603 952.517 637.343C969 687.434 1085.25 690.045 1134.21 748.705Z" stroke="url(#paint22_linear_7666:6785)" stroke-miterlimit="10"/>
<path d="M1139.71 749.003C1255.77 887.331 1186.08 927.655 1111.11 948.321C1048.64 965.54 954.66 1060.97 850.452 1053C746.963 1045.08 633.089 933.791 569.649 951.499C486.873 974.596 396.224 996.594 364.985 915.43C341.84 855.291 434.189 759.411 436.501 678.076C438.628 603.325 347.815 508.499 369.496 440.708C396.168 357.297 519.245 341.29 551.248 296.319C604.958 220.851 631.225 112.733 694.996 123.806C752.283 133.749 766.494 263.095 827.13 322.029C882.927 376.259 997.353 372.337 1014.3 422.746C1034.24 482.024 939.065 573.361 958.785 636.382C974.591 686.899 1090.56 690.432 1139.71 749.003Z" stroke="url(#paint23_linear_7666:6785)" stroke-miterlimit="10"/>
<path d="M1145.15 749.502C1262.18 888.223 1191.8 932.128 1117.48 955.668C1054.64 975.571 961.068 1072.37 854.763 1065.13C749.356 1057.95 634.729 945.754 570.306 961.387C486.733 981.669 395.272 1003.48 365.589 923.265C343.414 863.346 437.383 769.308 440.846 688.276C444.005 614.335 353.866 519.582 375.349 451.869C401.735 368.721 525.132 352.011 557.77 306.109C611.018 231.221 634.423 119.559 698.328 126.931C757.02 133.706 775.956 261.382 837.63 320.64C893.838 374.65 1007.84 371.614 1024.06 422.532C1043.01 482 946.191 572.311 965.004 635.6C980.143 686.552 1095.8 691.014 1145.15 749.502Z" stroke="url(#paint24_linear_7666:6785)" stroke-miterlimit="10"/>
<path d="M1150.54 750.19C1268.55 889.345 1197.52 936.796 1123.79 963.146C1060.59 985.73 967.374 1083.9 859.013 1077.42C751.691 1071 636.312 957.991 570.913 971.54C486.566 989.013 394.286 1010.57 366.138 931.329C344.926 871.628 440.517 779.462 445.136 698.717C449.324 625.58 359.852 530.881 381.153 463.233C407.258 380.328 531.012 362.855 564.335 315.95C617.145 241.615 637.737 126.757 701.75 130.568C761.821 134.146 785.401 259.898 848.084 319.442C904.708 373.235 1018.26 371.096 1033.74 422.537C1051.7 482.193 953.282 571.451 971.181 634.995C985.651 686.386 1101 691.775 1150.54 750.19Z" stroke="url(#paint25_linear_7666:6785)" stroke-miterlimit="10"/>
<path d="M1155.87 751.051C1274.88 890.644 1203.24 941.608 1130.09 970.724C1066.56 996.008 973.635 1095.53 863.231 1089.84C753.988 1084.22 637.84 970.475 571.465 981.922C486.369 996.594 393.266 1017.83 366.635 939.584C346.388 880.096 443.594 789.834 449.379 709.378C454.582 637.031 365.789 542.365 386.905 474.77C412.714 392.143 536.844 373.863 570.873 325.908C623.282 252.051 641.107 134.293 705.218 134.666C766.658 135.022 794.805 258.612 858.484 318.424C915.529 372 1028.61 370.774 1043.34 422.741C1060.31 482.575 960.334 570.762 977.314 634.554C991.122 686.381 1106.14 692.709 1155.87 751.051Z" stroke="url(#paint26_linear_7666:6785)" stroke-miterlimit="10"/>
<path d="M1161.16 752.072C1281.2 892.144 1209 946.575 1136.37 978.392C1072.49 1006.38 979.758 1107.25 867.295 1102.38C756.163 1097.57 639.285 983.186 571.955 992.515C486.141 1004.4 392.21 1025.25 367.077 948.005C347.794 888.736 446.61 800.393 453.571 720.23C459.787 648.66 371.678 554.007 392.606 486.458C418.131 404.085 542.672 384.926 577.47 335.843C629.52 262.434 644.692 142.092 708.886 139.165C771.659 136.305 804.214 257.521 868.847 317.543C926.313 370.908 1038.91 370.603 1052.88 423.11C1068.86 483.117 967.357 570.219 983.429 634.244C996.555 686.519 1111.23 693.796 1161.16 752.072Z" stroke="url(#paint27_linear_7666:6785)" stroke-miterlimit="10"/>
<path d="M1166.43 753.232C1287.51 893.812 1214.8 951.666 1142.64 986.149C1078.44 1016.83 985.886 1119.06 871.433 1115.04C758.377 1111.07 640.714 996.121 572.406 1003.31C485.892 1012.42 391.144 1032.82 367.487 956.601C349.158 897.547 449.587 811.153 457.734 731.273C464.954 660.471 377.54 565.806 398.281 498.298C423.512 416.175 548.497 396.08 584.109 345.801C635.834 272.782 648.474 150.125 712.738 144.031C776.816 137.954 813.621 256.623 879.169 316.81C937.055 369.964 1049.14 370.601 1062.35 423.647C1077.33 483.819 974.347 569.82 989.511 634.074C1001.97 686.794 1116.28 695.013 1166.43 753.232Z" stroke="url(#paint28_linear_7666:6785)" stroke-miterlimit="10"/>
<path d="M1171.65 754.512C1293.8 895.63 1220.63 956.864 1148.91 993.957C1084.4 1027.31 991.971 1130.92 875.562 1127.79C760.575 1124.69 642.083 1009.24 572.805 1014.29C485.64 1020.64 390.081 1040.55 367.87 965.37C350.489 906.531 452.516 822.098 461.856 742.493C470.074 672.441 383.362 577.743 403.917 510.252C428.846 428.43 554.299 407.329 590.76 355.789C642.196 283.085 652.435 158.343 716.778 149.202C782.13 139.918 823.023 255.876 889.467 316.196C947.785 369.136 1059.33 370.725 1071.77 424.325C1085.76 484.659 981.33 569.538 995.596 634.006C1007.36 687.176 1121.3 696.353 1171.65 754.512Z" stroke="url(#paint29_linear_7666:6785)" stroke-miterlimit="10"/>
<path d="M1176.84 755.898C1300.08 897.556 1226.5 962.139 1155.2 1001.8C1090.4 1037.84 998.025 1142.84 879.672 1140.6C762.747 1138.39 643.402 1022.53 573.136 1025.41C485.342 1029.02 388.994 1048.38 368.205 974.252C351.761 915.624 455.398 833.178 465.936 753.849C475.148 684.535 389.143 589.787 409.519 522.306C434.129 440.806 560.081 418.647 597.428 365.772C648.613 293.307 656.596 166.682 721.02 154.61C787.621 142.127 832.424 255.255 899.723 315.673C958.467 368.403 1069.45 370.955 1081.1 425.112C1094.11 485.602 988.276 569.349 1001.64 634.024C1012.73 687.655 1126.3 697.787 1176.84 755.898Z" stroke="url(#paint30_linear_7666:6785)" stroke-miterlimit="10"/>
<path d="M1182.03 757.372C1306.37 899.606 1232.43 967.484 1161.5 1009.67C1096.41 1048.39 1004.04 1154.78 883.769 1153.48C764.913 1152.18 644.675 1035.98 573.436 1036.69C485.043 1037.57 387.916 1056.32 368.523 983.259C353.016 924.843 458.249 844.409 470.003 765.355C480.201 696.771 394.92 601.95 415.11 534.464C439.39 453.325 565.866 430.039 604.134 375.764C655.11 303.459 660.985 175.122 725.487 160.237C793.307 144.582 841.843 254.78 909.974 315.251C969.154 367.774 1079.56 371.294 1090.41 426.016C1102.45 486.654 995.234 569.26 1007.7 634.131C1018.1 688.219 1131.26 699.305 1182.03 757.372Z" stroke="url(#paint31_linear_7666:6785)" stroke-miterlimit="10"/>
<path d="M1187.19 758.915C1312.68 901.761 1238.43 972.884 1167.81 1017.56C1102.43 1058.93 1010 1166.75 887.842 1166.39C767.053 1166.03 645.899 1049.56 573.678 1048.08C484.72 1046.26 386.831 1064.33 368.806 992.337C354.231 934.131 461.06 855.732 474.04 776.955C485.222 709.089 400.674 614.181 420.68 546.68C444.614 465.942 571.641 441.469 610.861 385.716C661.662 313.495 665.582 183.595 730.168 166C799.184 147.196 851.276 254.382 920.207 314.88C979.817 367.195 1089.61 371.694 1099.67 426.991C1110.72 487.775 1002.18 569.229 1013.75 634.288C1023.46 688.845 1136.22 700.895 1187.19 758.915Z" stroke="url(#paint32_linear_7666:6785)" stroke-miterlimit="10"/>
<path d="M1192.37 760.523C1319.03 904.012 1244.5 978.34 1174.16 1025.46C1108.48 1069.46 1015.94 1178.72 891.916 1179.34C769.195 1179.94 647.095 1063.27 573.892 1059.59C484.402 1055.09 385.772 1072.42 369.083 1001.5C355.431 943.499 463.863 867.172 478.075 788.674C490.236 721.519 406.434 626.498 426.26 558.971C449.831 478.676 577.436 452.955 617.641 395.649C668.31 323.432 670.404 192.1 735.083 171.889C805.26 149.96 860.74 254.084 930.446 314.574C990.491 366.682 1099.65 372.169 1108.9 428.045C1118.98 488.971 1009.15 569.262 1019.83 634.497C1028.85 689.526 1141.18 702.543 1192.37 760.523Z" stroke="url(#paint33_linear_7666:6785)" stroke-miterlimit="10"/>
<path d="M1197.56 762.182C1325.43 906.346 1250.67 983.826 1180.55 1033.37C1114.58 1079.98 1021.87 1190.71 896.005 1192.31C771.351 1193.89 648.273 1077.08 574.089 1071.18C484.093 1064.03 384.749 1080.58 369.369 1010.74C356.641 952.928 466.663 878.702 482.123 800.487C495.262 734.025 412.219 638.884 431.858 571.313C455.055 491.503 583.255 464.476 624.479 405.546C675.046 333.268 675.459 200.599 740.24 177.866C811.554 152.839 870.26 253.869 940.703 314.318C1001.18 366.219 1109.69 372.701 1118.12 429.163C1127.23 490.222 1016.14 569.348 1025.95 634.755C1034.27 690.252 1146.17 704.237 1197.56 762.182Z" stroke="url(#paint34_linear_7666:6785)" stroke-miterlimit="10"/>
<path d="M1202.82 763.881C1331.92 908.75 1256.98 989.338 1187.03 1041.26C1120.75 1090.47 1027.82 1202.68 900.15 1205.29C773.569 1207.87 649.469 1090.97 574.307 1082.86C483.834 1073.08 383.805 1088.79 369.695 1020.01C357.879 962.403 469.496 890.303 486.219 812.375C500.337 746.608 418.071 651.323 437.524 583.702C460.331 504.417 589.163 476.004 631.44 415.373C681.934 342.962 680.799 209.055 745.686 183.891C818.108 155.811 879.87 253.724 951.025 314.102C1011.95 365.797 1119.77 373.277 1127.36 430.334C1135.51 491.526 1023.21 569.475 1032.13 635.045C1039.76 691.021 1151.21 705.969 1202.82 763.881Z" stroke="url(#paint35_linear_7666:6785)" stroke-miterlimit="10"/>
<path d="M1208.2 765.629C1338.55 911.22 1263.46 994.868 1193.66 1049.15C1127.08 1100.94 1033.88 1214.67 904.417 1218.3C775.905 1221.9 650.744 1104.97 574.603 1094.62C483.687 1082.25 382.989 1097.07 370.127 1029.36C359.221 971.935 472.424 901.992 490.419 824.36C505.509 759.267 424.037 663.82 443.297 596.136C465.701 517.419 595.19 487.552 638.556 425.146C689.01 352.543 686.451 217.464 751.455 189.958C824.954 158.855 889.629 253.652 961.47 313.93C1022.84 365.415 1129.95 373.903 1136.71 431.56C1143.89 492.881 1030.41 569.645 1038.47 635.379C1045.39 691.828 1156.37 707.743 1208.2 765.629Z" stroke="url(#paint36_linear_7666:6785)" stroke-miterlimit="10"/>
<path d="M1213.75 767.452C1345.4 913.823 1270.21 1000.42 1200.49 1056.97C1133.59 1111.25 1040.05 1226.48 908.818 1231.15C778.399 1235.78 652.165 1118.94 575.034 1106.49C483.784 1091.39 382.449 1105.3 370.771 1038.72C360.734 981.49 475.51 913.729 494.789 836.418C510.845 772.022 430.182 676.434 449.258 608.655C471.234 530.562 601.4 499.184 645.882 434.924C696.329 362.052 692.467 225.858 757.598 196.074C832.152 161.988 899.592 253.675 972.096 313.83C1033.9 365.109 1140.29 374.606 1146.2 432.864C1152.43 494.31 1037.81 569.893 1044.99 635.775C1051.2 692.71 1161.71 709.594 1213.75 767.452Z" stroke="url(#paint37_linear_7666:6785)" stroke-miterlimit="10"/>
<path d="M1219.39 769.162C1352.72 916.17 1277.5 1005.7 1207.7 1064.57C1140.42 1121.32 1046.49 1238.21 913.509 1243.99C781.09 1249.75 653.621 1133.05 575.522 1118.3C483.876 1100.71 381.931 1113.63 371.436 1048.09C362.299 991.036 478.664 925.484 499.24 848.481C516.276 784.734 436.438 688.952 455.322 621.082C476.862 543.662 607.707 510.727 653.309 444.576C703.768 371.383 698.723 234.133 764.01 202.176C839.562 165.194 909.618 253.795 982.834 313.646C1044.97 364.81 1150.61 375.248 1155.71 434.062C1161.06 495.628 1045.4 570.053 1051.75 636.081C1057.28 693.465 1167.25 711.244 1219.39 769.162Z" stroke="url(#paint38_linear_7666:6785)" stroke-miterlimit="10"/>
<path d="M1225.44 771.066C1359.95 918.892 1284.67 1011.39 1214.99 1072.58C1147.42 1131.89 1053.11 1250.34 918.395 1257.17C784.065 1263.98 655.417 1147.35 576.334 1130.3C484.317 1110.26 381.79 1122.15 372.442 1057.62C364.204 1000.74 482.154 937.432 504.042 860.746C522.054 797.635 443.066 701.649 461.751 633.675C482.83 557 614.394 522.418 661.161 454.273C711.665 380.678 705.52 242.384 770.948 208.272C847.52 168.349 920.115 253.875 993.924 313.613C1056.54 364.536 1161.4 376.008 1165.62 435.461C1170 497.149 1053.25 570.379 1058.74 636.54C1063.55 694.43 1173.04 713.198 1225.44 771.066Z" stroke="url(#paint39_linear_7666:6785)" stroke-miterlimit="10"/>
<path d="M1231.65 772.982C1367.39 921.656 1292.06 1017.09 1222.45 1080.56C1154.59 1142.42 1059.87 1262.46 923.441 1270.35C787.201 1278.22 657.336 1161.71 577.274 1142.33C484.894 1119.87 381.851 1130.66 373.665 1067.13C366.357 1010.42 485.921 949.425 509.121 873.08C528.105 810.604 449.953 714.399 468.364 646.284C489.037 570.443 621.37 534.181 669.313 463.977C719.89 389.918 712.687 250.614 778.238 214.389C855.795 171.532 930.802 253.973 1005.21 313.586C1068.3 364.269 1172.35 376.78 1175.69 436.875C1179.11 498.677 1061.31 570.716 1065.94 637.008C1070.01 695.4 1179 715.157 1231.65 772.982Z" stroke="url(#paint40_linear_7666:6785)" stroke-miterlimit="10"/>
<path d="M1238.22 774.939C1375.18 924.483 1299.84 1022.81 1230.28 1088.54C1162.11 1152.94 1066.94 1274.58 928.824 1283.54C790.675 1292.5 659.554 1176.13 578.511 1154.41C485.825 1129.58 382.224 1139.29 375.075 1076.77C368.612 1020.22 489.718 961.478 514.268 885.477C534.252 823.615 457.025 727.182 475.308 658.947C495.409 583.929 628.473 545.87 677.633 473.521C728.303 398.948 720.218 258.652 785.959 220.399C864.527 174.684 941.867 254.138 1016.82 313.602C1080.4 364.038 1183.62 377.589 1186.05 438.329C1188.53 500.252 1069.71 571.092 1073.48 637.512C1076.83 696.409 1185.3 717.153 1238.22 774.939Z" stroke="url(#paint41_linear_7666:6785)" stroke-miterlimit="10"/>
</g>
<defs>
<linearGradient id="paint0_linear_7666:6785" x1="384.875" y1="-5.63988" x2="1260.56" y2="674.669" gradientUnits="userSpaceOnUse">
<stop stop-color="#0B0A15"/>
<stop offset="0.505208" stop-color="#0F2EEE"/>
<stop offset="1" stop-color="#03B3FF"/>
</linearGradient>
<linearGradient id="paint1_linear_7666:6785" x1="392.62" y1="-1.79497" x2="1268.34" y2="676.568" gradientUnits="userSpaceOnUse">
<stop stop-color="#0B0A15"/>
<stop offset="0.505208" stop-color="#0F2EEE"/>
<stop offset="1" stop-color="#03B3FF"/>
</linearGradient>
<linearGradient id="paint2_linear_7666:6785" x1="400.438" y1="1.97444" x2="1276.16" y2="678.219" gradientUnits="userSpaceOnUse">
<stop stop-color="#0B0A15"/>
<stop offset="0.505208" stop-color="#0F2EEE"/>
<stop offset="1" stop-color="#03B3FF"/>
</linearGradient>
<linearGradient id="paint3_linear_7666:6785" x1="408.266" y1="5.57159" x2="1284.1" y2="679.675" gradientUnits="userSpaceOnUse">
<stop stop-color="#0B0A15"/>
<stop offset="0.505208" stop-color="#0F2EEE"/>
<stop offset="1" stop-color="#03B3FF"/>
</linearGradient>
<linearGradient id="paint4_linear_7666:6785" x1="416.162" y1="8.89342" x2="1292.29" y2="680.742" gradientUnits="userSpaceOnUse">
<stop stop-color="#0B0A15"/>
<stop offset="0.505208" stop-color="#0F2EEE"/>
<stop offset="1" stop-color="#03B3FF"/>
</linearGradient>
<linearGradient id="paint5_linear_7666:6785" x1="424.072" y1="12.0483" x2="1300.56" y2="681.596" gradientUnits="userSpaceOnUse">
<stop stop-color="#0B0A15"/>
<stop offset="0.505208" stop-color="#0F2EEE"/>
<stop offset="1" stop-color="#03B3FF"/>
</linearGradient>
<linearGradient id="paint6_linear_7666:6785" x1="432.028" y1="15.0273" x2="1308.92" y2="682.169" gradientUnits="userSpaceOnUse">
<stop stop-color="#0B0A15"/>
<stop offset="0.505208" stop-color="#0F2EEE"/>
<stop offset="1" stop-color="#03B3FF"/>
</linearGradient>
<linearGradient id="paint7_linear_7666:6785" x1="440.05" y1="17.7672" x2="1317.45" y2="682.385" gradientUnits="userSpaceOnUse">
<stop stop-color="#0B0A15"/>
<stop offset="0.505208" stop-color="#0F2EEE"/>
<stop offset="1" stop-color="#03B3FF"/>
</linearGradient>
<linearGradient id="paint8_linear_7666:6785" x1="448.094" y1="20.3297" x2="1326.06" y2="682.333" gradientUnits="userSpaceOnUse">
<stop stop-color="#0B0A15"/>
<stop offset="0.505208" stop-color="#0F2EEE"/>
<stop offset="1" stop-color="#03B3FF"/>
</linearGradient>
<linearGradient id="paint9_linear_7666:6785" x1="456.219" y1="22.6091" x2="1334.87" y2="681.858" gradientUnits="userSpaceOnUse">
<stop stop-color="#0B0A15"/>
<stop offset="0.505208" stop-color="#0F2EEE"/>
<stop offset="1" stop-color="#03B3FF"/>
</linearGradient>
<linearGradient id="paint10_linear_7666:6785" x1="464.386" y1="24.6644" x2="1343.81" y2="681.055" gradientUnits="userSpaceOnUse">
<stop stop-color="#0B0A15"/>
<stop offset="0.505208" stop-color="#0F2EEE"/>
<stop offset="1" stop-color="#03B3FF"/>
</linearGradient>
<linearGradient id="paint11_linear_7666:6785" x1="472.609" y1="26.4692" x2="1352.91" y2="679.87" gradientUnits="userSpaceOnUse">
<stop stop-color="#0B0A15"/>
<stop offset="0.505208" stop-color="#0F2EEE"/>
<stop offset="1" stop-color="#03B3FF"/>
</linearGradient>
<linearGradient id="paint12_linear_7666:6785" x1="480.857" y1="28.1624" x2="1362.06" y2="678.485" gradientUnits="userSpaceOnUse">
<stop stop-color="#0B0A15"/>
<stop offset="0.505208" stop-color="#0F2EEE"/>
<stop offset="1" stop-color="#03B3FF"/>
</linearGradient>
<linearGradient id="paint13_linear_7666:6785" x1="489.133" y1="29.7396" x2="1371.27" y2="676.896" gradientUnits="userSpaceOnUse">
<stop stop-color="#0B0A15"/>
<stop offset="0.505208" stop-color="#0F2EEE"/>
<stop offset="1" stop-color="#03B3FF"/>
</linearGradient>
<linearGradient id="paint14_linear_7666:6785" x1="497.411" y1="31.2371" x2="1380.51" y2="675.155" gradientUnits="userSpaceOnUse">
<stop stop-color="#0B0A15"/>
<stop offset="0.505208" stop-color="#0F2EEE"/>
<stop offset="1" stop-color="#03B3FF"/>
</linearGradient>
<linearGradient id="paint15_linear_7666:6785" x1="505.688" y1="32.725" x2="1389.75" y2="673.344" gradientUnits="userSpaceOnUse">
<stop stop-color="#0B0A15"/>
<stop offset="0.505208" stop-color="#0F2EEE"/>
<stop offset="1" stop-color="#03B3FF"/>
</linearGradient>
<linearGradient id="paint16_linear_7666:6785" x1="513.946" y1="34.2674" x2="1398.94" y2="671.532" gradientUnits="userSpaceOnUse">
<stop stop-color="#0B0A15"/>
<stop offset="0.505208" stop-color="#0F2EEE"/>
<stop offset="1" stop-color="#03B3FF"/>
</linearGradient>
<linearGradient id="paint17_linear_7666:6785" x1="522.166" y1="35.9109" x2="1408.07" y2="669.803" gradientUnits="userSpaceOnUse">
<stop stop-color="#0B0A15"/>
<stop offset="0.505208" stop-color="#0F2EEE"/>
<stop offset="1" stop-color="#03B3FF"/>
</linearGradient>
<linearGradient id="paint18_linear_7666:6785" x1="530.339" y1="37.7178" x2="1417.12" y2="668.231" gradientUnits="userSpaceOnUse">
<stop stop-color="#0B0A15"/>
<stop offset="0.505208" stop-color="#0F2EEE"/>
<stop offset="1" stop-color="#03B3FF"/>
</linearGradient>
<linearGradient id="paint19_linear_7666:6785" x1="538.453" y1="39.7703" x2="1426.02" y2="666.913" gradientUnits="userSpaceOnUse">
<stop stop-color="#0B0A15"/>
<stop offset="0.505208" stop-color="#0F2EEE"/>
<stop offset="1" stop-color="#03B3FF"/>
</linearGradient>
<linearGradient id="paint20_linear_7666:6785" x1="546.47" y1="42.0955" x2="1434.76" y2="665.898" gradientUnits="userSpaceOnUse">
<stop stop-color="#0B0A15"/>
<stop offset="0.505208" stop-color="#0F2EEE"/>
<stop offset="1" stop-color="#03B3FF"/>
</linearGradient>
<linearGradient id="paint21_linear_7666:6785" x1="554.403" y1="44.7381" x2="1443.34" y2="665.239" gradientUnits="userSpaceOnUse">
<stop stop-color="#0B0A15"/>
<stop offset="0.505208" stop-color="#0F2EEE"/>
<stop offset="1" stop-color="#03B3FF"/>
</linearGradient>
<linearGradient id="paint22_linear_7666:6785" x1="562.243" y1="47.7305" x2="1451.75" y2="664.993" gradientUnits="userSpaceOnUse">
<stop stop-color="#0B0A15"/>
<stop offset="0.505208" stop-color="#0F2EEE"/>
<stop offset="1" stop-color="#03B3FF"/>
</linearGradient>
<linearGradient id="paint23_linear_7666:6785" x1="569.982" y1="51.1152" x2="1459.97" y2="665.215" gradientUnits="userSpaceOnUse">
<stop stop-color="#0B0A15"/>
<stop offset="0.505208" stop-color="#0F2EEE"/>
<stop offset="1" stop-color="#03B3FF"/>
</linearGradient>
<linearGradient id="paint24_linear_7666:6785" x1="577.615" y1="54.8641" x2="1468.01" y2="665.872" gradientUnits="userSpaceOnUse">
<stop stop-color="#0B0A15"/>
<stop offset="0.505208" stop-color="#0F2EEE"/>
<stop offset="1" stop-color="#03B3FF"/>
</linearGradient>
<linearGradient id="paint25_linear_7666:6785" x1="585.17" y1="58.932" x2="1475.92" y2="666.911" gradientUnits="userSpaceOnUse">
<stop stop-color="#0B0A15"/>
<stop offset="0.505208" stop-color="#0F2EEE"/>
<stop offset="1" stop-color="#03B3FF"/>
</linearGradient>
<linearGradient id="paint26_linear_7666:6785" x1="592.65" y1="63.2722" x2="1483.71" y2="668.28" gradientUnits="userSpaceOnUse">
<stop stop-color="#0B0A15"/>
<stop offset="0.505208" stop-color="#0F2EEE"/>
<stop offset="1" stop-color="#03B3FF"/>
</linearGradient>
<linearGradient id="paint27_linear_7666:6785" x1="600.078" y1="67.7867" x2="1491.45" y2="669.888" gradientUnits="userSpaceOnUse">
<stop stop-color="#0B0A15"/>
<stop offset="0.505208" stop-color="#0F2EEE"/>
<stop offset="1" stop-color="#03B3FF"/>
</linearGradient>
<linearGradient id="paint28_linear_7666:6785" x1="607.485" y1="72.448" x2="1499.17" y2="671.678" gradientUnits="userSpaceOnUse">
<stop stop-color="#0B0A15"/>
<stop offset="0.505208" stop-color="#0F2EEE"/>
<stop offset="1" stop-color="#03B3FF"/>
</linearGradient>
<linearGradient id="paint29_linear_7666:6785" x1="614.867" y1="77.1881" x2="1506.88" y2="673.585" gradientUnits="userSpaceOnUse">
<stop stop-color="#0B0A15"/>
<stop offset="0.505208" stop-color="#0F2EEE"/>
<stop offset="1" stop-color="#03B3FF"/>
</linearGradient>
<linearGradient id="paint30_linear_7666:6785" x1="622.245" y1="81.9336" x2="1514.61" y2="675.52" gradientUnits="userSpaceOnUse">
<stop stop-color="#0B0A15"/>
<stop offset="0.505208" stop-color="#0F2EEE"/>
<stop offset="1" stop-color="#03B3FF"/>
</linearGradient>
<linearGradient id="paint31_linear_7666:6785" x1="629.679" y1="86.551" x2="1523.28" y2="676.689" gradientUnits="userSpaceOnUse">
<stop stop-color="#0B0A15"/>
<stop offset="0.505208" stop-color="#0F2EEE"/>
<stop offset="1" stop-color="#03B3FF"/>
</linearGradient>
<linearGradient id="paint32_linear_7666:6785" x1="637.145" y1="91.0526" x2="1532.15" y2="677.652" gradientUnits="userSpaceOnUse">
<stop stop-color="#0B0A15"/>
<stop offset="0.505208" stop-color="#0F2EEE"/>
<stop offset="1" stop-color="#03B3FF"/>
</linearGradient>
<linearGradient id="paint33_linear_7666:6785" x1="644.67" y1="95.4564" x2="1541.09" y2="678.551" gradientUnits="userSpaceOnUse">
<stop stop-color="#0B0A15"/>
<stop offset="0.505208" stop-color="#0F2EEE"/>
<stop offset="1" stop-color="#03B3FF"/>
</linearGradient>
<linearGradient id="paint34_linear_7666:6785" x1="652.269" y1="99.7258" x2="1550.1" y2="679.352" gradientUnits="userSpaceOnUse">
<stop stop-color="#0B0A15"/>
<stop offset="0.505208" stop-color="#0F2EEE"/>
<stop offset="1" stop-color="#03B3FF"/>
</linearGradient>
<linearGradient id="paint35_linear_7666:6785" x1="659.997" y1="103.833" x2="1559.25" y2="680.016" gradientUnits="userSpaceOnUse">
<stop stop-color="#0B0A15"/>
<stop offset="0.505208" stop-color="#0F2EEE"/>
<stop offset="1" stop-color="#03B3FF"/>
</linearGradient>
<linearGradient id="paint36_linear_7666:6785" x1="667.894" y1="107.77" x2="1568.59" y2="680.542" gradientUnits="userSpaceOnUse">
<stop stop-color="#0B0A15"/>
<stop offset="0.505208" stop-color="#0F2EEE"/>
<stop offset="1" stop-color="#03B3FF"/>
</linearGradient>
<linearGradient id="paint37_linear_7666:6785" x1="676.043" y1="111.567" x2="1578.15" y2="680.989" gradientUnits="userSpaceOnUse">
<stop stop-color="#0B0A15"/>
<stop offset="0.505208" stop-color="#0F2EEE"/>
<stop offset="1" stop-color="#03B3FF"/>
</linearGradient>
<linearGradient id="paint38_linear_7666:6785" x1="684.347" y1="115.194" x2="1588.05" y2="681.516" gradientUnits="userSpaceOnUse">
<stop stop-color="#0B0A15"/>
<stop offset="0.505208" stop-color="#0F2EEE"/>
<stop offset="1" stop-color="#03B3FF"/>
</linearGradient>
<linearGradient id="paint39_linear_7666:6785" x1="693.097" y1="118.564" x2="1598.22" y2="681.435" gradientUnits="userSpaceOnUse">
<stop stop-color="#0B0A15"/>
<stop offset="0.505208" stop-color="#0F2EEE"/>
<stop offset="1" stop-color="#03B3FF"/>
</linearGradient>
<linearGradient id="paint40_linear_7666:6785" x1="702.087" y1="121.746" x2="1608.63" y2="681.182" gradientUnits="userSpaceOnUse">
<stop stop-color="#0B0A15"/>
<stop offset="0.505208" stop-color="#0F2EEE"/>
<stop offset="1" stop-color="#03B3FF"/>
</linearGradient>
<linearGradient id="paint41_linear_7666:6785" x1="711.489" y1="124.696" x2="1619.46" y2="680.721" gradientUnits="userSpaceOnUse">
<stop stop-color="#0B0A15"/>
<stop offset="0.505208" stop-color="#0F2EEE"/>
<stop offset="1" stop-color="#03B3FF"/>
</linearGradient>
<clipPath id="clip0_7666:6785">
<rect width="1246" height="1087" fill="white" transform="translate(281.336) rotate(15)"/>
</clipPath>
</defs>
</svg>
