<svg width="24" height="24" viewBox="0 0 24 24" fill="none" xmlns="http://www.w3.org/2000/svg">
<g clip-path="url(#clip0)">
<path d="M23 10.5C23.1326 10.5 23.2598 10.4473 23.3535 10.3536C23.4473 10.2598 23.5 10.1326 23.5 10C23.4968 7.34881 22.4422 4.80712 20.5676 2.93244C18.6929 1.05776 16.1512 0.00317571 13.5 0C13.3674 0 13.2402 0.0526784 13.1464 0.146447C13.0527 0.240215 13 0.367392 13 0.5V9.525C13.0003 9.7836 13.103 10.0315 13.2858 10.2145C13.4686 10.3974 13.7164 10.5005 13.975 10.501L23 10.5Z" fill="#BFBFBF"/>
<path d="M23.5005 11.9996H14.0005C13.8531 11.9808 13.7037 12.011 13.5752 12.0855C13.4466 12.16 13.3462 12.2748 13.2893 12.412C13.2325 12.5493 13.2223 12.7015 13.2605 12.845C13.2987 12.9886 13.383 13.1157 13.5005 13.2066L20.2185 19.9246C20.3123 20.0183 20.4394 20.071 20.572 20.071C20.7046 20.071 20.8318 20.0183 20.9255 19.9246C21.9035 18.9517 22.6788 17.7945 23.2066 16.5201C23.7345 15.2456 24.0043 13.8791 24.0005 12.4996C24.0005 12.367 23.9478 12.2398 23.8541 12.146C23.7603 12.0523 23.6331 11.9996 23.5005 11.9996Z" fill="#BFBFBF"/>
<path d="M10.5881 24.0002C11.9543 23.9973 13.3064 23.7232 14.5658 23.1938C15.8253 22.6644 16.9671 21.8902 17.9251 20.9162C18.0189 20.8224 18.0715 20.6953 18.0715 20.5627C18.0715 20.4301 18.0189 20.303 17.9251 20.2092L11.2071 13.4912C11.089 13.3494 11.0168 13.175 11.0001 12.9912V3.49121C11.0001 3.3586 10.9475 3.23143 10.8537 3.13766C10.7599 3.04389 10.6328 2.99121 10.5001 2.99121C7.71418 3.00288 5.04695 4.12079 3.08523 6.09902C1.1235 8.07725 0.0279735 10.7537 0.0396431 13.5397C0.0513126 16.3257 1.16923 18.9929 3.14745 20.9546C5.12568 22.9164 7.80218 24.0119 10.5881 24.0002Z" fill="#BFBFBF"/>
</g>
<defs>
<clipPath id="clip0">
<rect width="24" height="24" fill="white"/>
</clipPath>
</defs>
</svg>
